<svg width="18" height="16" viewBox="0 0 18 16" fill="none" xmlns="http://www.w3.org/2000/svg">
<path d="M9 0C10.6272 0 12.1323 0.304757 13.5151 0.914272C14.8979 1.52379 15.9911 2.35261 16.7946 3.40072C17.5982 4.44879 18 5.59204 18 6.83043C18 8.06879 17.5982 9.21365 16.7946 10.265C15.9911 11.3163 14.8995 12.1468 13.5201 12.7563C12.1406 13.3658 10.6339 13.6705 9 13.6705C8.48438 13.6705 7.95199 13.635 7.4029 13.5641C5.01896 15.1572 3.75001 15.9635 3.59599 15.9828C3.52232 16.0086 3.45199 16.0054 3.38504 15.9731C3.35824 15.9538 3.33817 15.928 3.32477 15.8957C3.31137 15.8635 3.30469 15.8345 3.30469 15.8086V15.77C3.34488 15.5184 3.64955 14.4703 4.21875 12.6256C2.92634 12.0065 1.90011 11.1857 1.14007 10.1634C0.380023 9.14111 0 8.03011 0 6.83043C0 5.59204 0.401786 4.44879 1.20536 3.40072C2.00893 2.35261 3.10212 1.52379 4.48493 0.914272C5.86774 0.304757 7.37276 0 9 0Z" fill="black"/>
</svg>
