<svg width="283" height="208" viewBox="0 0 283 208" fill="none" xmlns="http://www.w3.org/2000/svg">
<ellipse cx="141" cy="199.015" rx="131" ry="8.98522" fill="black" fill-opacity="0.06"/>
<path d="M19.6619 148.96C19.6999 148.764 19.8491 148.608 20.0439 148.563C20.2387 148.518 20.4436 148.593 20.5625 148.752C20.5903 148.787 23.2742 152.358 25.8873 155.935C30.9769 162.895 31.2577 163.549 31.0578 163.919C30.9389 164.875 31.0806 173.197 31.4246 185.298C31.4499 186.212 31.0553 187.075 30.3698 187.604C29.2213 188.487 28.035 187.992 27.3216 187.408C26.6867 188.027 26.0391 188.296 25.3864 188.211C24.7262 188.125 24.2329 187.682 23.9117 187.284C23.2489 188.032 22.5457 188.261 21.931 188.261C21.4833 188.261 21.0836 188.138 20.7826 188.009C19.6898 187.533 18.9334 186.517 18.8044 185.359C16.5986 165.575 19.6265 149.127 19.6569 148.963L19.6619 148.96ZM30.0865 163.705C30.0966 163.632 30.1067 163.582 30.1194 163.544C30.0991 163.604 30.0865 163.66 30.0865 163.705ZM19.8137 185.248C19.9022 186.038 20.4436 186.761 21.1949 187.088C21.7438 187.327 22.5583 187.498 23.3881 186.325C22.528 183.604 22.6949 179.499 22.7025 179.321C22.7152 179.044 22.9504 178.827 23.2287 178.84C23.5069 178.852 23.7245 179.086 23.7118 179.363C23.7118 179.406 23.5373 183.677 24.4151 186.21C24.5517 186.484 24.9817 187.143 25.523 187.211C25.9632 187.269 26.4211 186.907 26.7626 186.534C26.5273 184.949 26.6487 181.377 26.6538 181.218C26.6639 180.939 26.8992 180.72 27.1774 180.733C27.4557 180.743 27.6757 180.974 27.6656 181.254C27.6656 181.294 27.5366 185.032 27.7744 186.451C28.0527 186.736 28.9026 187.461 29.7551 186.806C30.1877 186.474 30.4356 185.92 30.4178 185.326C29.9322 168.243 29.9752 164.619 30.0839 163.745C29.6564 162.731 24.2608 155.371 20.4664 150.302C19.8339 154.362 17.962 168.613 19.8162 185.248H19.8137Z" fill="black"/>
<path d="M32.1352 188.428C33.5492 188.085 34.9253 188.176 36.5367 188.659C35.6538 182.921 34.8798 177.167 34.2094 171.4C25.3583 165.8 19.4846 155.956 19.4846 144.748C19.4846 127.318 33.6858 113.185 51.2059 113.185C68.726 113.185 82.9272 127.315 82.9272 144.748C82.9272 155.958 77.0535 165.802 68.2024 171.4C67.5295 177.167 66.758 182.923 65.8751 188.659C67.4865 188.176 68.8626 188.085 70.2767 188.428C71.7034 188.775 72.743 189.495 73.5753 190.701C74.5264 192.077 74.6124 193.925 73.6512 195.294C72.6899 196.663 71.291 197.519 69.5152 198.023C65.3439 199.208 60.1253 198.78 55.3039 197.517C54.9573 197.426 54.2591 197.038 54.034 196.759C53.7836 196.449 53.6849 195.933 53.69 195.536C53.7684 189.482 53.2195 182.46 53.5837 176.218C52.797 176.276 52.0053 176.306 51.2034 176.306C50.4015 176.306 49.6097 176.276 48.823 176.218C49.1873 182.46 48.6383 189.48 48.7168 195.536C48.7218 195.936 48.6257 196.449 48.3727 196.759C48.1476 197.036 47.452 197.426 47.1029 197.517C42.2814 198.78 37.0628 199.208 32.8915 198.023C31.1157 197.517 29.7194 196.663 28.7556 195.294C27.7943 193.925 27.8804 192.077 28.8315 190.701C29.6637 189.495 30.7034 188.775 32.1301 188.428H32.1352Z" fill="#FFDC4C"/>
<path d="M53.9076 176.731C53.9076 176.731 53.9304 176.731 53.9431 176.731C59.2755 176.359 63.4924 174.972 68.0381 172.095C68.2733 171.946 68.3442 171.634 68.1924 171.4C68.0431 171.166 67.7295 171.096 67.4942 171.247C63.1003 174.028 59.0251 175.37 53.8722 175.727C53.594 175.747 53.384 175.986 53.4043 176.263C53.422 176.527 53.6446 176.731 53.9076 176.731Z" fill="black"/>
<path d="M52.5489 152.585C52.5691 152.585 52.5893 152.585 52.6096 152.582C52.6855 152.572 54.4815 152.348 55.3871 151.052C55.888 150.334 56.0144 149.453 55.7665 148.432C55.5009 147.344 54.5953 146.514 53.5152 146.365C52.5843 146.237 51.2588 146.519 50.2393 148.59C50.1154 148.839 50.2191 149.141 50.4721 149.265C50.7225 149.386 51.026 149.285 51.15 149.033C51.7546 147.805 52.5059 147.244 53.3786 147.364C54.0515 147.457 54.6181 147.984 54.785 148.671C54.9621 149.401 54.8862 150.01 54.5599 150.478C53.9225 151.392 52.5084 151.58 52.4957 151.583C52.2175 151.616 52.0202 151.865 52.0531 152.142C52.0834 152.398 52.301 152.585 52.5539 152.585H52.5489Z" fill="black"/>
<path d="M56.6572 153.492C56.6572 153.492 52.0862 155.543 45.1197 150.992C45.1197 150.992 42.117 155.163 44.9831 159.17C46.5008 161.294 49.4858 161.873 51.9446 160.977C53.9708 160.24 56.1311 158.299 56.6572 153.489V153.492Z" fill="black"/>
<path d="M50.9883 159.431C50.9883 158.49 50.6746 156.826 48.2968 157.554C48.2968 157.554 48.36 155.173 46.0758 155.558C45.6559 155.628 45.3093 155.93 45.1929 156.338C44.9501 157.199 44.9476 158.772 46.4729 159.834C46.4729 159.834 48.6003 161.432 50.4014 160.426C50.7606 160.224 50.9883 159.844 50.9883 159.434V159.431Z" fill="white"/>
<path d="M65.4349 148.213H68.2023C68.8953 148.213 69.457 148.772 69.457 149.461C69.457 150.151 68.8953 150.71 68.2023 150.71H65.4349C64.742 150.71 64.1803 150.151 64.1803 149.461C64.1803 148.772 64.742 148.213 65.4349 148.213Z" fill="#F77872"/>
<path d="M35.4262 148.213H38.1935C38.8865 148.213 39.4482 148.772 39.4482 149.461C39.4482 150.151 38.8865 150.71 38.1935 150.71H35.4262C34.7332 150.71 34.1715 150.151 34.1715 149.461C34.1715 148.772 34.7332 148.213 35.4262 148.213Z" fill="#F77872"/>
<path d="M47.7023 124.967C49.5009 124.967 51.646 124.549 54.1579 123.414C56.1968 122.493 57.8107 121.053 58.8276 119.246C59.928 117.293 60.2088 115.344 59.6649 113.454C58.9161 110.857 56.599 108.481 52.7768 106.394C52.7489 106.379 52.7186 106.361 52.6907 106.344C52.1216 105.979 48.3778 104.39 44.3531 105.641C44.0875 105.724 43.9383 106.006 44.0218 106.273C44.1052 106.537 44.3886 106.686 44.6567 106.603C48.608 105.372 52.1165 107.172 52.1469 107.192C52.1949 107.222 52.243 107.25 52.2911 107.277C55.8705 109.231 58.0232 111.403 58.6935 113.733C59.1615 115.354 58.9085 117.043 57.9447 118.755C57.0341 120.373 55.5796 121.667 53.7405 122.498C44.9805 126.452 41.2822 121.269 41.1279 121.048C38.7298 117.718 40.5865 114.753 41.4947 113.63C42.3016 112.636 43.4501 111.858 44.8186 111.383C48.7445 110.018 51.4184 110.635 52.5516 113.162C52.9918 114.144 53.098 115.294 52.8552 116.401C52.6402 117.378 52.1798 118.073 51.4512 118.523C49.9031 119.48 47.586 119.012 46.9131 118.846C46.7588 118.808 46.6349 118.762 46.5311 118.707C45.8937 118.365 45.5496 117.907 45.4813 117.308C45.3675 116.308 46.1163 115.372 47.1484 115.221C48.2892 115.055 49.425 115.606 49.4351 115.611C49.6856 115.734 49.9891 115.634 50.1131 115.385C50.237 115.135 50.1384 114.836 49.8879 114.71C49.8298 114.682 48.4663 114.01 47.0016 114.224C45.4358 114.453 44.3026 115.886 44.4746 117.421C44.5479 118.065 44.8793 118.969 46.0505 119.593C46.2301 119.689 46.4325 119.764 46.6677 119.822C47.6543 120.066 50.151 120.512 51.985 119.379C52.9437 118.785 53.5711 117.859 53.8442 116.618C54.1352 115.302 54.0036 113.93 53.4775 112.752C52.6882 110.992 50.4723 108.352 44.4872 110.431C42.9416 110.967 41.6338 111.856 40.708 112.996C39.8858 114.01 37.4245 117.63 40.2982 121.622C40.3235 121.66 42.6457 124.964 47.7023 124.964V124.967Z" fill="black"/>
<path d="M48.34 176.731C48.6031 176.731 48.8257 176.527 48.8434 176.263C48.8636 175.986 48.6537 175.744 48.3754 175.727C43.2226 175.367 39.1474 174.028 34.7534 171.247C34.5182 171.098 34.2045 171.166 34.0553 171.4C33.906 171.634 33.9743 171.946 34.2096 172.095C38.7553 174.972 42.9721 176.359 48.3046 176.731C48.3172 176.731 48.3299 176.731 48.34 176.731Z" fill="black"/>
<path d="M63.8315 145.202C63.8315 145.202 64.8788 139.989 63.3559 135.156C63.3559 135.156 63.1131 134.429 62.6148 133.644C61.2892 131.547 58.0134 131.318 56.9282 133.546C56.6297 134.16 56.4223 135.061 56.3211 136.171C56.1111 138.494 56.4248 140.85 57.3431 142.997C57.854 144.192 58.5927 145.426 59.6399 146.244C59.6399 146.244 60.2218 145.25 63.829 145.202H63.8315Z" fill="white"/>
<path d="M58.7824 147.838C58.9923 147.838 59.1896 147.705 59.263 147.496C59.3895 147.121 59.7968 146.758 59.9435 146.65L59.9637 146.635C61.4309 145.432 63.7455 145.701 63.7682 145.704L63.8315 145.709C63.8315 145.709 64.5954 145.716 65.1595 146.026C65.4049 146.159 65.711 146.071 65.8476 145.827C65.9817 145.583 65.8931 145.278 65.6503 145.142C64.9268 144.745 64.0516 144.704 63.8669 144.702C63.5482 144.667 61.0565 144.443 59.3313 145.852C59.2099 145.943 58.5497 146.464 58.3068 147.176C58.2183 147.44 58.3599 147.725 58.6255 147.815C58.6787 147.833 58.7343 147.843 58.7874 147.843L58.7824 147.838Z" fill="black"/>
<path d="M60.8516 140.675C61.5017 139.676 61.6358 138.611 61.1501 138.299C60.7681 138.053 60.1155 138.347 59.5362 138.971C59.268 138.342 59.0277 137.667 58.8254 136.955C58.3473 135.264 58.1601 133.63 58.236 132.251C59.6703 131.586 61.6509 132.125 62.6122 133.643C63.108 134.428 63.3534 135.155 63.3534 135.155C64.3551 138.334 64.2463 141.677 64.0515 143.592C62.941 143.65 61.6788 142.654 60.6113 141.007C60.6947 140.902 60.7757 140.791 60.8516 140.675Z" fill="black"/>
<path d="M56.2577 133.056C56.4777 133.056 56.6801 132.912 56.7433 132.691C57.4187 130.35 58.7367 130.35 58.7544 130.353C58.7974 130.353 58.8404 130.353 58.8809 130.343C60.0268 130.116 61.2283 131.244 61.241 131.254C61.4434 131.445 61.7621 131.44 61.9569 131.239C62.1491 131.037 62.1441 130.72 61.9442 130.529C61.881 130.468 60.386 129.051 58.7341 129.346C58.3395 129.356 56.5916 129.57 55.772 132.412C55.6936 132.678 55.8504 132.958 56.1185 133.033C56.1641 133.046 56.2121 133.053 56.2577 133.053V133.056Z" fill="black"/>
<path d="M41.1915 145.522C41.1915 145.522 39.7116 140.415 40.8247 135.474C40.8247 135.474 41.0068 134.726 41.4368 133.903C42.5828 131.703 45.8282 131.205 47.0956 133.334C47.4447 133.923 47.728 134.804 47.9202 135.899C48.3224 138.197 48.2086 140.571 47.4725 142.786C47.0627 144.019 46.4303 145.308 45.4564 146.211C45.4564 146.211 44.7911 145.267 41.194 145.519L41.1915 145.522Z" fill="white"/>
<path d="M46.3998 147.719C46.5061 147.719 46.6123 147.686 46.7008 147.618C46.9235 147.45 46.9715 147.145 46.8046 146.924L46.7869 146.901C46.0179 145.907 44.9048 145.24 43.6603 145.026C42.8584 144.887 42.0008 144.89 41.118 145.026L41.0927 145.031C41.0573 145.038 40.2453 145.209 39.451 145.574C39.198 145.69 39.0867 145.99 39.2031 146.241C39.3194 146.493 39.6205 146.604 39.8734 146.488C40.5159 146.194 41.1914 146.04 41.2875 146.017C42.059 145.899 42.8002 145.899 43.4908 146.017C44.4849 146.186 45.3728 146.72 45.99 147.518C46.0912 147.648 46.248 147.719 46.4049 147.719H46.3998Z" fill="black"/>
<path d="M47.9126 133.054C47.9581 133.054 48.0061 133.047 48.0517 133.034C48.3198 132.959 48.4767 132.679 48.3982 132.413C47.5786 129.571 45.8307 129.359 45.4361 129.347C43.7868 129.052 42.2892 130.469 42.226 130.53C42.0261 130.724 42.0186 131.041 42.2133 131.242C42.4081 131.441 42.7268 131.449 42.9292 131.255C42.9469 131.237 44.146 130.117 45.2893 130.344C45.3323 130.351 45.3754 130.356 45.4158 130.354C45.4892 130.354 46.759 130.386 47.4243 132.692C47.4876 132.913 47.6899 133.057 47.91 133.057L47.9126 133.054Z" fill="black"/>
<path d="M44.9758 138.524C44.6747 138.287 44.1157 138.451 43.501 138.894C43.3391 138.05 43.2354 137.147 43.2025 136.205C43.1494 134.746 43.2708 133.364 43.5288 132.151C44.8392 131.723 46.3291 132.047 47.0956 133.334C47.4447 133.923 47.728 134.803 47.9202 135.898C48.3224 138.196 48.2086 140.57 47.4725 142.785C47.2853 143.354 47.045 143.933 46.7516 144.481C45.7473 144.124 44.8442 142.971 44.1966 141.338C45.1022 140.137 45.4513 138.899 44.9758 138.524Z" fill="black"/>
<path d="M178.936 118.302C179.286 117.612 179.768 117.162 180.369 116.967C180.808 116.823 181.229 116.847 181.546 116.91C181.679 116.355 181.963 115.934 182.392 115.656C183.251 115.098 184.431 115.326 184.933 115.462C185.93 114.712 186.768 114.445 187.489 114.641C188.492 114.915 188.902 116.018 189.146 116.679L189.207 116.841C189.347 117.207 189.479 117.583 189.608 117.947C189.715 118.25 189.82 118.548 189.928 118.84C190.519 120.421 191.568 122.69 193.05 125.579C195.975 131.284 199.568 136.69 203.73 141.645C203.884 141.829 203.859 142.105 203.672 142.258C203.485 142.412 203.207 142.388 203.052 142.203C198.848 137.196 195.219 131.736 192.265 125.975C190.768 123.055 189.704 120.757 189.103 119.142C188.992 118.847 188.886 118.542 188.778 118.235C188.652 117.875 188.521 117.505 188.386 117.149L188.322 116.979C188.112 116.413 187.825 115.637 187.256 115.481C186.844 115.368 186.254 115.584 185.547 116.1L187.683 122.216C187.763 122.443 187.641 122.691 187.409 122.771C187.379 122.781 187.349 122.787 187.321 122.791C187.118 122.817 186.918 122.699 186.848 122.502L184.682 116.298C184.229 116.178 183.389 116.052 182.874 116.387C182.568 116.586 182.399 116.931 182.353 117.437L184.055 123.257C184.122 123.487 183.989 123.731 183.753 123.798C183.73 123.805 183.708 123.808 183.686 123.811C183.474 123.838 183.269 123.71 183.209 123.5L181.542 117.802C181.157 117.671 180.304 117.549 179.723 118.692C179.445 119.244 179.347 119.886 179.441 120.555C179.466 120.732 182.079 138.344 193.03 150.288C193.099 150.363 200.083 157.793 202.703 159.302C202.914 159.423 202.984 159.69 202.861 159.897C202.79 160.018 202.666 160.093 202.535 160.11C202.443 160.122 202.346 160.105 202.257 160.055C199.524 158.483 192.672 151.193 192.379 150.878C188.137 146.252 184.63 140.289 181.956 133.157C179.431 126.423 178.65 121.247 178.568 120.677C178.447 119.832 178.576 119.011 178.934 118.3L178.936 118.302Z" fill="black"/>
<path d="M243.341 116.296C238.745 112.925 225.555 113.45 224.076 113.525C222.597 113.45 211.098 112.759 206.502 116.127C202.736 118.89 200.605 119.83 199.932 133.689L198.246 166.291C197.973 171.562 201.386 176.381 206.51 177.764C206.664 177.804 206.818 177.847 206.977 177.884L208.949 193.832C208.949 193.832 204.275 194.47 203.383 196.104C203.383 196.104 202.741 197.241 203.383 198.377L221.369 199.015L222.506 178.792L223.949 178.804H224.076H224.202L225.646 178.792L226.783 199.015L244.769 198.377C245.411 197.241 244.769 196.104 244.769 196.104C243.877 194.473 239.203 193.832 239.203 193.832L241.174 177.884C241.323 177.847 241.468 177.809 241.612 177.769C246.715 176.361 250.143 171.6 249.991 166.336L249.064 134.021C248.659 120.778 247.11 119.058 243.343 116.296H243.341Z" fill="#7575D1"/>
<path d="M251.769 183.223C252.032 183.223 252.285 183.178 252.52 183.085C252.949 182.917 253.258 182.64 253.47 182.371C253.842 182.716 254.325 182.964 254.891 183.105C256.081 183.399 257.315 183 258.033 182.087C258.45 181.554 258.607 180.968 258.495 180.345C258.228 178.844 256.433 177.678 256.251 177.565C255.374 176.956 254.959 176.298 254.984 175.551C255.05 173.678 257.899 171.589 258.991 170.941C259.001 170.936 259.009 170.931 259.019 170.923C267.373 165.222 265.907 156.235 265.892 156.144C265.892 156.134 265.889 156.127 265.887 156.119C265.063 152.53 263.301 149.88 260.652 148.249C255.952 145.353 250.197 146.682 249.954 146.74C249.683 146.806 249.517 147.077 249.58 147.346C249.643 147.615 249.916 147.784 250.189 147.718C250.245 147.706 255.791 146.431 260.123 149.106C262.527 150.591 264.133 153.02 264.896 156.328C264.977 156.811 266.175 164.81 258.458 170.086C258.134 170.28 254.069 172.766 253.973 175.516C253.935 176.62 254.509 177.587 255.682 178.399C255.69 178.404 255.697 178.409 255.702 178.414C256.147 178.691 257.335 179.608 257.497 180.526C257.558 180.86 257.469 181.172 257.234 181.474C256.764 182.075 255.937 182.333 255.133 182.135C254.527 181.984 254.092 181.685 253.842 181.242C253.743 181.069 253.548 180.968 253.351 180.989C253.152 181.009 252.982 181.144 252.922 181.335C252.922 181.335 252.712 181.934 252.148 182.155C251.875 182.263 251.584 182.223 251.39 182.17C250.717 181.992 249.463 181.368 248.642 179.226C248.612 179.146 245.699 171.539 249.142 166.102C249.274 165.893 249.426 165.697 249.572 165.516C250.078 164.883 251.334 163.216 252.07 161.376C253.293 158.321 252.33 156.68 251.309 155.843C251.094 155.667 250.775 155.697 250.596 155.911C250.419 156.124 250.449 156.441 250.664 156.62C253.387 158.847 249.572 163.9 248.778 164.888C248.624 165.081 248.442 165.312 248.285 165.564C246.741 168.002 246.152 171.205 246.579 174.822C246.9 177.532 247.664 179.503 247.696 179.586C248.677 182.142 250.267 182.909 251.127 183.138C251.344 183.196 251.559 183.223 251.769 183.223Z" fill="black"/>
<path d="M225.396 121.52C219.023 121.359 215.097 118.506 212.926 116.137C210.572 113.573 209.735 111.07 209.703 110.964L210.663 110.652C210.671 110.677 211.482 113.086 213.702 115.491C216.664 118.702 220.608 120.391 225.421 120.514L225.396 121.52Z" fill="black"/>
<path d="M230.74 121.511C224.026 120.266 220.444 116.712 218.621 113.949C216.642 110.948 216.263 108.268 216.248 108.155L217.249 108.021C217.251 108.047 217.623 110.623 219.491 113.439C221.988 117.199 225.833 119.583 230.924 120.525L230.74 121.513V121.511Z" fill="black"/>
<path d="M237.522 120.543C232.787 120.543 228.841 118.148 226.091 113.59C223.975 110.083 223.318 106.584 223.29 106.436L224.286 106.255C224.294 106.29 224.943 109.744 226.973 113.095C229.65 117.514 233.346 119.681 237.952 119.528L237.984 120.533C237.83 120.538 237.674 120.541 237.522 120.541V120.543Z" fill="black"/>
<path d="M217.129 146.631C219.362 146.631 221.171 143.327 221.171 139.251C221.171 135.175 219.362 131.87 217.129 131.87C214.897 131.87 213.087 135.175 213.087 139.251C213.087 143.327 214.897 146.631 217.129 146.631Z" fill="white"/>
<path d="M217.517 141.623C217.082 141.623 216.73 141.274 216.73 140.841C216.73 140.409 217.082 140.06 217.517 140.06H219.241C219.256 139.793 219.268 139.524 219.268 139.248C219.268 138.717 219.238 138.202 219.18 137.704H213.179C213.121 138.202 213.09 138.717 213.09 139.248C213.09 142.727 214.407 145.64 216.179 146.422C217.529 145.826 218.614 143.994 219.054 141.621H217.517V141.623Z" fill="black"/>
<path d="M232.585 146.631C234.817 146.631 236.627 143.327 236.627 139.251C236.627 135.175 234.817 131.87 232.585 131.87C230.353 131.87 228.543 135.175 228.543 139.251C228.543 143.327 230.353 146.631 232.585 146.631Z" fill="white"/>
<path d="M232.974 141.623C232.539 141.623 232.188 141.274 232.188 140.841C232.188 140.409 232.539 140.06 232.974 140.06H234.698C234.713 139.793 234.726 139.524 234.726 139.248C234.726 138.717 234.696 138.202 234.637 137.704H228.636C228.578 138.202 228.548 138.717 228.548 139.248C228.548 142.727 229.865 145.64 231.637 146.422C232.987 145.826 234.071 143.994 234.511 141.621H232.974V141.623Z" fill="black"/>
<path d="M213.641 131.958L212.916 131.259C213.042 131.128 216.07 128.061 218.353 129.891L217.718 130.676C216.151 129.421 213.664 131.933 213.641 131.958Z" fill="black"/>
<path d="M235.808 131.96C235.783 131.935 233.298 129.423 231.731 130.678L231.096 129.893C233.379 128.066 236.407 131.13 236.536 131.261L235.811 131.96H235.808Z" fill="black"/>
<path d="M212.579 146.13C211.004 145.456 210.236 143.081 210.203 142.98L211.166 142.676C211.348 143.241 212.026 144.797 212.979 145.205L212.579 146.127V146.13Z" fill="black"/>
<path d="M211.821 147.174C210.274 146.51 210.165 145.542 210.158 145.434L210.914 145.374C210.916 145.399 211.005 146.002 212.122 146.483L211.821 147.176V147.174Z" fill="black"/>
<path d="M224.304 150.246C224.192 150.188 221.599 148.815 221.065 146.9C220.866 146.186 220.967 145.495 221.366 144.841C221.902 143.964 222.903 143.547 223.854 143.805C224.839 144.072 225.846 144.896 226.841 146.256L226.025 146.847C224.958 145.389 224.111 144.917 223.591 144.773C223.078 144.635 222.531 144.871 222.231 145.361C221.978 145.774 221.917 146.186 222.039 146.628C222.453 148.124 224.751 149.343 224.774 149.353L224.304 150.243V150.246Z" fill="black"/>
<path d="M235.624 147.608C231.928 146.628 229.64 147.573 229.617 147.583L229.213 146.66C229.317 146.615 231.817 145.559 235.881 146.635L235.621 147.608H235.624Z" fill="black"/>
<path d="M220.168 147.608C216.47 146.628 214.185 147.573 214.162 147.583L213.757 146.66C213.861 146.615 216.361 145.559 220.428 146.635L220.168 147.608Z" fill="black"/>
<path d="M227.894 157.592C224.122 157.592 221.306 156.315 221.185 156.26L221.609 155.347C221.637 155.36 224.511 156.657 228.182 156.584C233.071 156.494 237.027 154.166 239.941 149.661L240.791 150.204C236.908 156.205 231.779 157.532 228.159 157.59C228.07 157.59 227.982 157.59 227.894 157.59V157.592Z" fill="black"/>
<path d="M233.047 159.429C232.491 159.429 232.107 159.366 232.059 159.358L232.228 158.368C232.259 158.373 235.275 158.845 236.571 156.819L237.426 157.36C236.288 159.137 234.261 159.429 233.05 159.429H233.047Z" fill="black"/>
<path d="M212.521 148.687H209.756C209.063 148.687 208.502 149.245 208.502 149.933C208.502 150.622 209.063 151.18 209.756 151.18H212.521C213.214 151.18 213.775 150.622 213.775 149.933C213.775 149.245 213.214 148.687 212.521 148.687Z" fill="#A8E6CF"/>
<path d="M240.646 148.687H237.881C237.188 148.687 236.627 149.245 236.627 149.933C236.627 150.622 237.188 151.18 237.881 151.18H240.646C241.339 151.18 241.9 150.622 241.9 149.933C241.9 149.245 241.339 148.687 240.646 148.687Z" fill="#A8E6CF"/>
<path d="M222.087 179.273H222.084C216.156 179.233 207.536 178.441 207.45 178.434C207.172 178.409 206.968 178.162 206.993 177.886C207.018 177.609 207.263 177.406 207.544 177.431C207.63 177.438 216.207 178.228 222.092 178.265C222.37 178.265 222.595 178.494 222.595 178.771C222.595 179.047 222.367 179.271 222.089 179.271L222.087 179.273Z" fill="black"/>
<path d="M227.448 179.284C226.579 179.284 226.063 179.273 226.043 179.271C225.765 179.263 225.542 179.035 225.55 178.756C225.558 178.482 225.783 178.265 226.056 178.265C226.061 178.265 226.063 178.265 226.068 178.265C226.147 178.265 233.96 178.436 240.651 177.413C240.924 177.371 241.185 177.559 241.228 177.833C241.271 178.107 241.081 178.363 240.806 178.406C235.732 179.18 230.032 179.281 227.448 179.281V179.284Z" fill="black"/>
<path d="M137.449 150.362C136.678 149.073 136.071 147.626 135.613 146.302C134.902 144.248 134.457 140.623 134.373 138.454C134.262 135.529 133.726 133.722 133.068 131.031C130.645 121.114 121.824 113.998 111.566 113.835C111.283 113.83 111.035 113.832 110.828 113.835C110.332 113.845 109.841 113.845 109.345 113.835C109.138 113.83 108.89 113.83 108.607 113.835C98.349 114.001 89.5283 121.114 87.1049 131.031C86.4472 133.722 85.9109 135.529 85.7996 138.454C85.7187 140.623 85.2709 144.248 84.5601 146.302C84.1023 147.626 83.4951 149.073 82.7236 150.362C82.7236 150.362 71.5807 170.523 79.9385 179.393C79.9385 179.393 83.7076 184.439 91.2408 185.016H91.2206C91.2206 185.016 91.2813 188.373 91.0966 189.831C91.041 190.271 91.003 190.714 91.0005 191.157C90.9929 192.713 91.1751 195.766 92.6018 196.944C92.6018 196.944 94.4104 199.123 100.793 198.743C100.793 198.743 107.079 198.602 107.554 194.291C107.554 194.291 107.704 192.509 107.268 190.779C106.919 189.385 106.707 187.958 106.712 186.521C106.712 186.256 106.717 185.98 106.722 185.7C107.64 185.715 108.488 185.72 109.224 185.71C109.796 185.703 110.37 185.703 110.944 185.71C111.635 185.72 112.429 185.715 113.284 185.703C113.289 185.982 113.294 186.256 113.294 186.518C113.299 187.955 113.087 189.383 112.737 190.777C112.302 192.506 112.452 194.288 112.452 194.288C112.927 198.6 119.213 198.741 119.213 198.741C125.593 199.121 127.404 196.941 127.404 196.941C128.831 195.763 129.01 192.71 129.005 191.155C129.005 190.709 128.965 190.269 128.909 189.828C128.732 188.419 128.783 185.24 128.785 185.023C136.415 184.502 140.229 179.39 140.229 179.388C148.587 170.518 137.444 150.356 137.444 150.356L137.449 150.362Z" fill="#80CFEE"/>
<path d="M103.611 186.325C98.5717 186.325 91.9087 185.595 91.5748 185.56C91.2966 185.53 91.0967 185.281 91.1271 185.004C91.1574 184.727 91.4079 184.525 91.6861 184.558C91.7822 184.568 101.334 185.615 106.163 185.233C106.444 185.213 106.684 185.416 106.707 185.696C106.73 185.973 106.522 186.214 106.242 186.237C105.457 186.3 104.562 186.325 103.608 186.325H103.611Z" fill="black"/>
<path d="M115.396 186.221C114.359 186.221 113.714 186.21 113.691 186.21C113.413 186.205 113.188 185.976 113.193 185.7C113.198 185.423 113.428 185.209 113.706 185.204C113.795 185.204 122.654 185.337 128.178 184.595C128.454 184.557 128.71 184.751 128.748 185.025C128.785 185.299 128.591 185.554 128.315 185.591C124.197 186.145 118.277 186.221 115.396 186.221Z" fill="black"/>
<path d="M105.164 121.208C104.559 121.208 103.955 121.15 103.358 121.037C101.321 120.644 99.8136 119.662 98.8802 118.122C96.8565 114.782 98.2705 110.025 98.3312 109.823C98.4122 109.557 98.6955 109.408 98.9611 109.489C99.2293 109.569 99.3785 109.851 99.3001 110.115C99.2874 110.161 97.9569 114.651 99.7478 117.606C100.527 118.89 101.807 119.713 103.547 120.047C105.546 120.433 107.643 120.088 109.451 119.073C110.112 118.703 110.79 118.233 111.394 117.641C109.735 116.866 108.738 115.884 108.682 115.829C105.634 112.793 105.407 110.12 105.753 108.416C106.095 106.74 107.43 105.451 109.077 105.21C110.802 104.958 112.239 105.874 113.228 107.863C113.896 109.204 114.136 110.584 114.167 110.767C114.721 113.219 114.336 115.416 113.079 117.213C113.299 117.281 113.527 117.342 113.762 117.392C115.568 117.785 117.377 117.271 118.725 115.985C120.086 114.684 120.706 112.809 120.379 110.966L120.352 110.81C120.298 110.538 120.481 110.274 120.754 110.221C121.027 110.168 121.293 110.349 121.346 110.621L121.376 110.79C121.761 112.965 121.029 115.177 119.426 116.71C117.83 118.233 115.687 118.839 113.547 118.376C113.145 118.288 112.763 118.18 112.403 118.054C111.743 118.769 110.924 119.406 109.95 119.952C108.472 120.78 106.821 121.21 105.164 121.21V121.208ZM109.606 106.179C109.482 106.179 109.355 106.189 109.226 106.206C107.999 106.385 107.003 107.354 106.747 108.615C106.449 110.08 106.669 112.396 109.401 115.117C109.413 115.129 110.438 116.128 112.1 116.851C113.16 115.461 113.767 113.556 113.18 110.971C113.178 110.961 113.175 110.949 113.172 110.936C113.165 110.886 112.396 106.176 109.606 106.176V106.179Z" fill="black"/>
<path d="M121.262 146.359C119.396 145.073 118.854 142.357 118.849 142.329C118.796 142.057 118.533 141.876 118.257 141.929C117.981 141.982 117.802 142.244 117.855 142.518C117.868 142.584 118.027 143.384 118.465 144.358C110.896 147.842 103.565 145.153 101.711 144.355C102.149 143.381 102.305 142.581 102.318 142.518C102.371 142.246 102.189 141.982 101.916 141.929C101.643 141.879 101.377 142.055 101.324 142.329C101.319 142.357 100.775 145.073 98.9107 146.359C98.6805 146.518 98.6249 146.832 98.7817 147.059C98.8804 147.2 99.0372 147.275 99.1991 147.275C99.2977 147.275 99.3989 147.245 99.4875 147.185C100.251 146.659 100.821 145.954 101.243 145.254C102.44 145.788 105.9 147.137 110.319 147.137C112.942 147.137 115.905 146.659 118.933 145.254C119.355 145.956 119.924 146.659 120.688 147.185C120.777 147.245 120.875 147.275 120.977 147.275C121.136 147.275 121.295 147.2 121.394 147.059C121.553 146.83 121.495 146.518 121.265 146.359H121.262Z" fill="black"/>
<path d="M112.454 148.183C109.669 148.875 107.342 148.196 107.319 148.191C107.051 148.11 106.77 148.261 106.689 148.526C106.608 148.79 106.757 149.072 107.025 149.155C107.094 149.175 108.214 149.507 109.851 149.507C110.688 149.507 111.662 149.422 112.699 149.162C112.97 149.094 113.134 148.823 113.069 148.551C113 148.281 112.727 148.115 112.454 148.183Z" fill="black"/>
<path d="M94.2562 143.787C95.4367 143.787 96.3937 142.835 96.3937 141.66C96.3937 140.485 95.4367 139.533 94.2562 139.533C93.0757 139.533 92.1187 140.485 92.1187 141.66C92.1187 142.835 93.0757 143.787 94.2562 143.787Z" fill="#D6B6EF"/>
<path d="M125.859 143.787C127.039 143.787 127.996 142.835 127.996 141.66C127.996 140.485 127.039 139.533 125.859 139.533C124.678 139.533 123.721 140.485 123.721 141.66C123.721 142.835 124.678 143.787 125.859 143.787Z" fill="#D6B6EF"/>
<path d="M100.297 128.521C100.297 128.521 99.4318 137.459 101.645 139.805C101.645 139.805 101.832 140.067 102.23 140.328C103.522 141.182 105.263 140.749 106.11 139.458C106.353 139.088 106.588 138.624 106.785 138.046C106.983 137.467 107.089 136.898 107.145 136.304C107.329 134.376 107.314 128.788 106.001 126.905C106.001 126.905 103.163 126.973 100.297 128.519V128.521Z" fill="white"/>
<path d="M119.876 128.521C119.876 128.521 120.741 137.459 118.528 139.805C118.528 139.805 118.341 140.067 117.944 140.328C116.651 141.182 114.911 140.749 114.063 139.458C113.82 139.088 113.585 138.624 113.388 138.046C113.191 137.467 113.084 136.898 113.029 136.304C112.844 134.376 112.859 128.788 114.172 126.905C114.172 126.905 117.01 126.973 119.876 128.519V128.521Z" fill="white"/>
<path d="M101.405 126.519C101.337 126.519 101.271 126.506 101.205 126.476C100.95 126.365 100.831 126.071 100.942 125.816C100.97 125.751 101.653 124.208 103.252 124.138C103.449 124.12 104.699 124.047 105.546 124.991C105.731 125.197 105.713 125.517 105.506 125.701C105.298 125.887 104.977 125.869 104.792 125.66C104.246 125.051 103.355 125.137 103.345 125.139C103.333 125.139 103.317 125.139 103.307 125.142C102.344 125.177 101.891 126.171 101.873 126.214C101.79 126.403 101.602 126.516 101.408 126.516L101.405 126.519Z" fill="black"/>
<path d="M119.054 126.519C118.859 126.519 118.672 126.406 118.588 126.215C118.568 126.169 118.115 125.178 117.154 125.142C117.139 125.142 117.126 125.142 117.111 125.14C117.106 125.14 116.216 125.052 115.667 125.664C115.479 125.872 115.161 125.89 114.953 125.704C114.746 125.518 114.726 125.2 114.913 124.994C115.76 124.048 117.007 124.121 117.207 124.141C118.806 124.209 119.489 125.754 119.517 125.82C119.628 126.076 119.507 126.371 119.251 126.482C119.185 126.509 119.12 126.522 119.051 126.522L119.054 126.519Z" fill="black"/>
<path d="M108.005 126.501C103.001 125.756 98.5337 128.955 98.3465 129.091C98.1214 129.255 98.0733 129.569 98.2377 129.793C98.3364 129.929 98.4907 130 98.6475 130C98.7512 130 98.855 129.969 98.946 129.904C98.9612 129.894 99.4443 129.549 100.251 129.119C100.137 130.714 99.9149 135.142 100.717 137.941C101.941 137.43 103.067 136.297 103.975 134.739C103.896 134.593 103.818 134.445 103.745 134.286C103.044 132.786 102.907 131.369 103.444 131.12C103.838 130.938 104.486 131.439 105.078 132.315C105.589 130.866 105.938 129.224 106.072 127.47C106.072 127.45 106.072 127.427 106.077 127.407C106.661 127.382 107.258 127.407 107.86 127.495C108.139 127.538 108.394 127.347 108.435 127.072C108.475 126.798 108.285 126.541 108.01 126.501H108.005Z" fill="black"/>
<path d="M121.826 129.091C121.639 128.955 117.172 125.753 112.168 126.501C111.893 126.541 111.7 126.798 111.743 127.072C111.784 127.346 112.042 127.538 112.318 127.495C112.849 127.417 113.377 127.389 113.893 127.399C112.859 129.622 112.856 134.52 113.028 136.302C113.066 136.697 113.132 137.09 113.226 137.477C113.226 137.477 113.226 137.477 113.228 137.477C113.231 137.477 113.256 137.618 113.259 137.618C113.752 137.651 114.205 137.301 114.556 136.954C115.295 136.224 115.985 135.28 116.59 134.175C115.76 132.743 115.5 131.343 116.011 131.051C116.36 130.85 116.982 131.22 117.604 131.932C117.984 130.913 118.292 129.813 118.513 128.65C118.525 128.587 118.533 128.524 118.545 128.464C120.154 129.138 121.204 129.889 121.224 129.904C121.315 129.969 121.419 129.999 121.523 129.999C121.68 129.999 121.834 129.929 121.933 129.793C122.097 129.569 122.049 129.254 121.824 129.091H121.826Z" fill="black"/>
<path d="M83.9858 176.745C83.0598 175.049 81.3273 171.239 81.0242 169.929C80.6766 168.417 80.4819 166.225 81.547 164.369C81.6999 164.101 81.6082 163.759 81.344 163.605C81.077 163.451 80.7377 163.544 80.5848 163.81C79.339 165.982 79.5475 168.473 79.9424 170.181C80.2705 171.597 82.0336 175.491 83.0125 177.283C83.2155 177.655 83.2656 178.002 83.1655 178.338C83.0598 178.688 82.8095 178.957 82.4591 179.094C82.0753 179.245 81.6304 179.209 81.2717 178.996C80.9519 178.806 80.7238 178.607 80.721 178.604C80.721 178.604 80.7155 178.601 80.7127 178.598C80.7127 178.598 80.7099 178.593 80.7071 178.593C79.7283 177.787 79.0942 176.451 79.0887 176.437C78.958 176.157 78.6271 176.037 78.349 176.169C78.0709 176.3 77.9513 176.633 78.082 176.913C78.1098 176.975 78.7883 178.4 79.9035 179.371C79.973 179.556 80.1176 180.189 79.4502 181.275C77.9179 182.691 76.4024 181.356 76.2355 181.196C76.2355 181.196 76.2355 181.196 76.2327 181.196C75.3679 180.39 74.0692 178.156 74.0553 178.134C73.9023 177.868 73.5603 177.775 73.2961 177.932C73.0319 178.089 72.9401 178.431 73.0959 178.696C73.1487 178.786 74.3111 180.785 75.2677 181.804C75.0119 183.201 73.8411 183.251 73.7049 183.251C73.6771 183.251 73.6493 183.251 73.6242 183.257C72.676 183.385 71.7694 182.658 71.1798 182.028C70.6014 181.409 70.112 180.631 69.7199 179.721C68.0652 175.88 68.0569 172.84 68.0486 170.161V169.828C68.0152 161.662 72.2171 153.911 78.0375 151.403C80.4318 150.37 81.9252 150.927 81.9947 150.955C82.2783 151.07 82.6009 150.93 82.715 150.647C82.8317 150.361 82.6927 150.034 82.409 149.916C82.3312 149.883 80.4541 149.144 77.5981 150.375C70.5597 153.41 66.9056 162.463 66.9362 169.834V170.167C66.9446 172.955 66.9557 176.115 68.6993 180.169C69.1415 181.199 69.706 182.084 70.3706 182.798C71.3523 183.85 72.3923 184.396 73.4018 184.396C73.513 184.396 73.6242 184.39 73.7355 184.376C74.4613 184.371 75.721 183.965 76.2216 182.562C77.2477 183.139 78.8217 183.444 80.2733 182.047C80.3067 182.017 80.3345 181.98 80.3595 181.944C80.81 181.233 81.0019 180.628 81.0631 180.138C81.6388 180.365 82.2923 180.37 82.8707 180.144C83.5353 179.883 84.0331 179.346 84.2361 178.671C84.4252 178.041 84.3445 177.395 83.9942 176.754L83.9858 176.745Z" fill="black"/>
<path d="M194.515 150.204C194.515 150.204 191.362 132.594 180.97 120.965C180.97 120.965 175.845 114.156 171.149 115.859C171.149 115.859 168.348 116.662 170.438 123.281C170.438 123.281 162.751 110.516 156.961 113.116C156.961 113.116 152.433 114.467 155.463 125.895C155.224 125.011 153.207 118.343 147.089 119.405C147.089 119.405 143.867 120.335 143.915 126.508C143.925 127.696 143.912 128.884 143.864 130.072C143.68 134.681 142.493 143.668 142.062 146.027C142.062 146.027 138.023 166.939 144.999 174.07C144.999 174.07 148.044 178.104 153.996 181.171L156.008 192.978C156.154 193.83 155.166 194.42 154.452 194.686L151.462 195.643C150.139 195.909 148.001 196.63 147.139 197.668C146.862 198.002 147.101 198.504 147.535 198.504H189.201C189.635 198.504 189.872 197.999 189.597 197.668C188.735 196.63 186.597 195.909 185.274 195.643L182.284 194.686C181.573 194.42 180.585 193.83 180.728 192.978L183 179.646C186.539 178.579 188.745 176.926 190.436 175.125C190.784 174.753 191.132 174.384 191.488 174.02C192.705 172.787 197.76 167.525 194.51 150.204H194.515Z" fill="#FF7871"/>
<path d="M183.002 179.643C182.939 179.372 182.67 179.204 182.397 179.269C168.166 182.579 156.726 181.082 154.578 180.748C154.301 180.708 154.044 180.894 154.001 181.168C153.958 181.442 154.147 181.698 154.422 181.743C155.915 181.974 159.305 182.401 164.017 182.401C165.217 182.401 166.503 182.373 167.864 182.306V197.984C167.864 198.26 168.091 198.486 168.368 198.486C168.645 198.486 168.872 198.26 168.872 197.984V182.25C172.918 182.004 177.582 181.421 182.627 180.246C182.899 180.183 183.065 179.912 183.002 179.643Z" fill="black"/>
<path d="M156.018 140.199C156.018 140.199 154.561 148.4 156.744 151.143C156.744 151.143 157.884 153.13 160.256 152.326C160.256 152.326 163.198 151.612 162.535 144.688C162.535 144.688 162.242 141.309 162.033 140.697C162.033 140.697 159.898 139.33 156.021 140.202L156.018 140.199Z" fill="white"/>
<path d="M179.662 140.199C179.662 140.199 181.119 148.4 178.936 151.143C178.936 151.143 177.796 153.13 175.424 152.326C175.424 152.326 172.482 151.612 173.145 144.688C173.145 144.688 173.438 141.309 173.647 140.697C173.647 140.697 175.782 139.33 179.659 140.202L179.662 140.199Z" fill="white"/>
<path d="M161.562 138.333C161.365 138.333 161.179 138.218 161.098 138.029C160.654 136.997 159.053 136.824 159.038 136.824C157.626 136.638 156.474 137.529 156.464 137.537C156.245 137.708 155.93 137.67 155.756 137.454C155.585 137.236 155.622 136.919 155.839 136.748C155.9 136.701 157.344 135.588 159.152 135.826C159.225 135.834 161.345 136.053 162.023 137.635C162.131 137.891 162.013 138.185 161.758 138.293C161.693 138.321 161.627 138.333 161.559 138.333H161.562Z" fill="black"/>
<path d="M173.416 137.641C173.279 137.641 173.143 137.586 173.045 137.478C172.856 137.275 172.871 136.956 173.075 136.77C173.156 136.694 175.079 134.944 176.973 135.044C177.711 135.082 178.344 135.391 178.848 135.958C179.032 136.167 179.012 136.483 178.805 136.667C178.596 136.85 178.278 136.83 178.094 136.624C177.772 136.26 177.389 136.071 176.925 136.049C175.463 135.981 173.776 137.496 173.758 137.511C173.663 137.599 173.539 137.644 173.418 137.644L173.416 137.641Z" fill="black"/>
<path d="M169.097 152.94C168.918 152.94 168.746 152.845 168.653 152.679C168.52 152.435 168.608 152.132 168.852 151.998C170.199 151.265 170.554 150.632 170.617 150.233C170.683 149.816 170.446 149.517 170.39 149.454C169.193 148.472 167.042 149.703 167.02 149.715C166.778 149.856 166.47 149.773 166.329 149.534C166.188 149.296 166.268 148.987 166.508 148.849C166.621 148.781 169.326 147.231 171.063 148.708C171.073 148.716 171.083 148.726 171.091 148.733C171.338 148.977 171.724 149.592 171.615 150.361C171.487 151.278 170.718 152.126 169.334 152.88C169.258 152.923 169.175 152.943 169.092 152.943L169.097 152.94Z" fill="black"/>
<path d="M163.876 141.293C159.553 137.611 154.107 140.165 153.878 140.278C153.628 140.399 153.522 140.698 153.643 140.949C153.764 141.2 154.067 141.303 154.316 141.182C154.349 141.167 156.517 140.155 159.081 140.366C158.907 141.039 158.746 141.85 158.64 142.787L160.253 144.214C160.48 144.415 160.321 144.759 160.001 144.759H158.524C158.514 146.208 158.66 147.851 159.084 149.652C159.084 149.652 159.454 150.915 160.21 152.337C160.226 152.332 160.238 152.329 160.253 152.324C160.253 152.324 163.195 151.611 162.532 144.686C162.532 144.686 162.341 142.478 162.157 141.308C162.517 141.516 162.873 141.762 163.218 142.056C163.314 142.137 163.43 142.177 163.546 142.177C163.687 142.177 163.831 142.117 163.929 142.001C164.11 141.79 164.085 141.474 163.873 141.293H163.876Z" fill="black"/>
<path d="M181.861 140.298C181.629 140.187 176.128 137.61 171.807 141.292C171.595 141.473 171.57 141.79 171.752 142.001C171.853 142.116 171.994 142.176 172.135 142.176C172.251 142.176 172.367 142.136 172.463 142.056C173.736 140.973 175.147 140.516 176.471 140.386C176.365 141.051 176.262 141.82 176.181 142.656L177.943 144.211C178.17 144.412 178.011 144.756 177.691 144.756H176.045C176.02 145.535 176.02 146.343 176.065 147.16C176.141 148.561 176.509 149.943 177.194 151.168C177.386 151.513 177.61 151.854 177.862 152.161C178.586 151.754 178.939 151.138 178.939 151.138C180.817 148.777 180 142.38 179.736 140.639C180.746 140.883 181.407 141.189 181.425 141.199C181.674 141.317 181.977 141.215 182.098 140.966C182.219 140.715 182.113 140.416 181.863 140.295L181.861 140.298Z" fill="black"/>
<path d="M151.41 152.937C152.805 152.937 153.936 152.504 153.936 151.97C153.936 151.436 152.805 151.003 151.41 151.003C150.015 151.003 148.884 151.436 148.884 151.97C148.884 152.504 150.015 152.937 151.41 152.937Z" fill="#FFDC4C"/>
<path d="M184.672 152.937C186.067 152.937 187.198 152.504 187.198 151.97C187.198 151.436 186.067 151.003 184.672 151.003C183.276 151.003 182.146 151.436 182.146 151.97C182.146 152.504 183.276 152.937 184.672 152.937Z" fill="#FFDC4C"/>
<path d="M179.302 153.662C179.088 153.486 178.77 153.514 178.591 153.727C176.302 156.478 172.609 157.598 172.561 157.613C166.768 159.464 162.19 157.45 160.594 156.573C160.869 156.008 160.959 155.36 160.823 154.727C160.672 154.031 160.281 153.469 159.691 153.099C159.457 152.954 159.144 153.024 158.996 153.258C158.847 153.494 158.92 153.803 159.154 153.951C159.52 154.179 159.742 154.501 159.838 154.94C160.014 155.757 159.603 156.611 158.837 157.018C157.922 157.505 157.15 157.038 157.112 157.013C156.881 156.864 156.57 156.927 156.417 157.158C156.263 157.389 156.328 157.701 156.563 157.854C156.598 157.877 157.17 158.243 157.985 158.243C158.381 158.243 158.834 158.158 159.311 157.902C159.452 157.826 159.586 157.741 159.709 157.645C159.878 161.152 161.199 163.309 161.199 163.309C161.257 163.415 161.315 163.515 161.375 163.616C164.28 168.408 171.121 168.627 174.613 164.241C176.952 161.305 177.207 157.723 177.21 156.357C177.961 155.809 178.707 155.151 179.362 154.368C179.541 154.154 179.511 153.838 179.297 153.659L179.302 153.662Z" fill="black"/>
<path d="M162.419 163.071C162.419 163.071 165.124 160.848 166.879 163.355C166.879 163.355 166.689 161.964 169.014 162.162C169.014 162.162 171.386 162.315 171.338 165.859C171.338 165.859 168.111 167.562 164.743 165.859C164.743 165.859 162.893 164.915 162.419 163.069V163.071Z" fill="white"/>
<path d="M152.639 170.165C152.266 169.217 151.331 168.631 150.378 168.686C150.387 167.923 150.213 166.683 149.118 166.034C148.911 165.911 148.433 165.683 147.845 165.772C147.691 165.35 147.366 164.774 146.688 164.489C146.633 164.464 145.351 163.871 143.915 165.063C143.906 165.07 143.897 165.077 143.891 165.086L141.305 167.585C140.962 167.916 140.275 168.478 139.926 168.631C138.886 169.087 138.027 168.852 137.375 167.934C137.23 167.731 136.956 167.688 136.76 167.838C136.565 167.989 136.523 168.273 136.668 168.476C137.566 169.741 138.844 170.094 140.266 169.472C140.784 169.246 141.592 168.554 141.902 168.253L144.475 165.765C145.465 164.951 146.288 165.302 146.339 165.325C146.736 165.491 146.929 165.838 147.021 166.088C146.42 166.43 145.182 167.257 144.729 168.485C144.642 168.72 144.756 168.984 144.982 169.073C145.035 169.094 145.087 169.103 145.14 169.103C145.316 169.103 145.482 168.991 145.55 168.809C146.005 167.578 147.627 166.783 147.711 166.742C148.15 166.553 148.538 166.733 148.683 166.82C149.566 167.342 149.524 168.583 149.48 169.012C148.734 169.668 147.283 171.01 147.113 171.677C147.052 171.917 147.188 172.156 147.419 172.224C147.458 172.236 147.498 172.243 147.537 172.243C147.726 172.243 147.904 172.11 147.963 171.914C148.057 171.602 149.138 170.509 150.112 169.654C150.125 169.65 150.139 169.645 150.152 169.641C150.824 169.445 151.559 169.825 151.827 170.506C152.38 171.912 151.12 173.498 151.107 173.512C151.098 173.521 151.091 173.53 151.085 173.541C148.611 177.139 145.774 179.55 142.659 180.705C138.563 182.225 133.85 180.753 131.448 177.203C129.747 174.687 129.369 171.744 130.295 168.2C132.963 157.986 141.05 153.812 141.131 153.771C141.349 153.661 141.441 153.388 141.335 153.162C141.23 152.937 140.969 152.841 140.749 152.951C140.664 152.994 132.225 157.332 129.448 167.961C128.449 171.78 128.871 174.974 130.73 177.725C132.662 180.58 135.957 182.209 139.34 182.209C140.554 182.209 141.779 181.999 142.956 181.562C146.24 180.343 149.212 177.827 151.789 174.084C151.952 173.878 153.368 172.012 152.639 170.16V170.165Z" fill="black"/>
<path d="M24.4968 24.1745C20.69 25.9755 12.3542 33.1016 9.77183 36.6805C5.22719 42.9827 6.156 52.6181 10.3605 59.2007C14.565 65.7833 21.3414 69.7873 28.2042 72.5105C41.6131 77.8327 56.0215 79.1047 70.2389 80.1714C95.4503 82.0621 111.287 84.369 136.554 83.5277C146.742 83.1895 149.302 95.5103 151.141 95.5247C152.831 95.5363 153.403 84.6581 166.556 83.7677C195.205 81.825 213.98 82.5101 242.491 78.8763C250.62 77.8413 258.887 76.5722 266.255 72.6377C273.62 68.7003 280.056 61.6233 281.632 52.7511C283.714 41.0227 276.708 29.141 267.44 22.9776C258.171 16.8142 247.077 15.1751 236.319 13.9377C206.955 10.5612 177.403 9.20821 147.89 9.8818C133.296 10.2143 118.788 11.7493 104.22 12.3593C91.2091 12.9028 78.538 12.2668 65.4221 14.6489C49.8442 17.4791 39.0098 17.3085 24.4968 24.1773L24.4968 24.1745Z" stroke="#0C0C0C" stroke-miterlimit="10"/>
<ellipse cx="2.29803" cy="1.64736" rx="2.29803" ry="1.64736" transform="matrix(0.959123 -0.283793 0.284522 0.958432 5.33838 42.6406)" stroke="white" stroke-width="5" stroke-linecap="round" stroke-linejoin="round"/>
<path d="M10.3611 43.2007L9.12135 35.0862M12.1291 32.4166L8.39916 30.359L9.12135 35.0862M11.9571 35.5769L9.12135 35.0862" stroke="white" stroke-width="5" stroke-linecap="round" stroke-linejoin="round"/>
<ellipse cx="2.29803" cy="1.64736" rx="2.29803" ry="1.64736" transform="matrix(0.959123 -0.283793 0.284522 0.958432 5.33838 42.6406)" fill="black" stroke="black" stroke-width="2" stroke-linejoin="round"/>
<path d="M10.3611 43.2007L9.12135 35.0862M12.1291 32.4166L8.39916 30.359L9.12135 35.0862M11.9571 35.5769L9.12135 35.0862" stroke="black" stroke-width="2" stroke-linecap="round" stroke-linejoin="round"/>
<ellipse cx="2.29875" cy="1.64685" rx="2.29875" ry="1.64685" transform="matrix(0.984487 0.175458 -0.176018 0.984387 154.135 12.7363)" stroke="white" stroke-width="5" stroke-linecap="round" stroke-linejoin="round"/>
<path d="M158.373 15.486L160.908 7.67749M164.795 6.63706L162.385 3.12864L160.908 7.67749M163.222 9.38512L160.908 7.67749" stroke="white" stroke-width="5" stroke-linecap="round" stroke-linejoin="round"/>
<ellipse cx="2.29875" cy="1.64685" rx="2.29875" ry="1.64685" transform="matrix(0.984487 0.175458 -0.176018 0.984387 154.135 12.7363)" fill="black" stroke="black" stroke-width="2" stroke-linejoin="round"/>
<path d="M158.373 15.486L160.908 7.67749M164.795 6.63706L162.385 3.12864L160.908 7.67749M163.222 9.38512L160.908 7.67749" stroke="black" stroke-width="2" stroke-linecap="round" stroke-linejoin="round"/>
<ellipse cx="2.29871" cy="1.64688" rx="2.29871" ry="1.64688" transform="matrix(1.00002 -0.00966574 0.00969629 0.999887 256.484 71.1133)" fill="black" stroke="white" stroke-width="5" stroke-linejoin="round"/>
<ellipse cx="2.29871" cy="1.64688" rx="2.29871" ry="1.64688" transform="matrix(1.00002 -0.00966574 0.00969629 0.999887 265.812 73.0986)" fill="black" stroke="white" stroke-width="5" stroke-linejoin="round"/>
<path d="M261.03 73.093L262.32 64.9484L262.852 61.8661L271.923 65.4858L270.288 74.9486" stroke="white" stroke-width="5" stroke-linecap="round" stroke-linejoin="round"/>
<ellipse cx="2.29871" cy="1.64688" rx="2.29871" ry="1.64688" transform="matrix(1.00002 -0.00966574 0.00969629 0.999887 256.47 71.1562)" fill="black" stroke="black" stroke-width="2" stroke-linejoin="round"/>
<ellipse cx="2.29871" cy="1.64688" rx="2.29871" ry="1.64688" transform="matrix(1.00002 -0.00966574 0.00969629 0.999887 265.798 73.1416)" fill="black" stroke="black" stroke-width="2" stroke-linejoin="round"/>
<path d="M261.016 73.137L262.306 64.9924L262.838 61.9101L271.91 65.5298L270.274 74.9926" stroke="black" stroke-width="2" stroke-linecap="round" stroke-linejoin="round"/>
<path d="M60.5146 52.4541H47.6084V51.0479H53.1396V47.7822H54.8584V51.0479H60.5146V52.4541ZM54.9053 41.9697C54.9053 42.6781 55.124 43.3656 55.5615 44.0322C56.0042 44.6989 56.6136 45.2718 57.3896 45.751C58.1709 46.2249 59.0459 46.5374 60.0146 46.6885L59.2646 48.126C58.0719 47.902 57.0094 47.4671 56.0771 46.8213C55.15 46.1702 54.4521 45.3838 53.9834 44.4619C53.6709 45.0713 53.2542 45.6286 52.7334 46.1338C52.2125 46.6338 51.611 47.0557 50.9287 47.3994C50.2464 47.738 49.5146 47.9801 48.7334 48.126L47.9834 46.6885C48.9417 46.5374 49.8063 46.2249 50.5771 45.751C51.3532 45.2718 51.9599 44.6989 52.3974 44.0322C52.8349 43.3604 53.0563 42.6729 53.0615 41.9697V40.9385H54.9053V41.9697ZM67.3784 40.2197C68.4513 40.2197 69.3654 40.3135 70.1206 40.501C70.881 40.6885 71.4617 40.9645 71.8628 41.3291C72.2638 41.6885 72.4669 42.126 72.4721 42.6416C72.4669 43.4229 72.0216 44.0218 71.1362 44.4385C70.2508 44.8551 68.9982 45.0687 67.3784 45.0791C65.7534 45.0687 64.4982 44.8551 63.6128 44.4385C62.7273 44.0218 62.2846 43.4229 62.2846 42.6416C62.2846 42.126 62.4851 41.6885 62.8862 41.3291C63.2872 40.9645 63.868 40.6885 64.6284 40.501C65.3888 40.3135 66.3055 40.2197 67.3784 40.2197ZM67.3784 41.5166C66.3003 41.5166 65.4825 41.613 64.9253 41.8057C64.3732 41.9932 64.1023 42.2718 64.1128 42.6416C64.1075 43.027 64.3758 43.3135 64.9174 43.501C65.4643 43.6885 66.2846 43.7874 67.3784 43.7979C68.4825 43.7874 69.3081 43.6885 69.8549 43.501C70.4018 43.3135 70.6753 43.027 70.6753 42.6416C70.6753 42.2718 70.3966 41.9932 69.8393 41.8057C69.2872 41.613 68.4669 41.5166 67.3784 41.5166ZM73.8315 47.1729H68.2378V48.251H72.2221V51.7041H64.1909V52.751H72.6128V54.0791H62.4878V50.4697H70.519V49.5322H62.4721V48.251H66.5034V47.1729H60.9565V45.8135H73.8315V47.1729ZM87.2109 52.501H74.3046V51.0479H87.2109V52.501ZM86.0859 42.7822H84.0234V47.2822H86.039V48.6572H75.414V47.2822H77.3984V42.7822H75.3671V41.3916H86.0859V42.7822ZM82.3046 47.2822V42.7822H79.1328V47.2822H82.3046ZM93.2465 45.501H89.9496V47.2666C90.8194 47.2562 91.5772 47.2275 92.2231 47.1807C92.8741 47.1286 93.5382 47.0374 94.2153 46.9072L94.3871 48.2822C93.6059 48.4333 92.835 48.5348 92.0746 48.5869C91.3142 48.6338 90.3559 48.6572 89.1996 48.6572H88.2465V44.2354H91.559V42.5322H88.2309V41.1729H93.2465V45.501ZM99.7309 50.7041H98.0746V40.0947H99.7309V50.7041ZM96.8715 50.3447H95.2309V45.1885H93.7778V43.751H95.2309V40.3447H96.8715V50.3447ZM100.122 53.9229H90.2778V49.6416H92.0121V52.5166H100.122V53.9229ZM113.907 52.4385H101.001V51.001H113.907V52.4385ZM108.345 42.9697C108.345 43.6572 108.561 44.3109 108.993 44.9307C109.425 45.5452 110.024 46.0687 110.79 46.501C111.561 46.9333 112.428 47.2249 113.392 47.376L112.704 48.751C111.506 48.5374 110.444 48.1286 109.517 47.5244C108.595 46.915 107.905 46.1702 107.446 45.29C106.993 46.1807 106.308 46.9385 105.392 47.5635C104.475 48.1885 103.428 48.6104 102.251 48.8291L101.563 47.4229C102.501 47.277 103.347 46.9854 104.102 46.5479C104.858 46.1051 105.449 45.5713 105.876 44.9463C106.303 44.3161 106.517 43.6572 106.517 42.9697V42.751H102.079V41.3604H112.798V42.751H108.345V42.9697ZM126.536 54.2041H124.865V40.0791H126.536V54.2041ZM123.63 53.5166H121.974V46.7979H120.63C120.578 47.7093 120.417 48.501 120.146 49.1729C119.88 49.8395 119.523 50.3525 119.076 50.7119C118.628 51.0661 118.115 51.2406 117.536 51.2354C116.927 51.2406 116.391 51.04 115.927 50.6338C115.469 50.2223 115.115 49.6364 114.865 48.876C114.615 48.1104 114.49 47.2145 114.49 46.1885C114.49 45.1624 114.615 44.2718 114.865 43.5166C115.115 42.7562 115.469 42.1729 115.927 41.7666C116.391 41.3604 116.927 41.1572 117.536 41.1572C118.104 41.1572 118.607 41.3265 119.044 41.665C119.487 42.0036 119.841 42.4906 120.107 43.126C120.378 43.7614 120.547 44.5166 120.615 45.3916H121.974V40.3291H123.63V53.5166ZM117.536 42.7979C117.24 42.7926 116.982 42.9202 116.763 43.1807C116.544 43.4411 116.378 43.8265 116.263 44.3369C116.148 44.8473 116.094 45.4645 116.099 46.1885C116.094 46.9124 116.148 47.5296 116.263 48.04C116.378 48.5505 116.544 48.9359 116.763 49.1963C116.982 49.4567 117.24 49.5843 117.536 49.5791C118.01 49.5895 118.378 49.3005 118.638 48.7119C118.904 48.1234 119.036 47.2822 119.036 46.1885C119.036 45.0947 118.904 44.2536 118.638 43.665C118.378 43.0765 118.01 42.7874 117.536 42.7979ZM137.436 40.876C138.441 40.876 139.342 41.0348 140.139 41.3525C140.941 41.6702 141.569 42.1182 142.022 42.6963C142.475 43.2744 142.701 43.9385 142.701 44.6885C142.701 45.3812 142.514 45.9984 142.139 46.54C141.769 47.0817 141.251 47.5192 140.584 47.8525C139.923 48.1807 139.16 48.389 138.295 48.4775V51.0635H143.92V52.4854H131.014V51.0635H136.576V48.4775C135.717 48.389 134.957 48.1807 134.295 47.8525C133.634 47.5192 133.118 47.0817 132.748 46.54C132.379 45.9984 132.196 45.3812 132.201 44.6885C132.196 43.9385 132.418 43.2744 132.866 42.6963C133.319 42.1182 133.944 41.6702 134.741 41.3525C135.537 41.0348 136.436 40.876 137.436 40.876ZM137.436 42.2822C136.748 42.277 136.136 42.3734 135.6 42.5713C135.063 42.764 134.644 43.0452 134.342 43.415C134.045 43.7796 133.899 44.2041 133.905 44.6885C133.899 45.1885 134.045 45.6234 134.342 45.9932C134.644 46.3577 135.063 46.639 135.6 46.8369C136.136 47.0296 136.748 47.126 137.436 47.126C138.134 47.126 138.751 47.0296 139.287 46.8369C139.829 46.639 140.248 46.3577 140.545 45.9932C140.847 45.6234 140.998 45.1885 140.998 44.6885C140.998 44.1989 140.847 43.7718 140.545 43.4072C140.243 43.0426 139.821 42.764 139.28 42.5713C138.743 42.3734 138.129 42.277 137.436 42.2822ZM156.128 50.4072H154.378V40.0947H156.128V50.4072ZM156.518 53.9229H146.784V49.4229H148.534V52.5166H156.518V53.9229ZM149.628 42.251C149.628 42.9176 149.755 43.5531 150.011 44.1572C150.271 44.7614 150.656 45.2979 151.167 45.7666C151.677 46.2301 152.294 46.5843 153.018 46.8291L152.128 48.2041C151.336 47.9281 150.654 47.5218 150.081 46.9854C149.508 46.4489 149.063 45.8135 148.745 45.0791C148.422 45.8708 147.966 46.5583 147.378 47.1416C146.794 47.7249 146.097 48.1624 145.284 48.4541L144.378 47.0791C145.123 46.8187 145.753 46.4411 146.268 45.9463C146.789 45.4463 147.18 44.8786 147.44 44.2432C147.701 43.6077 147.831 42.9437 147.831 42.251V40.876H149.628V42.251ZM169.538 49.5166H167.804V45.3291H165.117V43.9072H167.804V40.0947H169.538V49.5166ZM165.023 41.1885C165.018 43.0531 164.478 44.6234 163.406 45.8994C162.338 47.1755 160.752 48.1416 158.648 48.7979L157.898 47.4385C159.502 46.9593 160.739 46.3083 161.609 45.4854C162.484 44.6572 162.997 43.6885 163.148 42.5791H158.632V41.1885H165.023ZM165.695 48.9541C165.689 49.5374 165.872 50.0921 166.242 50.6182C166.611 51.139 167.14 51.5895 167.827 51.9697C168.52 52.3447 169.325 52.6051 170.242 52.751L169.538 54.126C168.445 53.9385 167.489 53.5947 166.671 53.0947C165.859 52.5999 165.242 51.988 164.82 51.2588C164.387 51.9932 163.76 52.6077 162.937 53.1025C162.114 53.6025 161.158 53.9489 160.07 54.1416L159.382 52.7666C160.304 52.6312 161.111 52.3734 161.804 51.9932C162.497 51.613 163.028 51.1572 163.398 50.626C163.773 50.0947 163.96 49.5374 163.96 48.9541V48.4072H165.695V48.9541ZM177.48 40.2979C178.553 40.2979 179.467 40.3916 180.222 40.5791C180.983 40.7666 181.564 41.0426 181.965 41.4072C182.366 41.7666 182.569 42.2041 182.574 42.7197C182.569 43.501 182.123 44.0999 181.238 44.5166C180.353 44.9333 179.1 45.1468 177.48 45.1572C175.855 45.1468 174.6 44.9333 173.715 44.5166C172.829 44.0999 172.386 43.501 172.386 42.7197C172.386 42.2041 172.587 41.7666 172.988 41.4072C173.389 41.0426 173.97 40.7666 174.73 40.5791C175.491 40.3916 176.407 40.2979 177.48 40.2979ZM177.48 41.5791C176.407 41.5791 175.592 41.6781 175.035 41.876C174.478 42.0687 174.204 42.3499 174.215 42.7197C174.209 43.1051 174.48 43.3916 175.027 43.5791C175.574 43.7666 176.392 43.8604 177.48 43.8604C178.584 43.8604 179.41 43.7666 179.957 43.5791C180.504 43.3916 180.777 43.1051 180.777 42.7197C180.777 42.3499 180.498 42.0687 179.941 41.876C179.384 41.6781 178.564 41.5791 177.48 41.5791ZM183.933 47.2979H171.058V45.9072H183.933V47.2979ZM182.324 51.7041H174.293V52.751H182.715V54.0791H172.59V50.4697H180.621V49.5322H172.574V48.251H182.324V51.7041ZM198.911 44.8135H200.817V46.251H198.911V51.1104H197.177V40.0791H198.911V44.8135ZM199.411 53.9229H189.63V50.376H191.364V52.5166H199.411V53.9229ZM187.598 48.2822C188.979 48.2822 190.166 48.264 191.161 48.2275V47.3369C190.369 47.238 189.744 47.0036 189.286 46.6338C188.828 46.264 188.598 45.7979 188.598 45.2354C188.598 44.777 188.739 44.3838 189.02 44.0557C189.302 43.7223 189.697 43.4697 190.208 43.2979C190.723 43.126 191.322 43.0426 192.005 43.0479C192.692 43.0426 193.291 43.126 193.802 43.2979C194.317 43.4697 194.713 43.7223 194.989 44.0557C195.27 44.3838 195.411 44.777 195.411 45.2354C195.411 45.7926 195.187 46.2562 194.739 46.626C194.291 46.9958 193.677 47.2327 192.895 47.3369V48.1494C194.229 48.0713 195.411 47.9541 196.442 47.7979L196.583 49.0166C195.296 49.2562 193.971 49.415 192.606 49.4932C191.242 49.5713 189.687 49.6208 187.942 49.6416H187.786L187.598 48.2822ZM196.067 42.5791H187.958V41.3135H191.161V40.0322H192.895V41.3135H196.067V42.5791ZM192.005 44.2197C191.453 44.2197 191.023 44.3083 190.716 44.4854C190.413 44.6624 190.265 44.9124 190.27 45.2354C190.265 45.5374 190.416 45.7744 190.723 45.9463C191.031 46.1182 191.458 46.2041 192.005 46.2041C192.552 46.2041 192.979 46.1182 193.286 45.9463C193.598 45.7744 193.755 45.5374 193.755 45.2354C193.755 44.9072 193.601 44.6572 193.294 44.4854C192.986 44.3083 192.557 44.2197 192.005 44.2197ZM204.993 40.876C205.556 40.876 206.077 40.9749 206.556 41.1729C207.04 41.3656 207.452 41.6416 207.79 42.001H211.165V40.0791H212.9V48.3916H211.165V46.5947H207.782C207.449 46.9489 207.04 47.2249 206.556 47.4229C206.077 47.6156 205.556 47.7093 204.993 47.7041C204.295 47.7093 203.66 47.5661 203.087 47.2744C202.519 46.9827 202.072 46.5765 201.743 46.0557C201.42 45.5348 201.259 44.9489 201.259 44.2979C201.259 43.6416 201.42 43.0531 201.743 42.5322C202.072 42.0114 202.519 41.6051 203.087 41.3135C203.655 41.0218 204.29 40.876 204.993 40.876ZM204.993 42.3604C204.587 42.3604 204.228 42.4411 203.915 42.6025C203.603 42.7588 203.358 42.9827 203.181 43.2744C203.004 43.5661 202.915 43.9072 202.915 44.2979C202.915 44.6781 203.004 45.0166 203.181 45.3135C203.358 45.6051 203.603 45.8317 203.915 45.9932C204.233 46.1546 204.592 46.2354 204.993 46.2354C205.379 46.2354 205.725 46.1546 206.032 45.9932C206.345 45.8317 206.59 45.6051 206.767 45.3135C206.944 45.0166 207.035 44.6781 207.04 44.2979C207.035 43.9072 206.944 43.5661 206.767 43.2744C206.59 42.9827 206.348 42.7588 206.04 42.6025C205.733 42.4411 205.384 42.3604 204.993 42.3604ZM208.118 48.6885C209.103 48.6885 209.957 48.7979 210.681 49.0166C211.41 49.2354 211.97 49.5505 212.361 49.9619C212.751 50.3734 212.947 50.8656 212.947 51.4385C212.947 52.0114 212.751 52.5036 212.361 52.915C211.97 53.3265 211.41 53.6416 210.681 53.8604C209.957 54.0791 209.103 54.1885 208.118 54.1885C207.134 54.1885 206.28 54.0791 205.556 53.8604C204.837 53.6416 204.282 53.3265 203.892 52.915C203.506 52.5036 203.316 52.0114 203.322 51.4385C203.316 50.8656 203.506 50.3734 203.892 49.9619C204.282 49.5505 204.837 49.2354 205.556 49.0166C206.28 48.7979 207.134 48.6885 208.118 48.6885ZM208.118 50.0166C207.129 50.0166 206.363 50.139 205.822 50.3838C205.285 50.6286 205.019 50.9801 205.025 51.4385C205.019 51.8812 205.285 52.2249 205.822 52.4697C206.363 52.7093 207.129 52.8291 208.118 52.8291C209.118 52.8291 209.889 52.7093 210.431 52.4697C210.973 52.2249 211.243 51.8812 211.243 51.4385C211.243 50.9801 210.973 50.6286 210.431 50.3838C209.894 50.139 209.124 50.0166 208.118 50.0166ZM208.572 43.3916C208.655 43.6989 208.697 44.001 208.697 44.2979C208.697 44.5791 208.657 44.876 208.579 45.1885H211.165V43.3916H208.572ZM221.31 43.7197H214.388V42.3291H217.013V40.4854H218.732V42.3291H221.31V43.7197ZM217.873 44.4697C218.466 44.4697 218.995 44.6104 219.459 44.8916C219.927 45.1676 220.292 45.5557 220.552 46.0557C220.818 46.5557 220.951 47.1208 220.951 47.751C220.951 48.3916 220.818 48.9645 220.552 49.4697C220.292 49.9749 219.927 50.3708 219.459 50.6572C218.995 50.9385 218.466 51.0791 217.873 51.0791C217.284 51.0791 216.756 50.9385 216.287 50.6572C215.818 50.3708 215.451 49.9749 215.185 49.4697C214.92 48.9645 214.789 48.3916 214.795 47.751C214.789 47.1208 214.92 46.5557 215.185 46.0557C215.451 45.5557 215.818 45.1676 216.287 44.8916C216.756 44.6104 217.284 44.4697 217.873 44.4697ZM217.873 45.9072C217.565 45.9072 217.295 45.9854 217.06 46.1416C216.826 46.2926 216.644 46.5088 216.513 46.79C216.383 47.0661 216.321 47.3864 216.326 47.751C216.321 48.126 216.383 48.4541 216.513 48.7354C216.644 49.0166 216.826 49.2327 217.06 49.3838C217.295 49.5296 217.565 49.5999 217.873 49.5947C218.175 49.5999 218.443 49.5296 218.677 49.3838C218.912 49.2327 219.094 49.0166 219.224 48.7354C219.355 48.4541 219.42 48.126 219.42 47.751C219.42 47.3864 219.355 47.0661 219.224 46.79C219.094 46.5088 218.912 46.2926 218.677 46.1416C218.443 45.9854 218.175 45.9072 217.873 45.9072ZM226.56 54.2041H224.904V47.2979H223.529V53.5635H221.904V40.376H223.529V45.8916H224.904V40.0791H226.56V54.2041ZM240.674 52.4854H227.768V51.0635H230.752V47.4932C230.179 47.1598 229.734 46.7458 229.416 46.251C229.104 45.7562 228.95 45.1989 228.955 44.5791C228.95 43.8447 229.171 43.1937 229.619 42.626C230.067 42.0583 230.69 41.6208 231.487 41.3135C232.283 41.001 233.184 40.8447 234.19 40.8447C235.2 40.8447 236.104 41.001 236.901 41.3135C237.703 41.6208 238.328 42.0583 238.776 42.626C239.229 43.1885 239.455 43.8395 239.455 44.5791C239.455 45.1833 239.302 45.7327 238.994 46.2275C238.692 46.7171 238.263 47.126 237.705 47.4541V51.0635H240.674V52.4854ZM234.19 42.2197C233.487 42.2197 232.867 42.3161 232.33 42.5088C231.799 42.6963 231.385 42.9671 231.088 43.3213C230.796 43.6755 230.653 44.0947 230.658 44.5791C230.653 45.0583 230.796 45.4749 231.088 45.8291C231.385 46.1833 231.802 46.4567 232.338 46.6494C232.875 46.8421 233.492 46.9385 234.19 46.9385C234.888 46.9385 235.505 46.8421 236.041 46.6494C236.583 46.4567 237.002 46.1833 237.299 45.8291C237.601 45.4749 237.752 45.0583 237.752 44.5791C237.752 44.0999 237.601 43.6833 237.299 43.3291C237.002 42.9697 236.585 42.6963 236.049 42.5088C235.513 42.3161 234.893 42.2197 234.19 42.2197ZM235.94 51.0635V48.1182C235.388 48.238 234.804 48.2979 234.19 48.2979C233.601 48.2979 233.028 48.2406 232.471 48.126V51.0635H235.94Z" fill="black"/>
</svg>
