<svg width="263" height="315" viewBox="0 0 263 315" fill="none" xmlns="http://www.w3.org/2000/svg">
<g filter="url(#filter0_d_411_920)">
<rect x="12" y="12" width="238" height="290" rx="20" fill="white" shape-rendering="crispEdges"/>
<path d="M65.3609 41.7558H57.9445V41.0503H61.2186V39.1329H62.0778V41.0503H65.3609V41.7558ZM62.0868 36.1392C62.0868 36.5402 62.2225 36.9245 62.4938 37.2924C62.7682 37.6571 63.1315 37.9677 63.5837 38.2239C64.0359 38.4772 64.5198 38.6445 65.0353 38.7259L64.6916 39.4042C64.2545 39.3198 63.8354 39.1826 63.4345 38.9927C63.0365 38.7998 62.6823 38.5616 62.3717 38.2782C62.0612 37.9948 61.82 37.6798 61.6482 37.3331C61.4763 37.6858 61.2367 38.0069 60.9291 38.2963C60.6216 38.5827 60.2704 38.8239 59.8755 39.0198C59.4835 39.2158 59.072 39.356 58.6409 39.4404L58.2882 38.7621C58.7916 38.6777 59.2665 38.5058 59.7127 38.2465C60.1589 37.9843 60.5161 37.6677 60.7844 37.2969C61.0558 36.9261 61.1914 36.5402 61.1914 36.1392V36.0668H58.5595V35.3614H64.7188V36.0668H62.0868V36.1392ZM72.4272 40.6252H71.568V37.5863H69.9852C69.9249 37.9089 69.7968 38.1938 69.6008 38.441C69.4078 38.6882 69.1652 38.8812 68.8727 39.0198C68.5803 39.1555 68.2607 39.2233 67.914 39.2233C67.51 39.2233 67.1467 39.1374 66.8241 38.9656C66.5016 38.7907 66.2483 38.5495 66.0644 38.242C65.8805 37.9345 65.7886 37.5863 65.7886 37.1974C65.7886 36.8085 65.8805 36.4618 66.0644 36.1573C66.2483 35.8498 66.5016 35.6101 66.8241 35.4382C67.1467 35.2664 67.51 35.1805 67.914 35.1805C68.2698 35.1805 68.5954 35.2528 68.8908 35.3975C69.1893 35.5392 69.435 35.7382 69.6279 35.9945C69.8239 36.2507 69.9475 36.5462 69.9988 36.8808H71.568V34.674H72.4272V40.6252ZM72.6443 42.5969H67.1633V40.0193H68.0225V41.9005H72.6443V42.5969ZM67.914 35.9312C67.6638 35.9312 67.4392 35.9839 67.2402 36.0894C67.0442 36.195 66.8905 36.3442 66.7789 36.5371C66.6674 36.7271 66.6116 36.9472 66.6116 37.1974C66.6116 37.4476 66.6674 37.6707 66.7789 37.8667C66.8905 38.0596 67.0457 38.2104 67.2447 38.3189C67.4437 38.4274 67.6668 38.4817 67.914 38.4817C68.1552 38.4817 68.3738 38.4274 68.5697 38.3189C68.7657 38.2104 68.9194 38.0596 69.031 37.8667C69.1425 37.6707 69.1983 37.4476 69.1983 37.1974C69.1983 36.9502 69.1425 36.7301 69.031 36.5371C68.9194 36.3442 68.7657 36.195 68.5697 36.0894C68.3768 35.9839 68.1582 35.9312 67.914 35.9312ZM77.0876 34.8006C77.6966 34.8006 78.2167 34.8549 78.6478 34.9634C79.0819 35.0689 79.4121 35.2257 79.6382 35.4337C79.8673 35.6417 79.9819 35.895 79.9819 36.1934C79.9819 36.4919 79.8673 36.7467 79.6382 36.9577C79.4121 37.1657 79.0819 37.324 78.6478 37.4325C78.2167 37.5411 77.6966 37.5953 77.0876 37.5953C76.4786 37.5953 75.9571 37.5411 75.5229 37.4325C75.0918 37.324 74.7617 37.1657 74.5326 36.9577C74.3065 36.7467 74.1934 36.4919 74.1934 36.1934C74.1934 35.895 74.3065 35.6417 74.5326 35.4337C74.7617 35.2257 75.0918 35.0689 75.5229 34.9634C75.9571 34.8549 76.4786 34.8006 77.0876 34.8006ZM77.0876 35.4337C76.4425 35.4337 75.9465 35.5 75.5998 35.6327C75.2531 35.7653 75.0828 35.9523 75.0888 36.1934C75.0858 36.4407 75.2546 36.6291 75.5953 36.7587C75.939 36.8884 76.4364 36.9532 77.0876 36.9532C77.7358 36.9532 78.2318 36.8884 78.5754 36.7587C78.9222 36.6291 79.0955 36.4407 79.0955 36.1934C79.0955 35.9523 78.9206 35.7653 78.5709 35.6327C78.2242 35.5 77.7298 35.4337 77.0876 35.4337ZM80.7868 38.7802H73.3975V38.0928H80.7868V38.7802ZM79.8552 41.3036H75.134V42.0271H80.0813V42.6874H74.2929V40.6795H79.0051V40.0464H74.2838V39.4042H79.8552V41.3036ZM89.4746 36.5824H90.6504V37.2969H89.4746V39.3952H88.6154V34.6649H89.4746V36.5824ZM84.265 36.302H86.3904V35.1262H87.2406V38.9249H83.4238V35.1262H84.265V36.302ZM86.3904 38.2465V36.9803H84.265V38.2465H86.3904ZM89.5379 40.5077H85.1694V41.9729H89.6826V42.6512H84.3102V39.8203H89.5379V40.5077ZM97.391 36.2387C97.391 36.6939 97.385 37.0904 97.3729 37.428C97.3639 37.7627 97.3368 38.1501 97.2915 38.5902C97.2493 39.0304 97.18 39.5067 97.0835 40.0193L96.2152 39.9288C96.3117 39.4434 96.3826 38.9867 96.4278 38.5586C96.476 38.1275 96.5047 37.7446 96.5137 37.4099C96.5258 37.0753 96.5318 36.6849 96.5318 36.2387V36.1392H91.6116V35.4428H97.391V36.2387ZM98.2231 41.6744H90.8338V40.9599H93.6466V38.1018H94.4968V40.9599H98.2231V41.6744ZM107.264 39.1691H106.404V34.674H107.264V39.1691ZM103.492 35.7503C103.489 36.106 103.569 36.4482 103.732 36.7768C103.898 37.1024 104.133 37.3888 104.437 37.636C104.745 37.8833 105.102 38.0687 105.509 38.1923L105.093 38.8706C104.62 38.7169 104.208 38.4877 103.858 38.1832C103.512 37.8787 103.245 37.5185 103.058 37.1024C102.871 37.5516 102.6 37.9436 102.244 38.2782C101.891 38.6098 101.475 38.8555 100.996 39.0153L100.571 38.337C100.987 38.2013 101.349 38.0023 101.656 37.7401C101.964 37.4747 102.2 37.1703 102.366 36.8266C102.532 36.4829 102.615 36.1241 102.615 35.7503V34.9634H103.492V35.7503ZM107.318 40.2996H106.251V41.9729H107.399V42.6693H101.756V41.9729H102.913V40.2996H101.828V39.6123H107.318V40.2996ZM105.4 41.9729V40.2996H103.763V41.9729H105.4ZM115.659 39.5851H108.27V38.8977H115.659V39.5851ZM114.827 42.5969H109.202V40.2454H110.07V41.9005H114.827V42.5969ZM111.96 34.9363C112.542 34.9333 113.05 34.9966 113.484 35.1262C113.921 35.2558 114.259 35.4428 114.497 35.687C114.735 35.9312 114.854 36.2206 114.854 36.5552C114.854 36.8929 114.735 37.1853 114.497 37.4325C114.262 37.6767 113.926 37.8652 113.489 37.9978C113.052 38.1305 112.542 38.1983 111.96 38.2013C111.375 38.1983 110.864 38.1305 110.427 37.9978C109.993 37.8652 109.657 37.6767 109.419 37.4325C109.184 37.1853 109.066 36.8929 109.066 36.5552C109.066 36.2206 109.184 35.9312 109.419 35.687C109.657 35.4428 109.993 35.2558 110.427 35.1262C110.864 34.9966 111.375 34.9333 111.96 34.9363ZM111.96 35.6236C111.55 35.6236 111.193 35.6613 110.888 35.7367C110.587 35.8121 110.355 35.9206 110.192 36.0623C110.029 36.201 109.949 36.3653 109.952 36.5552C109.949 36.7512 110.028 36.92 110.188 37.0617C110.35 37.2034 110.582 37.3119 110.884 37.3873C111.188 37.4597 111.547 37.4959 111.96 37.4959C112.373 37.4959 112.731 37.4597 113.032 37.3873C113.333 37.3119 113.564 37.2034 113.724 37.0617C113.887 36.92 113.968 36.7512 113.968 36.5552C113.968 36.3653 113.887 36.201 113.724 36.0623C113.561 35.9206 113.329 35.8121 113.027 35.7367C112.726 35.6613 112.37 35.6236 111.96 35.6236ZM125.396 41.7377H117.98V41.0322H121.227V39.1058H122.077V41.0322H125.396V41.7377ZM122.095 35.7955C122.095 36.2115 122.232 36.6155 122.507 37.0075C122.784 37.3964 123.15 37.728 123.606 38.0023C124.064 38.2767 124.552 38.4576 125.071 38.545L124.7 39.2505C124.26 39.1631 123.839 39.0183 123.438 38.8163C123.04 38.6113 122.684 38.3596 122.371 38.0611C122.06 37.7627 121.818 37.431 121.643 37.0662C121.468 37.431 121.225 37.7642 120.915 38.0657C120.607 38.3641 120.255 38.6159 119.857 38.8209C119.462 39.0229 119.047 39.1661 118.613 39.2505L118.233 38.545C118.749 38.4576 119.233 38.2767 119.685 38.0023C120.14 37.728 120.505 37.3964 120.779 37.0075C121.053 36.6155 121.191 36.2115 121.191 35.7955V35.1805H122.095V35.7955ZM129.397 34.7554C130.006 34.7554 130.526 34.8096 130.957 34.9182C131.391 35.0267 131.721 35.185 131.947 35.393C132.176 35.601 132.291 35.8528 132.291 36.1482C132.291 36.4467 132.176 36.7014 131.947 36.9125C131.721 37.1205 131.391 37.2788 130.957 37.3873C130.526 37.4959 130.006 37.5501 129.397 37.5501C128.788 37.5501 128.266 37.4959 127.832 37.3873C127.401 37.2788 127.071 37.1205 126.841 36.9125C126.615 36.7014 126.502 36.4467 126.502 36.1482C126.502 35.8528 126.615 35.601 126.841 35.393C127.071 35.185 127.401 35.0267 127.832 34.9182C128.266 34.8096 128.788 34.7554 129.397 34.7554ZM129.397 35.3975C128.748 35.4036 128.252 35.4714 127.909 35.601C127.565 35.7277 127.395 35.9101 127.398 36.1482C127.395 36.3985 127.563 36.5884 127.904 36.718C128.248 36.8447 128.745 36.908 129.397 36.908C130.048 36.908 130.545 36.8447 130.889 36.718C131.233 36.5884 131.404 36.3985 131.404 36.1482C131.404 35.9101 131.231 35.7277 130.884 35.601C130.541 35.4714 130.045 35.4036 129.397 35.3975ZM133.096 38.7078H129.822V39.4042H132.164V41.3036H127.443V42.0271H132.39V42.6874H126.602V40.6795H131.314V40.0464H126.593V39.4042H128.962V38.7078H125.706V38.0295H133.096V38.7078ZM140.849 41.7558H133.433V41.0322H140.849V41.7558ZM140.171 36.1482H138.932V38.8525H140.144V39.5399H134.084V38.8525H135.296V36.1482H134.066V35.4428H140.171V36.1482ZM138.091 38.8525V36.1482H136.146V38.8525H138.091ZM144.388 37.7129H142.362V38.8525C142.89 38.8465 143.353 38.8284 143.751 38.7983C144.152 38.7681 144.563 38.7138 144.985 38.6355L145.076 39.3228C144.611 39.4103 144.159 39.4691 143.719 39.4992C143.282 39.5263 142.727 39.5429 142.055 39.5489H141.521V37.0708H143.556V35.9854H141.503V35.3071H144.388V37.7129ZM148.069 40.7609H147.255V34.674H148.069V40.7609ZM146.45 40.5529H145.627V37.5592H144.705V36.8447H145.627V34.8187H146.45V40.5529ZM148.305 42.5969H142.697V40.1459H143.547V41.9005H148.305V42.5969ZM156.302 41.7196H148.886V41.0142H156.302V41.7196ZM153.028 36.3834C153.028 36.7844 153.164 37.1672 153.435 37.532C153.71 37.8968 154.073 38.2058 154.525 38.4591C154.977 38.7123 155.461 38.8797 155.977 38.9611L155.633 39.6394C155.196 39.558 154.777 39.4208 154.376 39.2279C153.978 39.0349 153.624 38.7967 153.313 38.5134C153.003 38.23 152.76 37.9149 152.585 37.5682C152.416 37.9179 152.178 38.2375 151.871 38.5269C151.563 38.8163 151.212 39.059 150.817 39.255C150.425 39.451 150.013 39.5912 149.582 39.6756L149.23 38.9882C149.733 38.9068 150.208 38.738 150.654 38.4817C151.1 38.2224 151.458 37.9089 151.726 37.5411C151.997 37.1703 152.133 36.7844 152.133 36.3834V36.1301H149.501V35.4337H155.66V36.1301H153.028V36.3834ZM164.02 39.0425H156.603V38.3822H164.02V39.0425ZM163.106 41.394H158.349V42.0633H163.36V42.6693H157.49V40.8242H162.256V40.2273H157.481V39.6123H163.106V41.394ZM163.088 36.6276H158.403V37.2426H163.224V37.8486H157.553V36.0578H162.229V35.4789H157.535V34.873H163.088V36.6276ZM172.789 35.497V35.6056C172.783 35.9553 172.771 36.2658 172.753 36.5371C172.735 36.8055 172.696 37.1009 172.635 37.4235L171.785 37.3511C171.842 37.0346 171.88 36.7467 171.898 36.4874C171.919 36.2251 171.93 35.9553 171.93 35.6779H167.19V34.9905H172.789V35.497ZM173.702 38.5179H166.331V37.8395H169.289V36.501H170.13V37.8395H173.702V38.5179ZM172.807 41.195H168.059V42H173.015V42.6874H167.2V40.5981H171.957V39.8836H167.19V39.1872H172.807V41.195ZM180.362 37.8305H181.664V38.5541H180.362V42.7869H179.512V34.6649H180.362V37.8305ZM178.073 38.3732H175.234V40.1278C175.984 40.1248 176.632 40.1052 177.178 40.069C177.727 40.0298 178.282 39.959 178.842 39.8565L178.924 40.5529C178.324 40.6644 177.731 40.7413 177.146 40.7835C176.565 40.8227 175.864 40.8453 175.044 40.8514H174.383V37.6767H177.223V36.094H174.365V35.3975H178.073V38.3732ZM189.165 39.9288H185.872V42.7597H185.031V39.9288H181.775V39.2324H189.165V39.9288ZM188.468 35.8317H185.963C185.966 36.1603 186.092 36.4738 186.343 36.7723C186.596 37.0677 186.935 37.3195 187.36 37.5275C187.785 37.7325 188.251 37.8697 188.758 37.939L188.441 38.6174C187.998 38.548 187.58 38.432 187.188 38.2692C186.796 38.1033 186.453 37.8983 186.157 37.6541C185.862 37.4069 185.633 37.1311 185.47 36.8266C185.226 37.2848 184.838 37.6722 184.308 37.9888C183.78 38.3023 183.183 38.5118 182.517 38.6174L182.191 37.939C182.692 37.8697 183.153 37.7325 183.575 37.5275C184 37.3195 184.339 37.0677 184.593 36.7723C184.846 36.4738 184.977 36.1603 184.986 35.8317H182.463V35.1443H188.468V35.8317ZM191.971 36.8808C191.971 37.321 192.033 37.7566 192.156 38.1878C192.28 38.6159 192.464 39.0078 192.708 39.3635C192.952 39.7193 193.249 40.0042 193.599 40.2182L193.12 40.8785C192.752 40.6584 192.437 40.3584 192.174 39.9786C191.912 39.5957 191.71 39.1615 191.568 38.6762C191.415 39.2038 191.198 39.6756 190.917 40.0916C190.64 40.5046 190.31 40.8272 189.927 41.0594L189.393 40.4172C189.764 40.1941 190.081 39.8987 190.343 39.5309C190.605 39.16 190.803 38.75 190.935 38.3008C191.071 37.8486 191.139 37.3873 191.139 36.917V35.4066H191.971V36.8808ZM196.475 42.7688H195.652V34.6649H196.475V42.7688ZM194.793 42.3708H193.979V38.2285H192.722V37.5139H193.979V34.8187H194.793V42.3708ZM204.645 41.7558H197.228V41.0413H199.001V38.9249C198.663 38.738 198.401 38.5013 198.214 38.2149C198.027 37.9285 197.934 37.6074 197.934 37.2517C197.934 36.8326 198.06 36.4633 198.314 36.1437C198.57 35.8241 198.924 35.5769 199.376 35.4021C199.829 35.2242 200.343 35.1352 200.918 35.1352C201.497 35.1352 202.013 35.2242 202.465 35.4021C202.92 35.5769 203.274 35.8241 203.528 36.1437C203.784 36.4633 203.912 36.8326 203.912 37.2517C203.912 37.6044 203.822 37.9225 203.641 38.2058C203.46 38.4862 203.204 38.7199 202.872 38.9068V41.0413H204.645V41.7558ZM200.918 35.8226C200.496 35.8226 200.122 35.8814 199.797 35.999C199.471 36.1136 199.218 36.2794 199.037 36.4964C198.856 36.7105 198.766 36.9622 198.766 37.2517C198.766 37.5381 198.856 37.7898 199.037 38.0069C199.218 38.2239 199.471 38.3928 199.797 38.5134C200.122 38.6309 200.496 38.6897 200.918 38.6897C201.337 38.6897 201.71 38.6309 202.035 38.5134C202.364 38.3928 202.62 38.2239 202.804 38.0069C202.988 37.7898 203.08 37.5381 203.08 37.2517C203.08 36.9652 202.988 36.7135 202.804 36.4964C202.623 36.2794 202.369 36.1136 202.04 35.999C201.714 35.8814 201.34 35.8226 200.918 35.8226ZM202.004 41.0413V39.2369C201.675 39.3183 201.313 39.359 200.918 39.359C200.539 39.359 200.183 39.3198 199.851 39.2414V41.0413H202.004Z" fill="#333333"/>
<path d="M41.9758 106.505H42.9914V107.117H41.9758V109.521H41.2393V104.489H41.9758V106.505ZM39.9292 105.683H37.5569V107.706H37.7197C38.3632 107.706 38.8916 107.691 39.3051 107.66C39.7211 107.629 40.1333 107.572 40.5416 107.489L40.6269 108.086C40.1695 108.177 39.7056 108.239 39.2353 108.272C38.765 108.303 38.1461 108.319 37.3786 108.319H36.8282V105.086H39.9292V105.683ZM42.2704 111.296H37.5724V109.001H38.3089V110.699H42.2704V111.296ZM44.8386 105.846C44.8334 106.148 44.8761 106.46 44.9665 106.78C45.0595 107.1 45.2133 107.382 45.4278 107.625C45.6397 107.393 45.7896 107.12 45.8774 106.807C45.9653 106.492 46.0118 106.171 46.017 105.846V105.598H45.5673V105.001H47.5209V105.598H46.7147V105.846C46.7147 106.099 46.7521 106.355 46.8271 106.613C46.902 106.869 47.0209 107.108 47.1837 107.33C47.3465 107.553 47.5545 107.73 47.8078 107.862L47.4124 108.389C46.9266 108.133 46.579 107.699 46.3697 107.086C46.194 107.725 45.8774 108.182 45.42 108.458C44.9756 108.185 44.6616 107.732 44.4781 107.102C44.3799 107.383 44.2455 107.635 44.075 107.858C43.9044 108.077 43.6938 108.254 43.4432 108.389L43.0478 107.862C43.2985 107.727 43.5052 107.549 43.668 107.327C43.8334 107.102 43.9548 106.861 44.0323 106.606C44.1099 106.347 44.1486 106.094 44.1486 105.846V105.598H43.3036V105.001H45.2882V105.598H44.8386V105.846ZM48.7613 106.265H49.5908V106.885H48.7613V108.668H48.0326V104.497H48.7613V106.265ZM48.7613 111.443H48.0326V109.559H44.0168V108.962H48.7613V111.443ZM55.5158 111.459H54.7793V104.497H55.5158V111.459ZM51.8024 105.016C52.1461 105.016 52.4536 105.117 52.725 105.319C52.9963 105.518 53.2082 105.802 53.3607 106.171C53.5157 106.538 53.5932 106.965 53.5932 107.451C53.5932 107.939 53.5157 108.368 53.3607 108.738C53.2082 109.107 52.9963 109.393 52.725 109.594C52.4536 109.793 52.1461 109.893 51.8024 109.893C51.4536 109.893 51.1435 109.793 50.8721 109.594C50.6008 109.393 50.3876 109.108 50.2326 108.741C50.0801 108.372 50.0039 107.942 50.0039 107.451C50.0039 106.962 50.0801 106.535 50.2326 106.168C50.3876 105.798 50.6008 105.514 50.8721 105.315C51.1435 105.116 51.4536 105.016 51.8024 105.016ZM51.8024 105.675C51.5879 105.675 51.398 105.748 51.2326 105.892C51.0698 106.037 50.9432 106.244 50.8528 106.513C50.7623 106.779 50.7171 107.091 50.7171 107.451C50.7171 107.812 50.7623 108.128 50.8528 108.396C50.9432 108.665 51.0698 108.872 51.2326 109.017C51.398 109.161 51.5879 109.234 51.8024 109.234C52.0143 109.234 52.2017 109.161 52.3645 109.017C52.5273 108.872 52.6539 108.665 52.7443 108.396C52.8348 108.128 52.88 107.812 52.88 107.451C52.88 107.091 52.8348 106.779 52.7443 106.513C52.6539 106.244 52.5273 106.037 52.3645 105.892C52.2017 105.748 52.0143 105.675 51.8024 105.675Z" fill="#333333"/>
<path d="M99.7672 110.614H93.4102V109.986H96.2011V108.505H93.9684V107.924H95.0072V105.737H93.9529V105.14H99.1857V105.737H98.1236V107.924H99.1625V108.505H96.9298V109.986H99.7672V110.614ZM97.4027 107.924V105.737H95.7359V107.924H97.4027ZM105.584 105.458C105.584 105.867 105.573 106.234 105.553 106.559C105.535 106.885 105.487 107.249 105.409 107.652H106.39V108.257H100.033V107.652H104.669C104.749 107.252 104.799 106.892 104.82 106.575C104.843 106.254 104.855 105.898 104.855 105.505H100.831V104.908H105.584V105.458ZM105.793 111.296H100.862V108.978H101.591V110.691H105.793V111.296ZM112.408 111.459H111.671V104.497H112.408V111.459ZM108.695 105.016C109.038 105.016 109.346 105.117 109.617 105.319C109.888 105.518 110.1 105.802 110.253 106.171C110.408 106.538 110.485 106.965 110.485 107.451C110.485 107.939 110.408 108.368 110.253 108.738C110.1 109.107 109.888 109.393 109.617 109.594C109.346 109.793 109.038 109.893 108.695 109.893C108.346 109.893 108.036 109.793 107.764 109.594C107.493 109.393 107.28 109.108 107.125 108.741C106.972 108.372 106.896 107.942 106.896 107.451C106.896 106.962 106.972 106.535 107.125 106.168C107.28 105.798 107.493 105.514 107.764 105.315C108.036 105.116 108.346 105.016 108.695 105.016ZM108.695 105.675C108.48 105.675 108.29 105.748 108.125 105.892C107.962 106.037 107.835 106.244 107.745 106.513C107.654 106.779 107.609 107.091 107.609 107.451C107.609 107.812 107.654 108.128 107.745 108.396C107.835 108.665 107.962 108.872 108.125 109.017C108.29 109.161 108.48 109.234 108.695 109.234C108.906 109.234 109.094 109.161 109.257 109.017C109.419 108.872 109.546 108.665 109.636 108.396C109.727 108.128 109.772 107.812 109.772 107.451C109.772 107.091 109.727 106.779 109.636 106.513C109.546 106.244 109.419 106.037 109.257 105.892C109.094 105.748 108.906 105.675 108.695 105.675Z" fill="#A0A0A0"/>
<path d="M152.225 104.722C152.52 104.722 152.79 104.772 153.035 104.873C153.281 104.974 153.485 105.115 153.648 105.295H155.357V104.497H156.086V108.032H155.357V107.303H153.663C153.501 107.492 153.295 107.638 153.047 107.741C152.799 107.842 152.525 107.893 152.225 107.893C151.877 107.893 151.564 107.827 151.287 107.695C151.011 107.56 150.794 107.373 150.636 107.133C150.481 106.89 150.404 106.613 150.404 106.303C150.404 105.998 150.481 105.726 150.636 105.485C150.794 105.245 151.011 105.058 151.287 104.923C151.564 104.789 151.877 104.722 152.225 104.722ZM152.225 105.326C152.011 105.324 151.818 105.364 151.648 105.447C151.48 105.529 151.348 105.646 151.252 105.796C151.157 105.943 151.109 106.112 151.109 106.303C151.109 106.5 151.157 106.673 151.252 106.823C151.348 106.973 151.48 107.09 151.648 107.175C151.816 107.258 152.008 107.301 152.225 107.303C152.437 107.301 152.626 107.258 152.791 107.175C152.959 107.09 153.09 106.973 153.183 106.823C153.278 106.673 153.326 106.5 153.326 106.303C153.326 106.112 153.278 105.943 153.183 105.796C153.09 105.646 152.959 105.529 152.791 105.447C152.623 105.364 152.435 105.324 152.225 105.326ZM156.086 110.102H152.295V110.769H156.334V111.358H151.559V109.552H155.357V108.947H151.543V108.373H156.086V110.102ZM153.97 105.877C154.011 106.022 154.032 106.164 154.032 106.303C154.032 106.451 154.012 106.59 153.974 106.722H155.357V105.877H153.97ZM162.717 108.629H161.98V106.869H160.685V106.265H161.98V104.497H162.717V108.629ZM160.391 108.823C160.874 108.823 161.291 108.875 161.643 108.978C161.997 109.081 162.268 109.231 162.457 109.428C162.645 109.624 162.74 109.859 162.74 110.133C162.74 110.407 162.645 110.641 162.457 110.835C162.268 111.031 161.998 111.181 161.647 111.284C161.295 111.388 160.877 111.441 160.391 111.443C159.905 111.441 159.485 111.388 159.131 111.284C158.78 111.181 158.51 111.031 158.321 110.835C158.132 110.641 158.039 110.407 158.042 110.133C158.039 109.859 158.132 109.624 158.321 109.428C158.51 109.231 158.78 109.081 159.131 108.978C159.485 108.875 159.905 108.823 160.391 108.823ZM160.391 109.396C159.879 109.396 159.481 109.461 159.197 109.59C158.913 109.717 158.771 109.898 158.771 110.133C158.771 110.288 158.835 110.421 158.964 110.532C159.094 110.641 159.28 110.723 159.523 110.78C159.765 110.837 160.055 110.864 160.391 110.862C160.727 110.864 161.016 110.837 161.259 110.78C161.502 110.723 161.688 110.641 161.817 110.532C161.946 110.421 162.011 110.288 162.011 110.133C162.011 109.898 161.869 109.717 161.585 109.59C161.3 109.461 160.902 109.396 160.391 109.396ZM159.414 105.722C159.414 106.016 159.481 106.302 159.616 106.579C159.75 106.855 159.944 107.102 160.197 107.319C160.45 107.533 160.747 107.699 161.089 107.815L160.709 108.396C160.326 108.262 159.993 108.064 159.709 107.803C159.427 107.54 159.209 107.234 159.054 106.885C158.901 107.28 158.675 107.626 158.375 107.924C158.075 108.218 157.721 108.44 157.313 108.59L156.925 108.001C157.277 107.88 157.583 107.703 157.844 107.47C158.108 107.235 158.309 106.966 158.449 106.664C158.591 106.361 158.662 106.05 158.662 105.73V105.575H157.158V104.978H160.902V105.575H159.414V105.722ZM169.3 111.459H168.564V104.497H169.3V111.459ZM165.587 105.016C165.931 105.016 166.238 105.117 166.51 105.319C166.781 105.518 166.993 105.802 167.145 106.171C167.3 106.538 167.378 106.965 167.378 107.451C167.378 107.939 167.3 108.368 167.145 108.738C166.993 109.107 166.781 109.393 166.51 109.594C166.238 109.793 165.931 109.893 165.587 109.893C165.238 109.893 164.928 109.793 164.657 109.594C164.385 109.393 164.172 109.108 164.017 108.741C163.865 108.372 163.789 107.942 163.789 107.451C163.789 106.962 163.865 106.535 164.017 106.168C164.172 105.798 164.385 105.514 164.657 105.315C164.928 105.116 165.238 105.016 165.587 105.016ZM165.587 105.675C165.373 105.675 165.183 105.748 165.017 105.892C164.854 106.037 164.728 106.244 164.637 106.513C164.547 106.779 164.502 107.091 164.502 107.451C164.502 107.812 164.547 108.128 164.637 108.396C164.728 108.665 164.854 108.872 165.017 109.017C165.183 109.161 165.373 109.234 165.587 109.234C165.799 109.234 165.986 109.161 166.149 109.017C166.312 108.872 166.439 108.665 166.529 108.396C166.619 108.128 166.665 107.812 166.665 107.451C166.665 107.091 166.619 106.779 166.529 106.513C166.439 106.244 166.312 106.037 166.149 105.892C165.986 105.748 165.799 105.675 165.587 105.675Z" fill="#A0A0A0"/>
<path d="M209.575 106.73C209.575 107.086 209.643 107.442 209.78 107.796C209.92 108.147 210.118 108.466 210.373 108.753C210.629 109.04 210.926 109.265 211.265 109.428L210.846 109.986C210.477 109.81 210.151 109.553 209.869 109.214C209.59 108.876 209.376 108.489 209.226 108.055C209.071 108.523 208.845 108.938 208.548 109.3C208.253 109.659 207.911 109.929 207.52 110.11L207.11 109.544C207.453 109.386 207.757 109.16 208.02 108.865C208.287 108.568 208.492 108.234 208.637 107.862C208.782 107.489 208.854 107.112 208.854 106.73V106.272H207.319V105.683H208.846V104.637H209.59V105.683H211.102V106.272H209.575V106.73ZM212.606 107.296H213.722V107.916H212.606V111.443H211.87V104.497H212.606V107.296ZM220.167 108.722H217.407V110.001H216.678V108.722H213.81V108.133H220.167V108.722ZM219.461 111.296H214.601V109.396H215.329V110.699H219.461V111.296ZM215.376 105.559H218.593V104.714H219.33V107.52H214.647V104.714H215.376V105.559ZM218.593 106.931V106.109H215.376V106.931H218.593ZM226.193 111.459H225.456V104.497H226.193V111.459ZM222.479 105.016C222.823 105.016 223.13 105.117 223.402 105.319C223.673 105.518 223.885 105.802 224.037 106.171C224.192 106.538 224.27 106.965 224.27 107.451C224.27 107.939 224.192 108.368 224.037 108.738C223.885 109.107 223.673 109.393 223.402 109.594C223.13 109.793 222.823 109.893 222.479 109.893C222.13 109.893 221.82 109.793 221.549 109.594C221.278 109.393 221.064 109.108 220.909 108.741C220.757 108.372 220.681 107.942 220.681 107.451C220.681 106.962 220.757 106.535 220.909 106.168C221.064 105.798 221.278 105.514 221.549 105.315C221.82 105.116 222.13 105.016 222.479 105.016ZM222.479 105.675C222.265 105.675 222.075 105.748 221.909 105.892C221.747 106.037 221.62 106.244 221.53 106.513C221.439 106.779 221.394 107.091 221.394 107.451C221.394 107.812 221.439 108.128 221.53 108.396C221.62 108.665 221.747 108.872 221.909 109.017C222.075 109.161 222.265 109.234 222.479 109.234C222.691 109.234 222.878 109.161 223.041 109.017C223.204 108.872 223.331 108.665 223.421 108.396C223.512 108.128 223.557 107.812 223.557 107.451C223.557 107.091 223.512 106.779 223.421 106.513C223.331 106.244 223.204 106.037 223.041 105.892C222.878 105.748 222.691 105.675 222.479 105.675Z" fill="#A0A0A0"/>
<line x1="23.9077" y1="149.761" x2="238.246" y2="149.761" stroke="#EBEBEB" stroke-width="0.661538"/>
<line x1="23.9077" y1="176.884" x2="238.246" y2="176.884" stroke="#EBEBEB" stroke-width="0.661538"/>
<path d="M38.3944 163.042H39.742V163.63H38.3944V167.763H37.6889V159.722H38.3944V163.042ZM36.9111 161.604H32.1266V161.016H34.1978V159.822H34.9032V161.016H36.9111V161.604ZM34.5595 162.273C34.9364 162.273 35.274 162.351 35.5725 162.508C35.871 162.665 36.1046 162.883 36.2735 163.164C36.4423 163.444 36.5282 163.762 36.5312 164.118C36.5282 164.474 36.4423 164.792 36.2735 165.072C36.1046 165.353 35.871 165.571 35.5725 165.728C35.274 165.885 34.9364 165.963 34.5595 165.963C34.1797 165.963 33.839 165.885 33.5375 165.728C33.239 165.571 33.0054 165.353 32.8366 165.072C32.6677 164.792 32.5848 164.474 32.5878 164.118C32.5848 163.762 32.6677 163.444 32.8366 163.164C33.0054 162.883 33.239 162.665 33.5375 162.508C33.839 162.351 34.1797 162.273 34.5595 162.273ZM34.5595 162.87C34.3123 162.87 34.0892 162.924 33.8902 163.033C33.6943 163.138 33.5405 163.286 33.429 163.476C33.3174 163.666 33.2632 163.88 33.2662 164.118C33.2632 164.359 33.3174 164.575 33.429 164.765C33.5405 164.952 33.6943 165.098 33.8902 165.203C34.0892 165.309 34.3123 165.36 34.5595 165.357C34.8037 165.36 35.0238 165.309 35.2198 165.203C35.4157 165.098 35.5695 164.952 35.681 164.765C35.7926 164.575 35.8499 164.359 35.8529 164.118C35.8499 163.88 35.7926 163.666 35.681 163.476C35.5695 163.286 35.4157 163.138 35.2198 163.033C35.0238 162.924 34.8037 162.87 34.5595 162.87ZM46.6339 162.137H41.7861V163.177H46.8057V163.765H41.0716V161.576H45.9103V160.627H41.0535V160.048H46.6339V162.137ZM47.5293 165.185H44.1829V167.781H43.4774V165.185H40.1671V164.615H47.5293V165.185ZM50.8124 160.31C51.2315 160.31 51.6038 160.39 51.9294 160.55C52.2581 160.71 52.5143 160.933 52.6982 161.219C52.8821 161.506 52.9741 161.833 52.9741 162.201C52.9741 162.568 52.8821 162.895 52.6982 163.182C52.5143 163.468 52.2581 163.691 51.9294 163.851C51.6038 164.011 51.2315 164.091 50.8124 164.091C50.3934 164.091 50.018 164.011 49.6864 163.851C49.3578 163.691 49.1 163.468 48.9131 163.182C48.7292 162.895 48.6388 162.568 48.6418 162.201C48.6388 161.833 48.7292 161.506 48.9131 161.219C49.1 160.933 49.3578 160.71 49.6864 160.55C50.018 160.39 50.3934 160.31 50.8124 160.31ZM50.8124 160.934C50.5291 160.934 50.2743 160.989 50.0482 161.097C49.8251 161.203 49.6502 161.352 49.5236 161.545C49.397 161.735 49.3352 161.953 49.3382 162.201C49.3352 162.448 49.397 162.668 49.5236 162.861C49.6502 163.051 49.8251 163.2 50.0482 163.308C50.2743 163.414 50.5291 163.467 50.8124 163.467C51.0928 163.467 51.3446 163.414 51.5677 163.308C51.7908 163.2 51.9641 163.051 52.0877 162.861C52.2143 162.668 52.2777 162.448 52.2777 162.201C52.2777 161.953 52.2143 161.735 52.0877 161.545C51.9641 161.352 51.7908 161.203 51.5677 161.097C51.3446 160.989 51.0928 160.934 50.8124 160.934ZM54.7739 167.781H54.0685V159.722H54.7739V167.781ZM48.2257 165.402C49.2689 165.402 50.217 165.386 51.0702 165.353C51.9264 165.319 52.748 165.245 53.5348 165.131L53.5891 165.656C52.7811 165.806 51.9566 165.903 51.1154 165.945C50.2773 165.987 49.3472 166.008 48.3252 166.008L48.2257 165.402ZM65.3831 167.763H64.7048V159.722H65.3831V167.763ZM63.7551 167.347H63.0858V163.204H61.7291V162.626H63.0858V159.921H63.7551V167.347ZM60.8699 162.02C60.8699 162.487 60.9377 162.944 61.0734 163.39C61.2091 163.833 61.408 164.234 61.6703 164.593C61.9326 164.949 62.2447 165.23 62.6064 165.438L62.1723 165.963C61.7834 165.731 61.4503 165.41 61.1729 165C60.8955 164.587 60.6845 164.119 60.5398 163.598C60.3921 164.162 60.1735 164.667 59.8841 165.113C59.5976 165.559 59.257 165.906 58.862 166.153L58.4098 165.619C58.7746 165.402 59.0912 165.105 59.3595 164.728C59.6278 164.352 59.8313 163.93 59.97 163.462C60.1117 162.992 60.1825 162.511 60.1825 162.02V161.26H58.6359V160.672H62.3441V161.26H60.8699V162.02ZM72.9081 162.779H70.5294V163.81H73.8397V164.389H66.5137V163.81H69.8239V162.779H67.4633V160.066H72.9081V162.779ZM68.1597 162.21H72.2026V160.636H68.1597V162.21ZM72.9352 167.763H72.2207V165.8H67.3277V165.23H72.9352V167.763ZM78.181 159.867C78.778 159.867 79.289 159.921 79.7141 160.03C80.1391 160.135 80.4632 160.292 80.6863 160.5C80.9094 160.705 81.021 160.955 81.021 161.251C81.021 161.703 80.7738 162.05 80.2793 162.291C79.7849 162.532 79.0855 162.656 78.181 162.662C77.5841 162.659 77.0716 162.603 76.6435 162.494C76.2184 162.386 75.8928 162.228 75.6667 162.02C75.4436 161.809 75.332 161.552 75.332 161.251C75.332 160.955 75.4436 160.705 75.6667 160.5C75.8928 160.292 76.2184 160.135 76.6435 160.03C77.0716 159.921 77.5841 159.867 78.181 159.867ZM78.181 160.401C77.7378 160.401 77.358 160.435 77.0414 160.505C76.7249 160.571 76.4837 160.669 76.3179 160.799C76.152 160.925 76.0706 161.076 76.0737 161.251C76.0706 161.528 76.253 161.742 76.6208 161.893C76.9887 162.044 77.5087 162.119 78.181 162.119C78.8503 162.119 79.3704 162.044 79.7412 161.893C80.112 161.742 80.2974 161.528 80.2974 161.251C80.2974 161.076 80.213 160.925 80.0442 160.799C79.8753 160.672 79.6327 160.574 79.3161 160.505C78.9995 160.435 78.6212 160.401 78.181 160.401ZM81.844 163.783H74.518V163.204H81.844V163.783ZM80.9034 166.28H76.1279V167.112H81.1476V167.672H75.4225V165.755H80.207V165.022H75.4044V164.48H80.9034V166.28ZM87.6415 161.206C87.6415 161.552 87.7244 161.888 87.8903 162.214C88.0561 162.537 88.2882 162.825 88.5867 163.078C88.8882 163.328 89.2334 163.521 89.6223 163.657L89.2515 164.217C88.8022 164.055 88.4073 163.813 88.0666 163.494C87.729 163.174 87.4727 162.807 87.2978 162.39C87.123 162.855 86.8577 163.263 86.5019 163.616C86.1462 163.969 85.7301 164.233 85.2538 164.407L84.883 163.847C85.2749 163.705 85.6261 163.5 85.9367 163.232C86.2472 162.96 86.4899 162.65 86.6647 162.3C86.8396 161.947 86.927 161.586 86.927 161.215V160.862H85.1091V160.283H89.4414V160.862H87.6415V161.206ZM91.5126 167.763H90.7981V165.556H86.104V164.968H91.5126V167.763ZM91.5126 164.543H90.7981V162.427H89.1881V161.83H90.7981V159.722H91.5126V164.543ZM95.0128 160.346C95.3746 160.349 95.6987 160.45 95.9851 160.649C96.2745 160.848 96.5081 161.132 96.686 161.5C96.8639 161.867 96.9709 162.3 97.0071 162.797H98.8115V159.722H99.5169V167.781H98.8115V163.385H97.0161C96.989 163.904 96.888 164.356 96.7131 164.742C96.5383 165.128 96.3031 165.425 96.0077 165.633C95.7152 165.841 95.3836 165.945 95.0128 165.945C94.6209 165.945 94.2711 165.83 93.9636 165.601C93.6591 165.372 93.421 165.047 93.2491 164.624C93.0803 164.202 92.9959 163.711 92.9959 163.15C92.9959 162.589 93.0803 162.098 93.2491 161.676C93.421 161.254 93.6591 160.928 93.9636 160.699C94.2681 160.467 94.6178 160.349 95.0128 160.346ZM95.0128 160.98C94.7505 160.983 94.5168 161.074 94.3118 161.255C94.1098 161.433 93.9531 161.686 93.8415 162.015C93.73 162.341 93.6742 162.719 93.6742 163.15C93.6742 163.581 93.73 163.961 93.8415 164.29C93.9531 164.615 94.1098 164.867 94.3118 165.045C94.5168 165.223 94.7505 165.312 95.0128 165.312C95.2721 165.312 95.5027 165.223 95.7047 165.045C95.9097 164.867 96.068 164.615 96.1795 164.29C96.2941 163.961 96.3514 163.581 96.3514 163.15C96.3514 162.719 96.2941 162.341 96.1795 162.015C96.068 161.686 95.9112 161.433 95.7092 161.255C95.5072 161.074 95.2751 160.983 95.0128 160.98ZM104.916 160.862C104.913 161.206 105.048 161.534 105.319 161.848C105.59 162.158 105.945 162.421 106.382 162.635C106.819 162.849 107.274 162.99 107.747 163.06L107.485 163.621C107.06 163.548 106.65 163.428 106.255 163.259C105.863 163.09 105.515 162.879 105.21 162.626C104.906 162.369 104.675 162.084 104.519 161.771C104.362 162.084 104.131 162.368 103.827 162.621C103.522 162.874 103.174 163.087 102.782 163.259C102.393 163.428 101.989 163.548 101.57 163.621L101.29 163.06C101.76 162.99 102.214 162.849 102.651 162.635C103.088 162.421 103.442 162.158 103.714 161.848C103.985 161.534 104.121 161.206 104.121 160.862V160.808H101.543V160.229H107.485V160.808H104.916V160.862ZM108.182 164.896H104.853V167.763H104.157V164.896H100.856V164.308H108.182V164.896ZM111.248 162.011C111.248 162.439 111.315 162.867 111.451 163.295C111.587 163.723 111.781 164.113 112.034 164.466C112.291 164.819 112.592 165.098 112.939 165.303L112.532 165.854C112.155 165.625 111.828 165.31 111.551 164.909C111.276 164.505 111.065 164.052 110.917 163.548C110.767 164.091 110.545 164.579 110.253 165.013C109.96 165.447 109.617 165.785 109.222 166.026L108.769 165.493C109.131 165.282 109.448 164.994 109.719 164.629C109.99 164.261 110.198 163.853 110.343 163.403C110.488 162.951 110.56 162.496 110.56 162.038V160.482H111.248V162.011ZM115.752 167.763H115.064V159.722H115.752V167.763ZM114.088 167.356H113.418V163.214H112.053V162.608H113.418V159.894H114.088V167.356ZM124.226 166.732H116.864V166.135H118.691V163.964C118.341 163.783 118.07 163.551 117.877 163.268C117.684 162.981 117.588 162.659 117.588 162.3C117.588 161.89 117.713 161.53 117.963 161.219C118.213 160.906 118.56 160.663 119.003 160.491C119.449 160.319 119.957 160.232 120.527 160.229C121.097 160.232 121.604 160.319 122.047 160.491C122.493 160.663 122.841 160.906 123.091 161.219C123.342 161.53 123.467 161.89 123.467 162.3C123.467 162.653 123.373 162.971 123.186 163.254C122.999 163.535 122.737 163.765 122.399 163.946V166.135H124.226V166.732ZM120.527 160.817C120.09 160.814 119.701 160.874 119.36 160.998C119.02 161.121 118.753 161.296 118.56 161.522C118.37 161.745 118.275 162.005 118.275 162.3C118.275 162.595 118.37 162.858 118.56 163.087C118.753 163.313 119.02 163.489 119.36 163.616C119.701 163.74 120.09 163.801 120.527 163.801C120.961 163.801 121.349 163.738 121.689 163.611C122.03 163.485 122.297 163.308 122.49 163.082C122.683 162.856 122.779 162.595 122.779 162.3C122.779 162.005 122.683 161.745 122.49 161.522C122.297 161.296 122.03 161.121 121.689 160.998C121.349 160.874 120.961 160.814 120.527 160.817ZM121.685 166.135V164.222C121.326 164.315 120.94 164.362 120.527 164.362C120.111 164.362 119.731 164.317 119.388 164.226V166.135H121.685ZM125.719 167.085C125.613 167.085 125.515 167.059 125.425 167.008C125.337 166.953 125.267 166.881 125.212 166.791C125.161 166.7 125.137 166.602 125.14 166.497C125.137 166.394 125.161 166.299 125.212 166.212C125.267 166.121 125.337 166.05 125.425 165.999C125.515 165.945 125.613 165.918 125.719 165.918C125.821 165.918 125.916 165.945 126.004 165.999C126.094 166.05 126.165 166.121 126.216 166.212C126.27 166.299 126.298 166.394 126.298 166.497C126.298 166.602 126.27 166.7 126.216 166.791C126.165 166.881 126.094 166.953 126.004 167.008C125.916 167.059 125.821 167.085 125.719 167.085Z" fill="#CDCDCD"/>
<path d="M35.8348 187.37C36.4016 187.373 36.9081 187.462 37.3543 187.637C37.8005 187.812 38.1487 188.059 38.3989 188.378C38.6491 188.695 38.7743 189.061 38.7743 189.477C38.7743 189.869 38.6642 190.217 38.4441 190.522C38.2271 190.826 37.9226 191.069 37.5306 191.25C37.1387 191.431 36.688 191.538 36.1785 191.571V193.258H39.534V193.855H32.1718V193.258H35.4821V191.571C34.9756 191.538 34.5264 191.431 34.1344 191.25C33.7425 191.066 33.438 190.823 33.221 190.522C33.0039 190.217 32.8954 189.869 32.8954 189.477C32.8954 189.061 33.0205 188.695 33.2707 188.378C33.5209 188.059 33.8691 187.812 34.3153 187.637C34.7615 187.462 35.268 187.373 35.8348 187.37ZM35.8348 187.958C35.4037 187.958 35.0163 188.023 34.6726 188.152C34.3319 188.279 34.0651 188.458 33.8722 188.69C33.6792 188.92 33.5827 189.182 33.5827 189.477C33.5827 189.782 33.6792 190.05 33.8722 190.282C34.0651 190.514 34.3319 190.694 34.6726 190.82C35.0133 190.947 35.4007 191.012 35.8348 191.015C36.2689 191.012 36.6563 190.947 36.997 190.82C37.3377 190.694 37.6045 190.514 37.7975 190.282C37.9904 190.05 38.0869 189.782 38.0869 189.477C38.0869 189.182 37.9904 188.92 37.7975 188.69C37.6045 188.458 37.3362 188.279 36.9925 188.152C36.6518 188.023 36.2659 187.958 35.8348 187.958ZM46.661 189.369H41.171V186.981H41.8675V188.781H46.661V189.369ZM47.5293 190.744H40.1671V190.165H47.5293V190.744ZM46.5796 193.348H41.8222V194.208H46.8691V194.777H41.1077V192.806H45.8832V192.028H41.0896V191.467H46.5796V193.348ZM57.1526 194.886H56.4381V186.845H57.1526V194.886ZM54.7739 187.723C54.7679 188.938 54.4604 190.029 53.8514 190.997C53.2424 191.962 52.2897 192.754 50.9933 193.375L50.6044 192.797C51.6777 192.287 52.4992 191.654 53.069 190.897C53.6419 190.141 53.969 189.275 54.0504 188.302H50.9752V187.723H54.7739ZM65.8624 191.865H58.5002V191.277H61.8286V190.427H59.459V188.464H64.1983V187.632H59.4318V187.053H64.9128V188.998H60.1644V189.857H65.0846V190.427H62.525V191.277H65.8624V191.865ZM64.958 194.814H64.2435V193.059H59.3233V192.48H64.958V194.814ZM72.7362 190.165H74.0839V190.753H72.7362V194.886H72.0308V186.845H72.7362V190.165ZM71.253 188.727H66.4684V188.139H68.5396V186.945H69.2451V188.139H71.253V188.727ZM68.9014 189.396C69.2782 189.396 69.6159 189.474 69.9144 189.631C70.2128 189.788 70.4465 190.006 70.6153 190.287C70.7841 190.567 70.8701 190.885 70.8731 191.241C70.8701 191.597 70.7841 191.915 70.6153 192.195C70.4465 192.476 70.2128 192.694 69.9144 192.851C69.6159 193.008 69.2782 193.086 68.9014 193.086C68.5215 193.086 68.1808 193.008 67.8794 192.851C67.5809 192.694 67.3472 192.476 67.1784 192.195C67.0096 191.915 66.9267 191.597 66.9297 191.241C66.9267 190.885 67.0096 190.567 67.1784 190.287C67.3472 190.006 67.5809 189.788 67.8794 189.631C68.1808 189.474 68.5215 189.396 68.9014 189.396ZM68.9014 189.993C68.6542 189.993 68.4311 190.047 68.2321 190.156C68.0361 190.261 67.8824 190.409 67.7708 190.599C67.6593 190.789 67.605 191.003 67.608 191.241C67.605 191.482 67.6593 191.698 67.7708 191.888C67.8824 192.075 68.0361 192.221 68.2321 192.326C68.4311 192.432 68.6542 192.483 68.9014 192.48C69.1456 192.483 69.3657 192.432 69.5616 192.326C69.7576 192.221 69.9114 192.075 70.0229 191.888C70.1345 191.698 70.1917 191.482 70.1948 191.241C70.1917 191.003 70.1345 190.789 70.0229 190.599C69.9114 190.409 69.7576 190.261 69.5616 190.156C69.3657 190.047 69.1456 189.993 68.9014 189.993ZM80.9667 188.464V188.564C80.9607 189.227 80.9396 189.823 80.9034 190.35C80.8702 190.875 80.7919 191.482 80.6682 192.173L79.9447 192.091C80.0412 191.615 80.1105 191.166 80.1527 190.744C80.1979 190.321 80.2251 189.946 80.2341 189.618C80.2462 189.289 80.2522 188.905 80.2522 188.464V188.247H75.2958V187.659H80.9667V188.464ZM81.844 193.746H74.518V193.158H77.3941V190.282H78.0906V193.158H81.844V193.746ZM91.4854 191.322H90.78V186.854H91.4854V191.322ZM87.6958 187.94C87.6928 188.305 87.7787 188.654 87.9536 188.989C88.1284 189.324 88.3711 189.618 88.6817 189.871C88.9952 190.124 89.3509 190.315 89.7489 190.445L89.4052 191.006C88.9289 190.846 88.5113 190.605 88.1525 190.282C87.7938 189.96 87.5225 189.581 87.3385 189.147C87.1607 189.611 86.8893 190.02 86.5245 190.373C86.1628 190.722 85.7422 190.982 85.2628 191.151L84.9011 190.59C85.302 190.448 85.6593 190.243 85.9728 189.975C86.2864 189.706 86.5306 189.396 86.7054 189.043C86.8833 188.69 86.9722 188.323 86.9722 187.94V187.153H87.6958V187.94ZM91.5397 192.381H90.4272V194.199H91.6211V194.777H86.0588V194.199H87.2617V192.381H86.1311V191.802H91.5397V192.381ZM89.7218 194.199V192.381H87.9581V194.199H89.7218ZM100.177 191.666H92.8512V191.087H100.177V191.666ZM99.3632 194.714H93.8008V192.372H94.5153V194.117H99.3632V194.714ZM96.5142 187.135C97.087 187.132 97.5874 187.194 98.0155 187.32C98.4436 187.447 98.7738 187.631 99.0059 187.872C99.2381 188.11 99.3541 188.395 99.3541 188.727C99.3541 189.058 99.2381 189.345 99.0059 189.586C98.7738 189.824 98.4436 190.008 98.0155 190.138C97.5874 190.264 97.087 190.328 96.5142 190.328C95.9353 190.328 95.4318 190.264 95.0037 190.138C94.5756 190.008 94.2455 189.824 94.0134 189.586C93.7812 189.345 93.6652 189.058 93.6652 188.727C93.6652 188.395 93.7812 188.11 94.0134 187.872C94.2455 187.631 94.5756 187.447 95.0037 187.32C95.4318 187.194 95.9353 187.132 96.5142 187.135ZM96.5142 187.705C96.0861 187.705 95.7122 187.747 95.3926 187.831C95.0731 187.913 94.8259 188.03 94.651 188.184C94.4792 188.338 94.3947 188.519 94.3978 188.727C94.3947 188.935 94.4792 189.116 94.651 189.269C94.8259 189.423 95.0731 189.542 95.3926 189.627C95.7122 189.708 96.0861 189.749 96.5142 189.749C96.9393 189.749 97.3116 189.708 97.6312 189.627C97.9507 189.542 98.1964 189.423 98.3683 189.269C98.5431 189.116 98.6306 188.935 98.6306 188.727C98.6306 188.519 98.5431 188.338 98.3683 188.184C98.1964 188.03 97.9507 187.913 97.6312 187.831C97.3116 187.747 96.9393 187.705 96.5142 187.705ZM105.459 187.144C105.857 187.147 106.213 187.224 106.526 187.374C106.843 187.525 107.09 187.736 107.268 188.008C107.449 188.276 107.539 188.582 107.539 188.926C107.539 189.269 107.449 189.577 107.268 189.848C107.09 190.116 106.843 190.326 106.526 190.477C106.213 190.624 105.857 190.698 105.459 190.698C105.055 190.698 104.695 190.624 104.378 190.477C104.062 190.326 103.815 190.116 103.637 189.848C103.459 189.577 103.37 189.269 103.37 188.926C103.37 188.582 103.459 188.276 103.637 188.008C103.815 187.736 104.062 187.525 104.378 187.374C104.695 187.224 105.055 187.147 105.459 187.144ZM105.459 187.741C105.194 187.741 104.954 187.792 104.74 187.895C104.529 187.994 104.363 188.134 104.243 188.315C104.122 188.493 104.063 188.696 104.066 188.926C104.063 189.158 104.122 189.364 104.243 189.545C104.363 189.726 104.529 189.868 104.74 189.97C104.954 190.07 105.194 190.119 105.459 190.119C105.721 190.119 105.958 190.07 106.169 189.97C106.383 189.868 106.551 189.726 106.671 189.545C106.792 189.364 106.852 189.158 106.852 188.926C106.852 188.696 106.792 188.493 106.671 188.315C106.551 188.134 106.383 187.994 106.169 187.895C105.958 187.792 105.721 187.741 105.459 187.741ZM109.819 190.979H109.113V186.845H109.819V190.979ZM109.819 193.303H105.305V194.208H110.108V194.777H104.609V192.77H109.113V191.937H104.591V191.368H109.819V193.303ZM117.832 194.886H117.117V186.845H117.832V194.886ZM115.453 187.723C115.447 188.938 115.14 190.029 114.531 190.997C113.922 191.962 112.969 192.754 111.673 193.375L111.284 192.797C112.357 192.287 113.179 191.654 113.748 190.897C114.321 190.141 114.648 189.275 114.73 188.302H111.655V187.723H115.453ZM126.542 191.142H119.18V190.581H126.542V191.142ZM125.619 193.493H120.79V194.262H125.882V194.777H120.075V193.005H124.914V192.317H120.066V191.784H125.619V193.493ZM125.592 188.754H120.844V189.459H125.737V189.975H120.138V188.265H124.878V187.605H120.111V187.09H125.592V188.754ZM132.24 188.338C132.24 188.69 132.321 189.03 132.484 189.355C132.65 189.678 132.882 189.964 133.18 190.214C133.479 190.465 133.826 190.659 134.221 190.798L133.859 191.35C133.404 191.187 133.006 190.949 132.665 190.635C132.324 190.318 132.068 189.952 131.896 189.536C131.724 189.988 131.462 190.386 131.109 190.73C130.757 191.071 130.344 191.328 129.87 191.503L129.49 190.952C129.888 190.81 130.243 190.606 130.553 190.341C130.864 190.076 131.105 189.77 131.277 189.423C131.451 189.076 131.54 188.715 131.543 188.338V187.994H129.707V187.415H134.049V187.994H132.24V188.338ZM135.803 188.971H137.015V189.577H135.803V191.693H135.098V186.845H135.803V188.971ZM135.803 194.886H135.098V192.697H130.539V192.118H135.803V194.886ZM140.289 188.112C140.286 188.488 140.368 188.849 140.534 189.192C140.699 189.533 140.933 189.832 141.235 190.088C141.539 190.344 141.887 190.539 142.279 190.671L141.881 191.223C141.435 191.054 141.045 190.811 140.71 190.495C140.375 190.178 140.122 189.809 139.95 189.387C139.778 189.869 139.515 190.291 139.159 190.653C138.803 191.012 138.384 191.283 137.902 191.467L137.513 190.888C137.923 190.744 138.283 190.536 138.594 190.264C138.907 189.99 139.15 189.67 139.322 189.305C139.493 188.938 139.581 188.549 139.584 188.139V187.307H140.289V188.112ZM144.188 191.612H143.473V189.161H141.682V188.573H143.473V186.845H144.188V191.612ZM141.519 191.847C142.077 191.847 142.558 191.907 142.962 192.028C143.366 192.145 143.675 192.319 143.889 192.548C144.106 192.774 144.215 193.047 144.215 193.366C144.215 193.683 144.106 193.953 143.889 194.176C143.675 194.402 143.366 194.574 142.962 194.691C142.558 194.809 142.077 194.868 141.519 194.868C140.962 194.868 140.481 194.809 140.077 194.691C139.673 194.574 139.362 194.402 139.145 194.176C138.931 193.953 138.824 193.683 138.824 193.366C138.824 193.047 138.931 192.774 139.145 192.548C139.362 192.319 139.673 192.145 140.077 192.028C140.481 191.907 140.962 191.847 141.519 191.847ZM141.519 192.408C141.112 192.408 140.758 192.447 140.457 192.525C140.155 192.601 139.925 192.711 139.765 192.855C139.605 193 139.527 193.17 139.53 193.366C139.527 193.556 139.605 193.722 139.765 193.864C139.925 194.003 140.155 194.11 140.457 194.185C140.758 194.26 141.112 194.298 141.519 194.298C141.926 194.298 142.279 194.26 142.578 194.185C142.879 194.11 143.11 194.003 143.27 193.864C143.429 193.722 143.509 193.556 143.509 193.366C143.509 193.17 143.429 193 143.27 192.855C143.11 192.711 142.879 192.601 142.578 192.525C142.279 192.447 141.926 192.408 141.519 192.408ZM149.542 188.817H145.508V188.238H147.181V187.09H147.887V188.238H149.542V188.817ZM147.525 189.36C147.86 189.36 148.158 189.438 148.42 189.595C148.686 189.749 148.892 189.964 149.04 190.242C149.191 190.519 149.268 190.834 149.271 191.187C149.268 191.542 149.191 191.861 149.04 192.141C148.892 192.418 148.686 192.637 148.42 192.797C148.158 192.953 147.86 193.032 147.525 193.032C147.193 193.032 146.896 192.953 146.634 192.797C146.372 192.637 146.167 192.417 146.019 192.136C145.871 191.856 145.797 191.539 145.797 191.187C145.797 190.837 145.871 190.523 146.019 190.246C146.167 189.966 146.372 189.749 146.634 189.595C146.896 189.438 147.193 189.36 147.525 189.36ZM147.525 189.957C147.317 189.96 147.129 190.015 146.96 190.124C146.794 190.23 146.664 190.376 146.571 190.563C146.477 190.747 146.431 190.955 146.431 191.187C146.431 191.422 146.477 191.633 146.571 191.82C146.667 192.007 146.798 192.153 146.964 192.259C147.13 192.361 147.317 192.411 147.525 192.408C147.736 192.411 147.926 192.361 148.095 192.259C148.264 192.153 148.396 192.007 148.493 191.82C148.589 191.633 148.637 191.422 148.637 191.187C148.637 190.955 148.589 190.747 148.493 190.563C148.396 190.376 148.264 190.23 148.095 190.124C147.926 190.015 147.736 189.96 147.525 189.957ZM152.373 194.886H151.694V190.825H150.627V194.488H149.958V187.044H150.627V190.237H151.694V186.845H152.373V194.886ZM159.916 187.985C159.913 188.329 160.047 188.657 160.318 188.971C160.59 189.281 160.944 189.544 161.381 189.758C161.818 189.972 162.274 190.113 162.747 190.183L162.485 190.744C162.059 190.671 161.649 190.551 161.254 190.382C160.863 190.213 160.514 190.002 160.21 189.749C159.905 189.492 159.675 189.208 159.518 188.894C159.361 189.208 159.131 189.491 158.826 189.744C158.522 189.997 158.173 190.21 157.781 190.382C157.393 190.551 156.989 190.671 156.569 190.744L156.289 190.183C156.759 190.113 157.213 189.972 157.65 189.758C158.087 189.544 158.442 189.281 158.713 188.971C158.984 188.657 159.12 188.329 159.12 187.985V187.931H156.542V187.352H162.485V187.931H159.916V187.985ZM163.181 192.019H159.853V194.886H159.156V192.019H155.855V191.431H163.181V192.019ZM166.247 189.134C166.247 189.562 166.315 189.99 166.451 190.418C166.586 190.846 166.781 191.236 167.034 191.589C167.29 191.942 167.592 192.221 167.938 192.426L167.531 192.978C167.154 192.748 166.827 192.433 166.55 192.032C166.276 191.628 166.065 191.175 165.917 190.671C165.766 191.214 165.545 191.702 165.252 192.136C164.96 192.571 164.616 192.908 164.221 193.149L163.769 192.616C164.131 192.405 164.447 192.117 164.719 191.752C164.99 191.384 165.198 190.976 165.343 190.526C165.487 190.074 165.56 189.619 165.56 189.161V187.605H166.247V189.134ZM170.751 194.886H170.064V186.845H170.751V194.886ZM169.087 194.479H168.418V190.337H167.052V189.731H168.418V187.017H169.087V194.479ZM179.226 193.855H171.864V193.258H173.691V191.087C173.341 190.906 173.07 190.674 172.877 190.391C172.684 190.104 172.587 189.782 172.587 189.423C172.587 189.013 172.712 188.653 172.963 188.342C173.213 188.029 173.559 187.786 174.003 187.614C174.449 187.442 174.957 187.355 175.527 187.352C176.096 187.355 176.603 187.442 177.046 187.614C177.492 187.786 177.841 188.029 178.091 188.342C178.341 188.653 178.466 189.013 178.466 189.423C178.466 189.776 178.373 190.094 178.186 190.377C177.999 190.658 177.737 190.888 177.399 191.069V193.258H179.226V193.855ZM175.527 187.94C175.09 187.937 174.701 187.997 174.36 188.121C174.019 188.244 173.752 188.419 173.559 188.645C173.37 188.868 173.275 189.128 173.275 189.423C173.275 189.719 173.37 189.981 173.559 190.21C173.752 190.436 174.019 190.612 174.36 190.739C174.701 190.863 175.09 190.924 175.527 190.924C175.961 190.924 176.348 190.861 176.689 190.735C177.03 190.608 177.296 190.432 177.489 190.205C177.682 189.979 177.779 189.719 177.779 189.423C177.779 189.128 177.682 188.868 177.489 188.645C177.296 188.419 177.03 188.244 176.689 188.121C176.348 187.997 175.961 187.937 175.527 187.94ZM176.684 193.258V191.345C176.326 191.438 175.94 191.485 175.527 191.485C175.111 191.485 174.731 191.44 174.387 191.35V193.258H176.684ZM180.718 194.208C180.613 194.208 180.515 194.182 180.424 194.131C180.337 194.076 180.266 194.004 180.212 193.914C180.16 193.823 180.136 193.725 180.139 193.62C180.136 193.517 180.16 193.422 180.212 193.335C180.266 193.244 180.337 193.174 180.424 193.122C180.515 193.068 180.613 193.041 180.718 193.041C180.821 193.041 180.916 193.068 181.003 193.122C181.094 193.174 181.164 193.244 181.216 193.335C181.27 193.422 181.297 193.517 181.297 193.62C181.297 193.725 181.27 193.823 181.216 193.914C181.164 194.004 181.094 194.076 181.003 194.131C180.916 194.182 180.821 194.208 180.718 194.208Z" fill="#CDCDCD"/>
<path d="M212.013 238.09C211.531 238.09 211.118 237.959 210.774 237.697C210.433 237.435 210.172 237.052 209.991 236.548C209.814 236.045 209.725 235.437 209.725 234.726C209.725 234.023 209.815 233.42 209.996 232.917C210.177 232.411 210.439 232.025 210.783 231.759C211.127 231.494 211.537 231.361 212.013 231.361C212.489 231.361 212.899 231.494 213.243 231.759C213.587 232.025 213.849 232.411 214.03 232.917C214.211 233.42 214.301 234.023 214.301 234.726C214.301 235.437 214.211 236.045 214.03 236.548C213.852 237.052 213.591 237.435 213.247 237.697C212.904 237.959 212.492 238.09 212.013 238.09ZM212.013 237.367C212.326 237.367 212.595 237.264 212.818 237.059C213.041 236.854 213.211 236.554 213.329 236.159C213.446 235.765 213.505 235.287 213.505 234.726C213.505 234.165 213.446 233.686 213.329 233.288C213.211 232.89 213.041 232.587 212.818 232.379C212.595 232.171 212.326 232.067 212.013 232.067C211.699 232.067 211.43 232.171 211.203 232.379C210.98 232.587 210.809 232.89 210.688 233.288C210.57 233.686 210.512 234.165 210.512 234.726C210.512 235.287 210.57 235.765 210.688 236.159C210.805 236.554 210.976 236.854 211.199 237.059C211.425 237.264 211.696 237.367 212.013 237.367ZM215.613 238.986H214.907L217.015 231.144H217.729L215.613 238.986ZM220.795 238H219.972V232.302H219.936L218.344 233.36V232.537L219.972 231.452H220.795V238ZM224.684 238.09C224.202 238.09 223.789 237.959 223.445 237.697C223.104 237.435 222.844 237.052 222.663 236.548C222.485 236.045 222.396 235.437 222.396 234.726C222.396 234.023 222.486 233.42 222.667 232.917C222.848 232.411 223.11 232.025 223.454 231.759C223.798 231.494 224.208 231.361 224.684 231.361C225.161 231.361 225.571 231.494 225.914 231.759C226.258 232.025 226.52 232.411 226.701 232.917C226.882 233.42 226.972 234.023 226.972 234.726C226.972 235.437 226.882 236.045 226.701 236.548C226.523 237.052 226.262 237.435 225.919 237.697C225.575 237.959 225.164 238.09 224.684 238.09ZM224.684 237.367C224.998 237.367 225.266 237.264 225.489 237.059C225.712 236.854 225.883 236.554 226 236.159C226.118 235.765 226.177 235.287 226.177 234.726C226.177 234.165 226.118 233.686 226 233.288C225.883 232.89 225.712 232.587 225.489 232.379C225.266 232.171 224.998 232.067 224.684 232.067C224.371 232.067 224.101 232.171 223.875 232.379C223.652 232.587 223.48 232.89 223.359 233.288C223.242 233.686 223.183 234.165 223.183 234.726C223.183 235.287 223.242 235.765 223.359 236.159C223.477 236.554 223.647 236.854 223.87 237.059C224.096 237.264 224.368 237.367 224.684 237.367ZM230.201 238.09C229.719 238.09 229.306 237.959 228.962 237.697C228.622 237.435 228.361 237.052 228.18 236.548C228.002 236.045 227.913 235.437 227.913 234.726C227.913 234.023 228.004 233.42 228.184 232.917C228.365 232.411 228.628 232.025 228.971 231.759C229.315 231.494 229.725 231.361 230.201 231.361C230.678 231.361 231.088 231.494 231.431 231.759C231.775 232.025 232.037 232.411 232.218 232.917C232.399 233.42 232.49 234.023 232.49 234.726C232.49 235.437 232.399 236.045 232.218 236.548C232.04 237.052 231.78 237.435 231.436 237.697C231.092 237.959 230.681 238.09 230.201 238.09ZM230.201 237.367C230.515 237.367 230.783 237.264 231.006 237.059C231.229 236.854 231.4 236.554 231.517 236.159C231.635 235.765 231.694 235.287 231.694 234.726C231.694 234.165 231.635 233.686 231.517 233.288C231.4 232.89 231.229 232.587 231.006 232.379C230.783 232.171 230.515 232.067 230.201 232.067C229.888 232.067 229.618 232.171 229.392 232.379C229.169 232.587 228.997 232.89 228.876 233.288C228.759 233.686 228.7 234.165 228.7 234.726C228.7 235.287 228.759 235.765 228.876 236.159C228.994 236.554 229.164 236.854 229.387 237.059C229.613 237.264 229.885 237.367 230.201 237.367ZM235.718 238.09C235.236 238.09 234.823 237.959 234.479 237.697C234.139 237.435 233.878 237.052 233.697 236.548C233.519 236.045 233.43 235.437 233.43 234.726C233.43 234.023 233.521 233.42 233.702 232.917C233.882 232.411 234.145 232.025 234.488 231.759C234.832 231.494 235.242 231.361 235.718 231.361C236.195 231.361 236.605 231.494 236.949 231.759C237.292 232.025 237.555 232.411 237.735 232.917C237.916 233.42 238.007 234.023 238.007 234.726C238.007 235.437 237.916 236.045 237.735 236.548C237.558 237.052 237.297 237.435 236.953 237.697C236.609 237.959 236.198 238.09 235.718 238.09ZM235.718 237.367C236.032 237.367 236.3 237.264 236.523 237.059C236.747 236.854 236.917 236.554 237.034 236.159C237.152 235.765 237.211 235.287 237.211 234.726C237.211 234.165 237.152 233.686 237.034 233.288C236.917 232.89 236.747 232.587 236.523 232.379C236.3 232.171 236.032 232.067 235.718 232.067C235.405 232.067 235.135 232.171 234.909 232.379C234.686 232.587 234.514 232.89 234.393 233.288C234.276 233.686 234.217 234.165 234.217 234.726C234.217 235.287 234.276 235.765 234.393 236.159C234.511 236.554 234.681 236.854 234.904 237.059C235.131 237.264 235.402 237.367 235.718 237.367Z" fill="#A0A0A0"/>
<rect x="80.7998" y="56.1533" width="43.6615" height="43.6615" rx="7.93846" fill="#EAEAEA"/>
<path d="M113.789 86.1157C111.93 84.8414 111.391 82.1508 111.386 82.1233C111.333 81.854 111.071 81.6745 110.797 81.7269C110.522 81.7792 110.344 82.0386 110.396 82.3104C110.409 82.3752 110.568 83.1682 111.003 84.1332C103.467 87.5844 96.1671 84.9212 94.3208 84.1307C94.7565 83.1657 94.9127 82.3727 94.9253 82.3104C94.9782 82.0411 94.7968 81.7792 94.5248 81.7269C94.2528 81.677 93.9883 81.8515 93.9354 82.1233C93.9303 82.1508 93.3888 84.8414 91.5323 86.1157C91.3031 86.2728 91.2477 86.5845 91.4039 86.8089C91.5021 86.9486 91.6583 87.0234 91.8195 87.0234C91.9177 87.0234 92.0185 86.9934 92.1067 86.9336C92.8674 86.4124 93.4341 85.7142 93.8548 85.021C95.0462 85.5496 98.4921 86.8862 102.893 86.8862C105.505 86.8862 108.454 86.4124 111.469 85.021C111.89 85.7167 112.457 86.4124 113.218 86.9336C113.306 86.9934 113.404 87.0234 113.505 87.0234C113.663 87.0234 113.822 86.9486 113.92 86.8089C114.079 86.582 114.021 86.2728 113.792 86.1157H113.789Z" fill="#757575"/>
<path d="M105.016 87.9213C102.243 88.6071 99.9252 87.9338 99.9025 87.9288C99.6355 87.849 99.3559 87.9986 99.2753 88.2605C99.1947 88.5223 99.3433 88.8016 99.6103 88.8839C99.6783 88.9038 100.794 89.233 102.424 89.233C103.258 89.233 104.227 89.1482 105.26 88.8914C105.53 88.824 105.693 88.5547 105.628 88.2854C105.56 88.0186 105.288 87.854 105.016 87.9213Z" fill="#757575"/>
<path d="M86.8975 83.5678C88.073 83.5678 89.026 82.6244 89.026 81.4606C89.026 80.2969 88.073 79.3535 86.8975 79.3535C85.722 79.3535 84.769 80.2969 84.769 81.4606C84.769 82.6244 85.722 83.5678 86.8975 83.5678Z" fill="#D6D6D6"/>
<path d="M118.364 83.5678C119.539 83.5678 120.492 82.6244 120.492 81.4606C120.492 80.2969 119.539 79.3535 118.364 79.3535C117.188 79.3535 116.235 80.2969 116.235 81.4606C116.235 82.6244 117.188 83.5678 118.364 83.5678Z" fill="#D6D6D6"/>
<path d="M92.91 68.4408C92.91 68.4408 92.0485 77.2957 94.2525 79.6198C94.2525 79.6198 94.4389 79.8791 94.8344 80.1385C96.1216 80.9838 97.8546 80.5549 98.6984 79.2757C98.9402 78.9091 99.1745 78.4503 99.371 77.8767C99.5674 77.3032 99.6732 76.7396 99.7286 76.1511C99.9125 74.241 99.8974 68.7051 98.5901 66.8398C98.5901 66.8398 95.7639 66.9072 92.91 68.4383V68.4408Z" fill="#F5F5F5"/>
<path d="M112.409 68.4408C112.409 68.4408 113.27 77.2957 111.066 79.6198C111.066 79.6198 110.88 79.8791 110.484 80.1385C109.197 80.9838 107.464 80.5549 106.62 79.2757C106.379 78.9091 106.144 78.4503 105.948 77.8767C105.751 77.3032 105.646 76.7396 105.59 76.1511C105.406 74.241 105.422 68.7051 106.729 66.8398C106.729 66.8398 109.555 66.9072 112.409 68.4383V68.4408Z" fill="#F5F5F5"/>
<path d="M94.0158 66.4584C93.9477 66.4584 93.8823 66.4459 93.8168 66.416C93.5624 66.3063 93.444 66.0145 93.5548 65.7627C93.5825 65.6979 94.2626 64.1692 95.8546 64.0994C96.051 64.082 97.2954 64.0097 98.1392 64.9448C98.3231 65.1493 98.3054 65.4659 98.0989 65.648C97.8923 65.8325 97.5724 65.8151 97.3886 65.6081C96.8445 65.0046 95.9578 65.0894 95.9478 65.0919C95.9352 65.0919 95.92 65.0919 95.91 65.0944C94.9503 65.1293 94.4994 66.1143 94.4818 66.1567C94.3986 66.3437 94.2122 66.4559 94.0183 66.4559L94.0158 66.4584Z" fill="#757575"/>
<path d="M111.59 66.4581C111.396 66.4581 111.21 66.3458 111.127 66.1563C111.107 66.1114 110.656 65.1289 109.699 65.094C109.684 65.094 109.671 65.094 109.656 65.0915C109.651 65.0915 108.764 65.0043 108.218 65.6102C108.031 65.8172 107.714 65.8346 107.507 65.6501C107.301 65.4656 107.281 65.1514 107.467 64.9469C108.311 64.0093 109.553 64.0816 109.752 64.1016C111.344 64.1689 112.024 65.7 112.051 65.7648C112.162 66.0192 112.041 66.3109 111.787 66.4207C111.721 66.4481 111.656 66.4606 111.588 66.4606L111.59 66.4581Z" fill="#757575"/>
<path d="M100.588 66.4414C95.6054 65.7033 91.157 68.8727 90.9706 69.0074C90.7464 69.1694 90.6986 69.4811 90.8623 69.7031C90.9605 69.8377 91.1142 69.9076 91.2704 69.9076C91.3736 69.9076 91.4769 69.8776 91.5676 69.8128C91.5827 69.8028 92.0638 69.4612 92.8674 69.0348C92.754 70.6158 92.5323 75.0021 93.3308 77.775C94.55 77.2688 95.6709 76.1467 96.5752 74.6031C96.4971 74.4585 96.419 74.3113 96.346 74.1542C95.6482 72.668 95.5122 71.2641 96.0462 71.0172C96.4392 70.8377 97.084 71.3339 97.6734 72.2017C98.1822 70.7654 98.5298 69.1395 98.6633 67.4014C98.6633 67.3815 98.6633 67.3591 98.6684 67.3391C99.2503 67.3142 99.8447 67.3391 100.444 67.4264C100.721 67.4688 100.976 67.2793 101.016 67.0074C101.056 66.7356 100.867 66.4813 100.593 66.4414H100.588Z" fill="#757575"/>
<path d="M114.351 69.007C114.165 68.8723 109.716 65.7004 104.734 66.441C104.459 66.4809 104.268 66.7353 104.311 67.0071C104.351 67.2789 104.608 67.4684 104.882 67.426C105.411 67.3487 105.938 67.3213 106.452 67.3313C105.422 69.5332 105.419 74.3858 105.59 76.1513C105.628 76.5428 105.694 76.9318 105.787 77.3158C105.787 77.3158 105.787 77.3158 105.789 77.3158C105.792 77.3158 105.817 77.4555 105.82 77.4555C106.311 77.4879 106.762 77.1413 107.112 76.7972C107.847 76.074 108.535 75.1389 109.137 74.0442C108.311 72.6253 108.051 71.2388 108.56 70.9496C108.908 70.7501 109.527 71.1166 110.147 71.8223C110.525 70.8124 110.832 69.7227 111.051 68.5706C111.064 68.5083 111.071 68.4459 111.084 68.3861C112.686 69.0544 113.731 69.7975 113.752 69.8124C113.842 69.8773 113.945 69.9072 114.049 69.9072C114.205 69.9072 114.359 69.8374 114.457 69.7027C114.621 69.4808 114.573 69.1691 114.349 69.007H114.351Z" fill="#757575"/>
<rect x="137.692" y="56.1533" width="43.6615" height="43.6615" rx="7.93846" fill="#EAEAEA"/>
<path d="M169.958 68.0748C169.958 68.0748 171.266 75.4563 169.306 77.9251C169.306 77.9251 168.283 79.7133 166.153 78.9899C166.153 78.9899 163.512 78.3478 164.107 72.1148C164.107 72.1148 164.369 69.0741 164.557 68.5224C164.557 68.5224 166.474 67.2925 169.956 68.077L169.958 68.0748Z" fill="#F5F5F5"/>
<path d="M148.729 68.0748C148.729 68.0748 147.421 75.4563 149.381 77.9251C149.381 77.9251 150.404 79.7133 152.534 78.9899C152.534 78.9899 155.175 78.3478 154.58 72.1148C154.58 72.1148 154.317 69.0741 154.129 68.5224C154.129 68.5224 152.212 67.2925 148.731 68.077L148.729 68.0748Z" fill="#F5F5F5"/>
<path d="M153.706 66.3929C153.53 66.3929 153.362 66.2889 153.29 66.1193C152.891 65.1901 151.454 65.0341 151.441 65.0341C150.173 64.8668 149.139 65.6694 149.13 65.6762C148.933 65.8299 148.65 65.796 148.494 65.6016C148.34 65.4049 148.374 65.12 148.568 64.9663C148.623 64.9234 149.919 63.9218 151.542 64.1366C151.608 64.1434 153.512 64.3401 154.12 65.7644C154.218 65.995 154.111 66.2595 153.883 66.3567C153.824 66.3816 153.765 66.3929 153.704 66.3929H153.706Z" fill="#757575"/>
<path d="M164.349 65.773C164.227 65.773 164.105 65.7233 164.016 65.6261C163.846 65.443 163.86 65.1559 164.043 64.9886C164.116 64.9207 165.843 63.345 167.543 63.4354C168.206 63.4693 168.774 63.7474 169.227 64.2583C169.392 64.446 169.374 64.7308 169.188 64.8959C169 65.0609 168.715 65.0428 168.55 64.8574C168.26 64.5296 167.916 64.3601 167.5 64.3397C166.187 64.2787 164.673 65.6419 164.657 65.6555C164.571 65.7346 164.46 65.7753 164.351 65.7753L164.349 65.773Z" fill="#757575"/>
<path d="M160.472 79.5438C160.311 79.5438 160.157 79.4579 160.073 79.3087C159.953 79.0894 160.032 78.8158 160.252 78.696C161.461 78.0359 161.78 77.4661 161.836 77.1067C161.895 76.7314 161.683 76.4623 161.633 76.4058C160.558 75.5219 158.627 76.6296 158.606 76.6409C158.389 76.7675 158.113 76.6929 157.986 76.4782C157.86 76.2634 157.932 75.9853 158.147 75.861C158.249 75.7999 160.678 74.405 162.237 75.7344C162.246 75.7412 162.255 75.7502 162.262 75.757C162.484 75.9763 162.83 76.5302 162.733 77.222C162.617 78.0472 161.927 78.8113 160.684 79.4895C160.616 79.528 160.542 79.5461 160.467 79.5461L160.472 79.5438Z" fill="#757575"/>
<path d="M155.784 69.0606C151.902 65.7463 147.013 68.0455 146.807 68.1472C146.583 68.2558 146.488 68.5248 146.597 68.7509C146.705 68.9769 146.977 69.0696 147.201 68.9611C147.231 68.9476 149.177 68.0365 151.479 68.2264C151.323 68.8323 151.178 69.5625 151.083 70.4058L152.532 71.6899C152.735 71.8708 152.593 72.1805 152.305 72.1805H150.979C150.97 73.485 151.101 74.9635 151.481 76.5845C151.481 76.5845 151.814 77.7217 152.493 79.0013C152.507 78.9968 152.518 78.9945 152.532 78.99C152.532 78.99 155.173 78.3479 154.578 72.1149C154.578 72.1149 154.406 70.1277 154.24 69.0742C154.564 69.2618 154.883 69.4834 155.193 69.7479C155.279 69.8202 155.383 69.8564 155.488 69.8564C155.614 69.8564 155.743 69.8021 155.832 69.6981C155.995 69.5082 155.972 69.2234 155.782 69.0606H155.784Z" fill="#757575"/>
<path d="M171.931 68.1628C171.723 68.0633 166.784 65.7437 162.905 69.0581C162.715 69.2208 162.692 69.5057 162.855 69.6956C162.946 69.7996 163.072 69.8539 163.199 69.8539C163.303 69.8539 163.407 69.8177 163.493 69.7453C164.636 68.7709 165.904 68.3595 167.092 68.2419C166.997 68.841 166.904 69.5328 166.832 70.2857L168.414 71.6851C168.618 71.866 168.475 72.1757 168.188 72.1757H166.71C166.687 72.8765 166.687 73.6045 166.728 74.3393C166.796 75.6008 167.126 76.8442 167.742 77.9475C167.914 78.2572 168.115 78.5647 168.342 78.8405C168.991 78.4743 169.308 77.9204 169.308 77.9204C170.994 75.7952 170.261 70.037 170.023 68.4703C170.931 68.6896 171.524 68.9654 171.54 68.9744C171.764 69.0807 172.036 68.988 172.144 68.7642C172.253 68.5381 172.158 68.269 171.934 68.1605L171.931 68.1628Z" fill="#757575"/>
<path d="M144.591 79.5406C145.844 79.5406 146.859 79.1509 146.859 78.6702C146.859 78.1895 145.844 77.7998 144.591 77.7998C143.339 77.7998 142.323 78.1895 142.323 78.6702C142.323 79.1509 143.339 79.5406 144.591 79.5406Z" fill="#D6D6D6"/>
<path d="M174.455 79.5406C175.708 79.5406 176.723 79.1509 176.723 78.6702C176.723 78.1895 175.708 77.7998 174.455 77.7998C173.203 77.7998 172.188 78.1895 172.188 78.6702C172.188 79.1509 173.203 79.5406 174.455 79.5406Z" fill="#D6D6D6"/>
<path d="M169.634 80.1919C169.442 80.0336 169.156 80.0585 168.996 80.2507C166.941 82.7262 163.625 83.7345 163.582 83.7481C158.38 85.4143 154.27 83.6011 152.837 82.8121C153.084 82.3035 153.165 81.7202 153.043 81.1504C152.907 80.5242 152.556 80.0178 152.027 79.6855C151.816 79.5543 151.535 79.6176 151.402 79.8279C151.268 80.0404 151.334 80.3185 151.545 80.4519C151.873 80.6576 152.072 80.947 152.158 81.3426C152.316 82.0774 151.947 82.846 151.259 83.2123C150.438 83.6509 149.745 83.2304 149.711 83.2078C149.503 83.0744 149.224 83.1309 149.086 83.3389C148.948 83.5469 149.007 83.8272 149.218 83.9651C149.249 83.9855 149.763 84.3156 150.494 84.3156C150.85 84.3156 151.257 84.2387 151.685 84.0081C151.812 83.9403 151.932 83.8634 152.042 83.7775C152.194 86.9336 153.38 88.8756 153.38 88.8756C153.432 88.9705 153.484 89.061 153.539 89.1514C156.146 93.465 162.289 93.6617 165.424 89.7143C167.525 87.0715 167.753 83.8476 167.755 82.6177C168.43 82.1249 169.1 81.5325 169.688 80.8272C169.849 80.635 169.822 80.3501 169.63 80.1896L169.634 80.1919Z" fill="#757575"/>
<path d="M154.476 88.664C154.476 88.664 156.904 86.6632 158.48 88.9194C158.48 88.9194 158.31 87.667 160.397 87.8456C160.397 87.8456 162.527 87.9835 162.484 91.1734C162.484 91.1734 159.586 92.7063 156.562 91.1734C156.562 91.1734 154.901 90.3234 154.476 88.6617V88.664Z" fill="#F5F5F5"/>
<rect x="194.584" y="56.1533" width="43.6615" height="43.6615" rx="7.93846" fill="#EAEAEA"/>
<path d="M208.486 80.1693C210.607 80.1693 212.327 76.9757 212.327 73.0363C212.327 69.0969 210.607 65.9033 208.486 65.9033C206.365 65.9033 204.645 69.0969 204.645 73.0363C204.645 76.9757 206.365 80.1693 208.486 80.1693Z" fill="#F5F5F5"/>
<path d="M223.174 80.1693C225.296 80.1693 227.015 76.9757 227.015 73.0363C227.015 69.0969 225.296 65.9033 223.174 65.9033C221.053 65.9033 219.333 69.0969 219.333 73.0363C219.333 76.9757 221.053 80.1693 223.174 80.1693Z" fill="#F5F5F5"/>
<path d="M205.171 65.9891L204.482 65.3137C204.602 65.1874 207.48 62.2234 209.649 63.9921L209.046 64.7501C207.557 63.5378 205.193 65.9648 205.171 65.9891Z" fill="#757575"/>
<path d="M226.235 65.9881C226.211 65.9638 223.849 63.5368 222.36 64.7491L221.757 63.9911C223.926 62.2249 226.804 65.1864 226.926 65.3127L226.237 65.9881H226.235Z" fill="#757575"/>
<path d="M204.162 79.6819C202.666 79.0308 201.936 76.7349 201.904 76.6377L202.819 76.3438C202.992 76.8904 203.636 78.3942 204.542 78.7878L204.162 79.6794V79.6819Z" fill="#757575"/>
<path d="M203.442 80.6946C201.972 80.0532 201.869 79.1179 201.861 79.0134L202.58 78.9551C202.582 78.9794 202.666 79.5624 203.728 80.0265L203.442 80.697V80.6946Z" fill="#757575"/>
<path d="M215.303 83.663C215.197 83.6071 212.733 82.2806 212.226 80.4293C212.036 79.7394 212.132 79.0712 212.512 78.4396C213.021 77.5917 213.972 77.1884 214.875 77.4386C215.812 77.6962 216.768 78.493 217.715 79.8074L216.939 80.3783C215.925 78.9692 215.12 78.5125 214.626 78.374C214.138 78.2404 213.619 78.4687 213.333 78.9425C213.093 79.3409 213.035 79.7394 213.151 80.1669C213.545 81.6125 215.728 82.7908 215.75 82.8005L215.303 83.6606V83.663Z" fill="#757575"/>
<path fill-rule="evenodd" clip-rule="evenodd" d="M222.795 74.574C222.795 74.9919 223.129 75.3296 223.542 75.3296V75.3271H225.002C224.635 77.3441 223.793 78.9571 222.723 79.7083C223.696 79.6881 224.902 79.794 226.304 80.1715L226.057 81.1111C222.546 80.1646 220.374 81.0777 220.352 81.0874L219.968 80.1958C220.019 80.1728 220.699 79.8804 221.893 79.7586C220.403 78.778 219.336 76.1389 219.336 73.0337C219.336 72.5211 219.365 72.023 219.42 71.542H225.122C225.178 72.023 225.206 72.5211 225.206 73.0337C225.206 73.3009 225.194 73.5609 225.18 73.8184H223.542C223.129 73.8184 222.795 74.1561 222.795 74.574ZM226.057 81.1111L226.057 81.1117H226.059C226.058 81.1115 226.058 81.1113 226.057 81.1111Z" fill="#757575"/>
<path fill-rule="evenodd" clip-rule="evenodd" d="M208.106 74.574C208.106 74.9919 208.44 75.3296 208.853 75.3296V75.3271H210.314C209.946 77.3441 209.105 78.9571 208.035 79.7083C209.008 79.6878 210.216 79.7936 211.62 80.1715L211.373 81.1117C207.859 80.1642 205.687 81.0777 205.666 81.0874L205.282 80.1958C205.333 80.1728 206.012 79.8808 207.205 79.7589C205.715 78.7784 204.647 76.1392 204.647 73.0337C204.647 72.5211 204.676 72.023 204.732 71.542H210.434C210.489 72.023 210.518 72.5211 210.518 73.0337C210.518 73.3009 210.506 73.5609 210.492 73.8184H208.853C208.44 73.8184 208.106 74.1561 208.106 74.574Z" fill="#757575"/>
<path d="M218.714 90.7617C215.13 90.7617 212.454 89.5275 212.339 89.4741L212.742 88.5922C212.769 88.6043 215.5 89.8579 218.988 89.7875C223.633 89.7 227.392 87.4503 230.162 83.0967L230.969 83.6214C227.279 89.4206 222.406 90.7034 218.966 90.7593C218.882 90.7593 218.798 90.7593 218.714 90.7593V90.7617Z" fill="#757575"/>
<path d="M223.612 92.5374C223.083 92.5374 222.718 92.4767 222.672 92.4694L222.833 91.5122C222.862 91.517 225.728 91.9738 226.96 90.0156L227.772 90.538C226.691 92.2556 224.765 92.5374 223.614 92.5374H223.612Z" fill="#757575"/>
<path d="M207.169 81.9531H204.542C203.884 81.9531 203.35 82.4926 203.35 83.1582C203.35 83.8237 203.884 84.3632 204.542 84.3632H207.169C207.827 84.3632 208.361 83.8237 208.361 83.1582C208.361 82.4926 207.827 81.9531 207.169 81.9531Z" fill="#D6D6D6"/>
<path d="M226.806 81.9531H224.178C223.52 81.9531 222.986 82.4926 222.986 83.1582C222.986 83.8237 223.52 84.3632 224.178 84.3632H226.806C227.464 84.3632 227.997 83.8237 227.997 83.1582C227.997 82.4926 227.464 81.9531 226.806 81.9531Z" fill="#D6D6D6"/>
<rect x="23.9077" y="56.1533" width="43.6615" height="43.6615" rx="7.93846" fill="#FFDC4C"/>
<g clip-path="url(#clip0_411_920)">
<path d="M45.0501 84.3712C45.0312 84.3712 45.0122 84.3712 44.9932 84.3689C44.9221 84.3595 43.2385 84.1516 42.3896 82.9487C41.92 82.283 41.8015 81.4655 42.0339 80.5172C42.2828 79.5082 43.1318 78.7374 44.1443 78.5995C45.0169 78.4804 46.2595 78.742 47.2151 80.6644C47.3313 80.8956 47.2341 81.1759 46.9969 81.2903C46.7622 81.4025 46.4776 81.309 46.3614 81.0754C45.7947 79.9356 45.0904 79.4147 44.2723 79.5268C43.6416 79.6133 43.1104 80.1014 42.9539 80.7391C42.7879 81.4165 42.8591 81.9817 43.165 82.4162C43.7625 83.2641 45.0881 83.4392 45.0999 83.4416C45.3608 83.4719 45.5457 83.7032 45.5149 83.9601C45.4864 84.1984 45.2825 84.3712 45.0454 84.3712H45.0501Z" fill="black"/>
<path d="M41.1987 85.2139C41.1987 85.2139 45.4836 87.1176 52.0141 82.8945C52.0141 82.8945 54.8288 86.7649 52.1422 90.4834C50.7194 92.4548 47.9213 92.992 45.6164 92.1605C43.717 91.4761 41.692 89.6752 41.1987 85.2116V85.2139Z" fill="black"/>
<path d="M46.5127 90.7266C46.5127 89.853 46.8067 88.3091 49.0357 88.9841C49.0357 88.9841 48.9764 86.7745 51.1177 87.1319C51.5113 87.1973 51.8362 87.4776 51.9453 87.856C52.1729 88.6548 52.1753 90.1146 50.7454 91.1003C50.7454 91.1003 48.7512 92.5835 47.0628 91.6492C46.7261 91.4624 46.5127 91.1097 46.5127 90.7289V90.7266Z" fill="white"/>
<path d="M32.9705 80.3135H30.3763C29.7268 80.3135 29.2002 80.8322 29.2002 81.472C29.2002 82.1119 29.7268 82.6305 30.3763 82.6305H32.9705C33.6201 82.6305 34.1467 82.1119 34.1467 81.472C34.1467 80.8322 33.6201 80.3135 32.9705 80.3135Z" fill="#F77872"/>
<path d="M61.1009 80.3135H58.5067C57.8571 80.3135 57.3306 80.8322 57.3306 81.472C57.3306 82.1119 57.8571 82.6305 58.5067 82.6305H61.1009C61.7505 82.6305 62.2771 82.1119 62.2771 81.472C62.2771 80.8322 61.7505 80.3135 61.1009 80.3135Z" fill="#F77872"/>
<path d="M34.4742 77.5195C34.4742 77.5195 33.4924 72.6822 34.92 68.1975C34.92 68.1975 35.1476 67.5225 35.6147 66.7937C36.8573 64.848 39.9281 64.6355 40.9454 66.7026C41.2252 67.2726 41.4196 68.1088 41.5145 69.1388C41.7113 71.2947 41.4172 73.481 40.5565 75.4734C40.0775 76.5829 39.3851 77.7274 38.4034 78.4865C38.4034 78.4865 37.858 77.5639 34.4765 77.5195H34.4742Z" fill="white"/>
<path d="M39.207 79.9663C39.0102 79.9663 38.8252 79.8425 38.7565 79.6487C38.6379 79.3006 38.2561 78.9643 38.1186 78.8638L38.0996 78.8498C36.7243 77.7333 34.5546 77.9833 34.5332 77.9856L34.4739 77.9903C34.4739 77.9903 33.7578 77.9973 33.229 78.2846C32.999 78.4084 32.7121 78.3266 32.584 78.1001C32.4584 77.8735 32.5414 77.5909 32.769 77.4647C33.4472 77.0957 34.2676 77.0583 34.4408 77.056C34.7395 77.0233 37.0752 76.8154 38.6924 78.1234C38.8063 78.2075 39.4252 78.691 39.6528 79.352C39.7358 79.5973 39.603 79.8612 39.354 79.9453C39.3042 79.9617 39.2521 79.971 39.2023 79.971L39.207 79.9663Z" fill="black"/>
<path d="M37.2672 73.3209C36.6578 72.3936 36.5321 71.4056 36.9874 71.116C37.3454 70.8871 37.9572 71.1604 38.5003 71.7396C38.7516 71.1557 38.9769 70.5297 39.1666 69.8687C39.6148 68.2991 39.7902 66.7831 39.7191 65.5031C38.3746 64.8865 36.5179 65.3864 35.6168 66.7948C35.152 67.5236 34.922 68.1986 34.922 68.1986C33.983 71.1487 34.0849 74.2506 34.2675 76.0281C35.3085 76.0818 36.4918 75.1568 37.4925 73.6293C37.4142 73.5311 37.3383 73.4284 37.2672 73.3209Z" fill="black"/>
<path d="M41.5736 66.2478C41.3673 66.2478 41.1776 66.1147 41.1183 65.9091C40.4852 63.7369 39.2497 63.7369 39.2331 63.7392C39.1928 63.7392 39.1525 63.7392 39.1146 63.7299C38.0404 63.5196 36.914 64.5661 36.9022 64.5754C36.7125 64.7529 36.4137 64.7483 36.2311 64.5614C36.0509 64.3745 36.0556 64.0802 36.243 63.9027C36.3022 63.8467 37.7037 62.5316 39.2521 62.8049C39.622 62.8142 41.2606 63.0128 42.0289 65.6499C42.1024 65.8974 41.9554 66.1567 41.704 66.2268C41.6613 66.2385 41.6163 66.2455 41.5736 66.2455V66.2478Z" fill="black"/>
<path d="M55.6967 77.8163C55.6967 77.8163 57.0839 73.077 56.0406 68.4919C56.0406 68.4919 55.8698 67.7982 55.4667 67.0344C54.3925 64.993 51.3502 64.5305 50.1622 66.5065C49.8349 67.0531 49.5694 67.8706 49.3891 68.8867C49.0121 71.0192 49.1188 73.2218 49.8089 75.2773C50.193 76.4218 50.7858 77.6177 51.6988 78.4563C51.6988 78.4563 52.3224 77.5804 55.6944 77.8139L55.6967 77.8163Z" fill="white"/>
<path d="M50.8142 79.8555C50.7146 79.8555 50.615 79.8251 50.532 79.762C50.3234 79.6056 50.2783 79.3229 50.4348 79.1174L50.4514 79.0964C51.1723 78.1737 52.2156 77.5548 53.3823 77.3562C54.134 77.2278 54.9379 77.2301 55.7654 77.3562L55.7891 77.3609C55.8223 77.3679 56.5835 77.5267 57.3281 77.8654C57.5652 77.9729 57.6696 78.2508 57.5605 78.4844C57.4514 78.718 57.1692 78.8207 56.9321 78.7133C56.3298 78.44 55.6967 78.2975 55.6066 78.2765C54.8833 78.1667 54.1885 78.1667 53.5412 78.2765C52.6093 78.433 51.7769 78.9282 51.1984 79.6686C51.1035 79.7901 50.9565 79.8555 50.8095 79.8555H50.8142Z" fill="black"/>
<path d="M49.3966 66.2474C49.3539 66.2474 49.3089 66.2404 49.2662 66.2287C49.0148 66.1587 48.8678 65.8994 48.9413 65.6518C49.7096 63.0147 51.3482 62.8162 51.7181 62.8069C53.2642 62.5336 54.6679 63.8486 54.7272 63.9047C54.9146 64.0845 54.9217 64.3788 54.7391 64.5657C54.5565 64.7502 54.2577 64.7572 54.068 64.5774C54.0514 64.561 52.9274 63.5216 51.8556 63.7318C51.8153 63.7388 51.775 63.7435 51.7371 63.7412C51.6683 63.7412 50.4779 63.7715 49.8543 65.9111C49.795 66.1166 49.6053 66.2498 49.399 66.2498L49.3966 66.2474Z" fill="black"/>
<path d="M52.1493 71.3234C52.4315 71.1038 52.9555 71.2557 53.5318 71.6667C53.6835 70.8843 53.7807 70.0457 53.8116 69.1722C53.8614 67.8174 53.7476 66.5351 53.5057 65.4093C52.2774 65.0122 50.8807 65.3135 50.1622 66.5071C49.8349 67.0536 49.5694 67.8711 49.3891 68.8872C49.0121 71.0197 49.1188 73.2224 49.8089 75.2778C49.9843 75.8057 50.2096 76.3429 50.4847 76.8521C51.4261 76.5205 52.2726 75.4507 52.8797 73.9348C52.0307 72.8206 51.7035 71.6714 52.1493 71.3234Z" fill="black"/>
</g>
<rect x="61.6152" y="120.984" width="138.923" height="17.2" rx="8.6" fill="#FFEDA5"/>
<path d="M84.219 126.9H86.3942V125.825H87.0493V129.075H83.5724V125.825H84.219V126.9ZM86.3942 128.538V127.412H84.219V128.538H86.3942ZM89.0901 127.127H90.2155V127.681H89.0901V129.369H88.4351V125.506H89.0901V127.127ZM89.0901 131.528H84.9917V132.351H89.3673V132.888H84.345V131.024H88.4351V130.251H84.3282V129.722H89.0901V131.528ZM96.5228 127.152H97.6565V127.706H96.5228V129.445H95.8677V125.506H96.5228V127.152ZM96.5228 131.528H92.4495V132.359H96.8167V132.888H91.8028V131.041H95.8677V130.293H91.786V129.772H96.5228V131.528ZM94.3895 127.698H91.6685V128.622C92.3711 128.622 92.9828 128.606 93.5035 128.576C94.0242 128.542 94.5659 128.482 95.1286 128.395L95.1874 128.916C94.6163 129.008 94.062 129.071 93.5245 129.105C92.987 129.136 92.3459 129.151 91.6013 129.151H91.0218V127.211H93.7429V126.388H91.005V125.876H94.3895V127.698ZM103.897 128.588H105.148V129.134H103.897V132.972H103.242V125.506H103.897V128.588ZM102.519 127.253H98.0765V126.707H99.9997V125.598H100.655V126.707H102.519V127.253ZM100.336 127.874C100.686 127.874 100.999 127.947 101.276 128.093C101.553 128.238 101.77 128.441 101.927 128.702C102.084 128.962 102.164 129.257 102.167 129.588C102.164 129.918 102.084 130.213 101.927 130.474C101.77 130.734 101.553 130.937 101.276 131.083C100.999 131.228 100.686 131.301 100.336 131.301C99.9829 131.301 99.6666 131.228 99.3866 131.083C99.1095 130.937 98.8925 130.734 98.7357 130.474C98.579 130.213 98.502 129.918 98.5048 129.588C98.502 129.257 98.579 128.962 98.7357 128.702C98.8925 128.441 99.1095 128.238 99.3866 128.093C99.6666 127.947 99.9829 127.874 100.336 127.874ZM100.336 128.429C100.106 128.429 99.8989 128.479 99.7142 128.58C99.5322 128.678 99.3894 128.815 99.2858 128.991C99.1823 129.168 99.1319 129.367 99.1347 129.588C99.1319 129.812 99.1823 130.012 99.2858 130.188C99.3894 130.362 99.5322 130.498 99.7142 130.596C99.8989 130.693 100.106 130.741 100.336 130.738C100.562 130.741 100.767 130.693 100.949 130.596C101.131 130.498 101.273 130.362 101.377 130.188C101.481 130.012 101.534 129.812 101.537 129.588C101.534 129.367 101.481 129.168 101.377 128.991C101.273 128.815 101.131 128.678 100.949 128.58C100.767 128.479 100.562 128.429 100.336 128.429ZM111.539 127.009V127.102C111.534 127.718 111.514 128.271 111.48 128.76C111.45 129.248 111.377 129.812 111.262 130.453L110.59 130.377C110.68 129.935 110.744 129.518 110.783 129.126C110.825 128.734 110.85 128.385 110.859 128.08C110.87 127.775 110.876 127.418 110.876 127.009V126.808H106.273V126.262H111.539V127.009ZM112.354 131.914H105.551V131.368H108.222V128.697H108.868V131.368H112.354V131.914ZM121.307 131.032H120.651V125.514H121.307V131.032ZM121.542 132.813H116.486V130.52H117.141V132.258H121.542V132.813ZM117.855 127.253C117.855 127.578 117.936 127.888 118.098 128.185C118.261 128.479 118.486 128.737 118.774 128.958C119.066 129.179 119.397 129.347 119.77 129.462L119.442 129.991C119.003 129.851 118.616 129.638 118.283 129.353C117.953 129.064 117.704 128.727 117.536 128.341C117.37 128.758 117.123 129.122 116.792 129.432C116.462 129.74 116.074 129.971 115.629 130.125L115.293 129.604C115.663 129.484 115.992 129.306 116.28 129.071C116.568 128.833 116.794 128.557 116.956 128.244C117.119 127.928 117.2 127.597 117.2 127.253V127.051H115.478V126.522H117.2V125.548H117.863V126.522H119.568V127.051H117.855V127.253ZM128.512 126.539C128.512 126.979 128.501 127.378 128.479 127.736C128.456 128.091 128.402 128.493 128.315 128.941H129.411V129.495H122.575V128.941H127.656C127.745 128.485 127.801 128.08 127.824 127.727C127.846 127.375 127.857 126.979 127.857 126.539V126.497H123.44V125.96H128.512V126.539ZM128.739 132.804H123.482V130.335H124.137V132.25H128.739V132.804ZM135.844 127.975H136.97V128.529H135.844V131.108H135.189V125.514H135.844V127.975ZM134.475 126.967H130.024V126.43H131.922V125.514H132.577V126.43H134.475V126.967ZM132.25 127.379C132.602 127.379 132.913 127.436 133.182 127.551C133.453 127.666 133.665 127.828 133.816 128.038C133.967 128.248 134.044 128.493 134.047 128.773C134.044 129.05 133.967 129.292 133.816 129.5C133.665 129.707 133.453 129.868 133.182 129.982C132.913 130.094 132.602 130.15 132.25 130.15C131.894 130.15 131.579 130.094 131.305 129.982C131.033 129.868 130.822 129.707 130.671 129.5C130.522 129.292 130.45 129.05 130.452 128.773C130.45 128.493 130.522 128.248 130.671 128.038C130.822 127.828 131.033 127.666 131.305 127.551C131.579 127.436 131.894 127.379 132.25 127.379ZM132.25 127.9C132.017 127.9 131.812 127.936 131.632 128.009C131.456 128.079 131.319 128.181 131.221 128.315C131.126 128.447 131.08 128.599 131.082 128.773C131.08 128.947 131.126 129.099 131.221 129.231C131.319 129.36 131.456 129.459 131.632 129.529C131.812 129.599 132.017 129.632 132.25 129.63C132.479 129.632 132.682 129.599 132.859 129.529C133.038 129.459 133.176 129.36 133.274 129.231C133.372 129.099 133.423 128.947 133.425 128.773C133.423 128.599 133.372 128.447 133.274 128.315C133.176 128.181 133.038 128.079 132.859 128.009C132.682 127.936 132.479 127.9 132.25 127.9ZM136.189 132.813H131.175V130.663H131.821V132.258H136.189V132.813ZM142.975 130.226C143.509 130.226 143.973 130.281 144.364 130.39C144.759 130.496 145.063 130.653 145.276 130.86C145.488 131.064 145.595 131.309 145.595 131.595C145.595 131.878 145.488 132.121 145.276 132.326C145.063 132.53 144.759 132.685 144.364 132.792C143.97 132.901 143.506 132.955 142.975 132.955C142.443 132.955 141.981 132.901 141.589 132.792C141.197 132.685 140.894 132.53 140.682 132.326C140.469 132.121 140.363 131.878 140.363 131.595C140.363 131.309 140.469 131.064 140.682 130.86C140.894 130.653 141.197 130.496 141.589 130.39C141.981 130.281 142.443 130.226 142.975 130.226ZM142.975 130.73C142.58 130.733 142.234 130.769 141.937 130.839C141.641 130.909 141.412 131.01 141.253 131.141C141.093 131.27 141.015 131.421 141.018 131.595C141.015 131.766 141.093 131.915 141.253 132.044C141.412 132.17 141.641 132.267 141.937 132.334C142.234 132.401 142.58 132.435 142.975 132.435C143.369 132.435 143.714 132.401 144.008 132.334C144.304 132.267 144.532 132.17 144.692 132.044C144.854 131.915 144.937 131.766 144.94 131.595C144.937 131.421 144.854 131.27 144.692 131.141C144.532 131.01 144.304 130.909 144.008 130.839C143.714 130.769 143.369 130.733 142.975 130.73ZM145.536 126.522C145.536 126.925 145.523 127.271 145.498 127.559C145.476 127.845 145.418 128.16 145.326 128.504L144.679 128.429C144.769 128.084 144.825 127.776 144.847 127.505C144.87 127.233 144.881 126.906 144.881 126.522V126.43H140.413V125.892H145.536V126.522ZM146.401 129.529H139.607V128.991H142.42V127.547H143.067V128.991H146.401V129.529ZM152.868 127.337H153.993V127.883H152.868V129.747H152.213V125.506H152.868V127.337ZM150.827 125.993C150.824 126.615 150.683 127.177 150.403 127.681C150.123 128.185 149.718 128.618 149.189 128.979C148.663 129.34 148.03 129.621 147.291 129.823L147.023 129.294C147.633 129.129 148.162 128.912 148.61 128.643C149.058 128.371 149.409 128.058 149.664 127.702C149.921 127.347 150.073 126.959 150.117 126.539H147.358V125.993H150.827ZM152.868 132.871H148.14V130.092H152.868V132.871ZM148.795 132.334H152.213V130.637H148.795V132.334ZM156.908 126.052C157.297 126.052 157.642 126.126 157.945 126.275C158.25 126.423 158.488 126.63 158.659 126.896C158.829 127.162 158.915 127.466 158.915 127.807C158.915 128.149 158.829 128.453 158.659 128.718C158.488 128.984 158.25 129.192 157.945 129.34C157.642 129.488 157.297 129.562 156.908 129.562C156.518 129.562 156.17 129.488 155.862 129.34C155.557 129.192 155.317 128.984 155.144 128.718C154.973 128.453 154.889 128.149 154.892 127.807C154.889 127.466 154.973 127.162 155.144 126.896C155.317 126.63 155.557 126.423 155.862 126.275C156.17 126.126 156.518 126.052 156.908 126.052ZM156.908 126.631C156.644 126.631 156.408 126.682 156.198 126.783C155.991 126.881 155.828 127.019 155.711 127.198C155.593 127.375 155.536 127.578 155.539 127.807C155.536 128.037 155.593 128.241 155.711 128.42C155.828 128.597 155.991 128.735 156.198 128.836C156.408 128.934 156.644 128.983 156.908 128.983C157.168 128.983 157.402 128.934 157.609 128.836C157.816 128.735 157.977 128.597 158.092 128.42C158.209 128.241 158.268 128.037 158.268 127.807C158.268 127.578 158.209 127.375 158.092 127.198C157.977 127.019 157.816 126.881 157.609 126.783C157.402 126.682 157.168 126.631 156.908 126.631ZM160.586 132.989H159.931V125.506H160.586V132.989ZM154.506 130.78C155.474 130.78 156.355 130.765 157.147 130.734C157.942 130.703 158.705 130.635 159.435 130.528L159.486 131.015C158.736 131.155 157.97 131.245 157.189 131.284C156.411 131.323 155.547 131.343 154.598 131.343L154.506 130.78ZM170.437 132.972H169.808V129.059H168.707V132.586H168.103V125.674H168.707V128.513H169.808V125.506H170.437V132.972ZM167.128 126.967H164.987V130.562C165.538 130.559 166.006 130.544 166.389 130.516C166.776 130.485 167.165 130.43 167.557 130.352L167.616 130.906C167.19 130.993 166.77 131.052 166.356 131.083C165.944 131.111 165.429 131.125 164.81 131.125H164.332V126.421H167.128V126.967ZM177.265 128.546H178.475V129.101H177.265V132.972H176.61V125.506H177.265V128.546ZM175.334 126.312C175.334 127.424 175.055 128.432 174.498 129.336C173.941 130.237 173.077 130.976 171.907 131.553L171.538 131.032C172.498 130.554 173.241 129.963 173.767 129.26C174.294 128.555 174.595 127.757 174.67 126.867H171.882V126.312H175.334Z" fill="#333333"/>
<mask id="path-65-inside-1_411_920" fill="white">
<path d="M12 248.185H250.154V282.431C250.154 293.476 241.2 302.431 230.154 302.431H32C20.9543 302.431 12 293.476 12 282.431V248.185Z"/>
</mask>
<path d="M12 247.523H250.154V248.846H12V247.523ZM250.154 302.431H12H250.154ZM12 302.431V248.185V302.431ZM250.154 248.185V302.431V248.185Z" fill="#EBEBEB" mask="url(#path-65-inside-1_411_920)"/>
<rect x="23.9077" y="261.415" width="214.338" height="27.7846" rx="5.29231" fill="black"/>
<path d="M121.014 272.428H122.358V273.245H121.014V275.25H120.032V270.309H121.014V272.428ZM118.264 271.705H115.122V274.165C116.066 274.162 116.826 274.139 117.401 274.098C117.977 274.056 118.544 273.975 119.102 273.855L119.215 274.651C118.609 274.775 117.992 274.859 117.365 274.904C116.738 274.949 115.911 274.971 114.884 274.971H114.151V270.899H118.264V271.705ZM116.052 276.79H120.032V275.736H121.014V279.426H115.081V275.736H116.052V276.79ZM120.032 278.63V277.566H116.052V278.63H120.032ZM125.803 272.015C125.803 272.408 125.891 272.783 126.066 273.142C126.242 273.497 126.497 273.812 126.831 274.087C127.165 274.36 127.563 274.568 128.025 274.713L127.56 275.478C127.04 275.312 126.588 275.064 126.206 274.733C125.827 274.403 125.534 274.013 125.327 273.565C125.124 274.079 124.822 274.527 124.423 274.909C124.023 275.288 123.549 275.574 123.002 275.767L122.495 274.982C122.967 274.827 123.377 274.599 123.725 274.299C124.077 273.996 124.345 273.648 124.531 273.255C124.721 272.863 124.817 272.453 124.821 272.025V271.767H122.784V270.971H127.798V271.767H125.803V272.015ZM129.844 272.604H131.188V273.41H129.844V275.871H128.862V270.309H129.844V272.604ZM126.857 276.098C127.491 276.098 128.039 276.167 128.501 276.305C128.962 276.439 129.315 276.635 129.56 276.894C129.805 277.149 129.927 277.455 129.927 277.814C129.927 278.176 129.803 278.487 129.555 278.749C129.31 279.011 128.957 279.211 128.495 279.349C128.037 279.487 127.491 279.554 126.857 279.55C126.216 279.554 125.661 279.487 125.193 279.349C124.728 279.211 124.369 279.011 124.118 278.749C123.87 278.487 123.746 278.176 123.746 277.814C123.746 277.455 123.87 277.149 124.118 276.894C124.369 276.635 124.728 276.439 125.193 276.305C125.661 276.167 126.216 276.098 126.857 276.098ZM126.857 276.873C126.182 276.873 125.656 276.956 125.281 277.121C124.909 277.283 124.724 277.514 124.728 277.814C124.724 278.12 124.909 278.358 125.281 278.527C125.656 278.692 126.182 278.775 126.857 278.775C127.525 278.775 128.044 278.692 128.413 278.527C128.781 278.362 128.966 278.124 128.966 277.814C128.966 277.514 128.781 277.283 128.413 277.121C128.044 276.956 127.525 276.873 126.857 276.873ZM138.675 272.501H140.018V273.317H138.675V275.715H137.693V270.309H138.675V272.501ZM132.721 272.18H135.15V270.837H136.121V275.178H131.759V270.837H132.721V272.18ZM135.15 274.403V272.956H132.721V274.403H135.15ZM138.747 276.987H133.754V278.661H138.912V279.437H132.772V276.201H138.747V276.987ZM147.929 279.571H146.936V270.309H147.929V279.571ZM145.169 271.302C145.169 272.735 144.826 274.01 144.14 275.126C143.458 276.239 142.357 277.159 140.838 277.886L140.321 277.09C141.537 276.511 142.459 275.807 143.086 274.976C143.717 274.146 144.08 273.183 144.177 272.087H140.765V271.302H145.169Z" fill="white"/>
</g>
<defs>
<filter id="filter0_d_411_920" x="0" y="0" width="262.154" height="314.431" filterUnits="userSpaceOnUse" color-interpolation-filters="sRGB">
<feFlood flood-opacity="0" result="BackgroundImageFix"/>
<feColorMatrix in="SourceAlpha" type="matrix" values="0 0 0 0 0 0 0 0 0 0 0 0 0 0 0 0 0 0 127 0" result="hardAlpha"/>
<feOffset/>
<feGaussianBlur stdDeviation="6"/>
<feComposite in2="hardAlpha" operator="out"/>
<feColorMatrix type="matrix" values="0 0 0 0 0 0 0 0 0 0 0 0 0 0 0 0 0 0 0.08 0"/>
<feBlend mode="normal" in2="BackgroundImageFix" result="effect1_dropShadow_411_920"/>
<feBlend mode="normal" in="SourceGraphic" in2="effect1_dropShadow_411_920" result="shape"/>
</filter>
<clipPath id="clip0_411_920">
<rect width="33.0769" height="29.7692" fill="white" transform="translate(29.2002 62.7695)"/>
</clipPath>
</defs>
</svg>
