<svg width="138" height="26" viewBox="0 0 138 26" fill="none" xmlns="http://www.w3.org/2000/svg">
<g clip-path="url(#clip0_413_882)">
<path d="M28.944 18.4506H46.6464V17.6511H28.944V14.453H37.3752V13.4997H27.6685V9.96334H53.3976V13.4997H43.3797V14.453H51.9354V21.6487H34.233V22.3868H52.4954V25.6771H28.944V18.4506ZM40.5797 9.16381C38.2152 9.16381 36.3174 9.0408 34.8552 8.7948C33.3619 8.54879 32.2107 8.24128 31.4018 7.81076C30.5618 7.411 30.0018 6.94973 29.7218 6.39621C29.4107 5.87345 29.2551 5.31993 29.2551 4.73566C29.2551 4.12064 29.4107 3.50562 29.7218 2.92135C30.0018 2.36783 30.5618 1.84506 31.4018 1.41455C32.2107 0.984033 33.3619 0.645772 34.8552 0.369012C36.3174 0.123004 38.2152 0 40.5797 0C42.9442 0 44.7797 0.123004 46.2731 0.369012C47.7353 0.645772 48.8865 0.984033 49.7265 1.41455C50.5354 1.84506 51.1265 2.36783 51.4376 2.92135C51.7487 3.50562 51.9043 4.12064 51.9043 4.73566C51.8732 5.31993 51.7176 5.87345 51.4376 6.39621C51.1265 6.94973 50.5354 7.411 49.7265 7.81076C48.8865 8.24128 47.7353 8.54879 46.2731 8.7948C44.7797 9.0408 42.882 9.16381 40.5797 9.16381ZM40.5797 5.71969C41.6997 5.71969 42.6019 5.71969 43.3486 5.65819C44.0331 5.62744 44.5931 5.56594 45.0286 5.47368C45.402 5.38143 45.682 5.25843 45.8687 5.10467C46.0242 4.98167 46.1175 4.79716 46.1175 4.5819C46.1175 4.3974 46.0242 4.24364 45.8998 4.08989C45.7131 3.96688 45.4331 3.84388 45.0286 3.75163C44.5931 3.65937 44.0331 3.56712 43.3486 3.50562C42.6019 3.47487 41.6997 3.44412 40.5797 3.44412C39.4597 3.44412 38.4952 3.47487 37.8108 3.50562C37.0641 3.56712 36.5041 3.65937 36.0997 3.75163C35.6641 3.84388 35.3841 3.96688 35.2596 4.08989C35.1041 4.24364 35.0419 4.3974 35.0419 4.5819C35.0419 4.79716 35.1041 4.98167 35.2908 5.10467C35.4152 5.25843 35.6952 5.38143 36.1308 5.47368C36.5041 5.56594 37.0641 5.62744 37.8108 5.65819C38.5263 5.71969 39.4597 5.71969 40.5797 5.71969Z" fill="black"/>
<path d="M135.096 1.38379V2.85984C135.096 3.72087 134.847 4.6434 134.35 5.62743C133.821 6.64222 133.167 7.62625 132.421 8.57953C131.985 9.1638 131.487 9.68657 131.021 10.2093C131.332 10.3631 131.612 10.5476 131.923 10.7014C132.856 11.2856 133.821 11.9006 134.816 12.5772C135.75 13.2844 136.652 13.9917 137.523 14.7297L134.07 18.4814C132.39 17.0361 130.647 15.7445 128.843 14.6375C128.19 14.2685 127.536 13.8995 126.883 13.592C125.358 14.5145 123.709 15.314 121.967 16.0213C120.007 16.8516 117.736 17.6203 115.123 18.2969L112.852 14.1762C114.469 13.6842 116.118 13.1307 117.736 12.4542C119.323 11.8391 120.785 11.1626 122.154 10.4553C123.492 9.77882 124.674 9.07155 125.701 8.33352C126.696 7.62625 127.412 6.94973 127.909 6.30396H114.625V1.38379H135.096Z" fill="black"/>
<path d="M112.271 19.5732C112.271 19.5732 124.534 23.6273 138 19.5732V24.4217C138 24.4217 127.469 27.9683 112.271 24.4217V19.5732Z" fill="black"/>
<path d="M83.918 6.58102H90.2336V5.16647H84.0735V0.861328H95.0559V10.7324H88.7402V12.2085H96.5181V16.5136H83.918V6.58102ZM98.6959 18.2972V10.1481L96.1137 10.2711V5.59699H98.6959V0.861328H103.487V18.2972H98.6959ZM104.856 18.2972V0.861328H109.772V18.2972H104.856Z" fill="black"/>
<path d="M83.918 19.5732C83.918 19.5732 96.2381 23.6273 109.772 19.5732V24.4217C109.772 24.4217 99.1885 27.9683 83.918 24.4217V19.5732Z" fill="black"/>
<path d="M60.3044 5.93536H56.7266V1.16895H79.8424V5.93536H76.2334V12.4853H79.8424V17.2517H56.7266V12.4853H60.3044V5.93536ZM70.9445 12.4853V5.93536H65.5933V12.4853H70.9445Z" fill="black"/>
<path d="M55.3574 19.5732C55.3574 19.5732 67.6205 23.6273 81.0866 19.5732V24.4217C81.0866 24.4217 70.5554 27.9683 55.3574 24.4217V19.5732Z" fill="black"/>
<path d="M0.217773 13.4693C3.32892 11.9625 5.81783 10.179 7.74674 8.08791C9.61343 6.02759 10.6401 3.69051 10.7646 1.10742H16.5824C16.5202 2.79873 16.2091 4.36703 15.649 5.90458C16.5513 6.3966 17.4535 6.91937 18.3246 7.44214C19.1335 7.99565 19.9424 8.57992 20.7513 9.19494C21.5291 9.80997 22.3069 10.4865 23.0847 11.1938C23.8314 11.9318 24.6403 12.7006 25.5114 13.5616L21.8402 17.6822C20.4091 16.0832 18.9158 14.6379 17.3291 13.3463C15.8979 12.27 14.4668 11.3168 13.0046 10.5172C12.8801 10.671 12.7246 10.8247 12.6001 11.0093C11.3868 12.4238 9.98677 13.7153 8.43119 14.8531C6.8134 16.0217 5.13338 16.975 3.36003 17.7745L0.217773 13.4693Z" fill="black"/>
<path d="M15.6802 21.301V16.1963H10.049V21.2753C4.04967 20.9063 0 19.5687 0 19.5687V24.4171C15.1979 27.9637 25.7292 24.4171 25.7292 24.4171V19.5687C22.2343 20.6193 18.8224 21.1216 15.6802 21.2958V21.301Z" fill="black"/>
</g>
<defs>
<clipPath id="clip0_413_882">
<rect width="138" height="26" fill="white"/>
</clipPath>
</defs>
</svg>
